SplineFontDB: 3.0
FontName: Geneva-LightItalic
FullName: Geneva Light Italic
FamilyName: Geneva
Weight: Light
Copyright: Copyright 2011 Google Inc. All Rights Reserved.
Version: 1.00
DefaultBaseFilename: Geneva-300-Italic
ItalicAngle: -12
UnderlinePosition: -200
UnderlineWidth: 100
Ascent: 1536
Descent: 512
InvalidEm: 0
LayerCount: 2
Layer: 0 1 "Back" 1
Layer: 1 1 "Fore" 0
FSType: 0
OS2Version: 3
OS2_WeightWidthSlopeOnly: 0
OS2_UseTypoMetrics: 1
CreationTime: 1221222574
ModificationTime: 1431374552
PfmFamily: 33
TTFWeight: 300
TTFWidth: 5
LineGap: 0
VLineGap: 0
Panose: 2 0 0 0 0 0 0 0 0 0
OS2TypoAscent: 1536
OS2TypoAOffset: 0
OS2TypoDescent: -512
OS2TypoDOffset: 0
OS2TypoLinegap: 102
OS2WinAscent: 1946
OS2WinAOffset: 0
OS2WinDescent: 512
OS2WinDOffset: 0
HheadAscent: 1900
HheadAOffset: 0
HheadDescent: -500
HheadDOffset: 0
OS2SubXSize: 1434
OS2SubYSize: 1331
OS2SubXOff: 0
OS2SubYOff: 287
OS2SupXSize: 1434
OS2SupYSize: 1331
OS2SupXOff: 0
OS2SupYOff: 977
OS2StrikeYSize: 102
OS2StrikeYPos: 512
OS2CapHeight: 1456
OS2XHeight: 1082
OS2Vendor: '    '
OS2CodePages: 2000019f.00000000
OS2UnicodeRanges: e0000aff.5000217f.00000021.00000000
Lookup: 1 0 0 "'c2sc' Capitals to Small Capitals in Latin lookup 0" { "'c2sc' Capitals to Small Capitals in Latin lookup 0 subtable"  } ['c2sc' ('latn' <'AZE ' 'CRT ' 'MOL ' 'NAV ' 'ROM ' 'TUR ' 'dflt' > ) ]
Lookup: 1 0 0 "'c2sc' Capitals to Small Capitals lookup 1" { "'c2sc' Capitals to Small Capitals lookup 1 subtable"  } ['c2sc' ('DFLT' <'dflt' > ) ]
Lookup: 1 0 0 "'c2sc' Capitals to Small Capitals in Greek lookup 2" { "'c2sc' Capitals to Small Capitals in Greek lookup 2 subtable"  } ['c2sc' ('grek' <'dflt' > ) ]
Lookup: 1 0 0 "'c2sc' Capitals to Small Capitals in Cyrillic lookup 3" { "'c2sc' Capitals to Small Capitals in Cyrillic lookup 3 subtable"  } ['c2sc' ('cyrl' <'dflt' > ) ]

StartChar: .notdef
Encoding: 1114112 -1 0
Width: 918
Flags: W
LayerCount: 2
Back
Fore
SplineSet
808 0 m 1,0,-1
 100 0 l 1,1,-1
 100 1456 l 1,2,-1
 808 1456 l 1,3,-1
 808 0 l 1,0,-1
754 84 m 1,4,-1
 754 1371 l 1,5,-1
 480 728 l 1,6,-1
 754 84 l 1,4,-1
154 1359 m 1,7,-1
 154 96 l 1,8,-1
 422 728 l 1,9,-1
 154 1359 l 1,7,-1
194 54 m 1,10,-1
 709 54 l 1,11,-1
 451 660 l 1,12,-1
 194 54 l 1,10,-1
451 796 m 1,13,-1
 709 1402 l 1,14,-1
 194 1402 l 1,15,-1
 451 796 l 1,13,-1
EndSplineSet
EndChar

StartChar: exclam
Encoding: 33 33 5
Width: 458
Flags: W
LayerCount: 2
Back
Fore
SplineSet
243 405 m 1,0,-1
 133 405 l 1,1,-1
 309 1456 l 1,2,-1
 433 1456 l 1,3,-1
 243 405 l 1,0,-1
56 70 m 0,4,5
 58 104 58 104 84 128 c 128,-1,6
 110 152 110 152 141 152 c 0,7,8
 176 153 176 153 198.5 129 c 128,-1,9
 221 105 221 105 218 70 c 0,10,11
 216 37 216 37 191 14.5 c 128,-1,12
 166 -8 166 -8 132 -9 c 128,-1,13
 98 -10 98 -10 76 12.5 c 128,-1,14
 54 35 54 35 56 70 c 0,4,5
EndSplineSet
EndChar

StartChar: quotedbl
Encoding: 34 34 6
Width: 580
Flags: W
LayerCount: 2
Back
Fore
SplineSet
361 1390 m 1,0,-1
 293 1083 l 1,1,-1
 212 1083 l 1,2,-1
 287 1536 l 1,3,-1
 384 1536 l 1,4,-1
 361 1390 l 1,0,-1
590 1392 m 1,5,-1
 522 1083 l 1,6,-1
 440 1083 l 1,7,-1
 516 1536 l 1,8,-1
 613 1536 l 1,9,-1
 590 1392 l 1,5,-1
EndSplineSet
EndChar

StartChar: numbersign
Encoding: 35 35 7
Width: 1165
Flags: W
LayerCount: 2
Back
Fore
SplineSet
695 410 m 1,0,-1
 396 410 l 1,1,-1
 250 0 l 1,2,-1
 148 0 l 1,3,-1
 295 410 l 1,4,-1
 48 410 l 1,5,-1
 65 503 l 1,6,-1
 327 503 l 1,7,-1
 484 944 l 1,8,-1
 214 944 l 1,9,-1
 232 1040 l 1,10,-1
 518 1040 l 1,11,-1
 667 1456 l 1,12,-1
 769 1456 l 1,13,-1
 619 1040 l 1,14,-1
 919 1040 l 1,15,-1
 1069 1456 l 1,16,-1
 1171 1456 l 1,17,-1
 1022 1040 l 1,18,-1
 1243 1040 l 1,19,-1
 1226 944 l 1,20,-1
 988 944 l 1,21,-1
 831 503 l 1,22,-1
 1077 503 l 1,23,-1
 1061 410 l 1,24,-1
 798 410 l 1,25,-1
 651 0 l 1,26,-1
 549 0 l 1,27,-1
 695 410 l 1,0,-1
428 503 m 1,28,-1
 728 503 l 1,29,-1
 886 944 l 1,30,-1
 586 944 l 1,31,-1
 428 503 l 1,28,-1
EndSplineSet
EndChar

StartChar: dollar
Encoding: 36 36 8
Width: 1111
Flags: W
LayerCount: 2
Back
Fore
SplineSet
837 366 m 0,0,1
 848 465 848 465 790.5 538.5 c 128,-1,2
 733 612 733 612 587 670.5 c 128,-1,3
 441 729 441 729 371 785.5 c 128,-1,4
 301 842 301 842 267.5 916 c 128,-1,5
 234 990 234 990 242 1088 c 0,6,7
 255 1254 255 1254 368 1356.5 c 128,-1,8
 481 1459 481 1459 658 1476 c 1,9,-1
 693 1677 l 1,10,-1
 795 1677 l 1,11,-1
 760 1474 l 1,12,13
 914 1451 914 1451 990 1335 c 128,-1,14
 1066 1219 1066 1219 1050 1028 c 1,15,-1
 932 1028 l 1,16,17
 946 1181 946 1181 882 1274 c 128,-1,18
 818 1367 818 1367 691 1370 c 0,19,20
 557 1372 557 1372 465.5 1294 c 128,-1,21
 374 1216 374 1216 360 1090 c 0,22,23
 343 929 343 929 489 842 c 0,24,25
 527 819 527 819 639 773 c 128,-1,26
 751 727 751 727 811 683 c 0,27,28
 973 565 973 565 957 369 c 0,29,30
 944 203 944 203 828 100 c 128,-1,31
 712 -3 712 -3 529 -18 c 1,32,-1
 496 -208 l 1,33,-1
 395 -208 l 1,34,-1
 428 -18 l 1,35,36
 312 -7 312 -7 231 50.5 c 128,-1,37
 150 108 150 108 113 203.5 c 128,-1,38
 76 299 76 299 87 418 c 1,39,-1
 206 418 l 1,40,41
 193 264 193 264 268.5 175 c 128,-1,42
 344 86 344 86 485 84 c 0,43,44
 625 82 625 82 724.5 161 c 128,-1,45
 824 240 824 240 837 366 c 0,0,1
EndSplineSet
Substitution2: "'c2sc' Capitals to Small Capitals in Cyrillic lookup 3 subtable" dollar.c2sc
Substitution2: "'c2sc' Capitals to Small Capitals in Greek lookup 2 subtable" dollar.c2sc
Substitution2: "'c2sc' Capitals to Small Capitals lookup 1 subtable" dollar.c2sc
Substitution2: "'c2sc' Capitals to Small Capitals in Latin lookup 0 subtable" dollar.c2sc
Position2: "'cpsp' Capital Spacing in Cyrillic lookup 3 subtable" dx=36 dy=0 dh=72 dv=0
Position2: "'cpsp' Capital Spacing in Greek lookup 2 subtable" dx=36 dy=0 dh=72 dv=0
Position2: "'cpsp' Capital Spacing lookup 1 subtable" dx=36 dy=0 dh=72 dv=0
Position2: "'cpsp' Capital Spacing in Latin lookup 0 subtable" dx=36 dy=0 dh=72 dv=0
EndChar

StartChar: percent
Encoding: 37 37 9
Width: 1478
Flags: W
LayerCount: 2
Back
Fore
SplineSet
206 1175 m 2,0,1
 221 1307 221 1307 309.5 1394.5 c 128,-1,2
 398 1482 398 1482 521 1478 c 0,3,4
 636 1474 636 1474 703.5 1389 c 128,-1,5
 771 1304 771 1304 762 1176 c 1,6,-1
 755 1109 l 2,7,8
 740 968 740 968 651.5 881.5 c 128,-1,9
 563 795 563 795 442 799 c 0,10,11
 329 801 329 801 259.5 886.5 c 128,-1,12
 190 972 190 972 199 1099 c 2,13,-1
 206 1175 l 2,0,1
296 1097 m 2,14,15
 289 1002 289 1002 330 944.5 c 128,-1,16
 371 887 371 887 447 885 c 0,17,18
 529 883 529 883 586 942 c 128,-1,19
 643 1001 643 1001 657 1099 c 2,20,-1
 665 1177 l 2,21,22
 673 1272 673 1272 631.5 1330.5 c 128,-1,23
 590 1389 590 1389 516 1391 c 0,24,25
 435 1393 435 1393 375.5 1331.5 c 128,-1,26
 316 1270 316 1270 304 1168 c 2,27,-1
 296 1097 l 2,14,15
775 356 m 2,28,29
 790 486 790 486 877 573 c 128,-1,30
 964 660 964 660 1089 658 c 0,31,32
 1206 654 1206 654 1273 569.5 c 128,-1,33
 1340 485 1340 485 1331 357 c 2,34,-1
 1324 279 l 2,35,36
 1309 147 1309 147 1219.5 60.5 c 128,-1,37
 1130 -26 1130 -26 1010 -22 c 0,38,39
 895 -20 895 -20 827 66 c 128,-1,40
 759 152 759 152 768 279 c 2,41,-1
 775 356 l 2,28,29
864 277 m 2,42,43
 857 183 857 183 897.5 124.5 c 128,-1,44
 938 66 938 66 1015 64 c 0,45,46
 1095 62 1095 62 1153.5 120.5 c 128,-1,47
 1212 179 1212 179 1226 279 c 2,48,-1
 1234 358 l 2,49,50
 1241 455 1241 455 1202 512 c 128,-1,51
 1163 569 1163 569 1084 571 c 0,52,53
 1000 573 1000 573 941.5 511.5 c 128,-1,54
 883 450 883 450 872 349 c 2,55,-1
 864 277 l 2,42,43
350 122 m 1,56,-1
 277 175 l 1,57,-1
 1162 1306 l 1,58,-1
 1231 1258 l 1,59,-1
 350 122 l 1,56,-1
EndSplineSet
EndChar

StartChar: ampersand
Encoding: 38 38 10
Width: 1232
Flags: W
LayerCount: 2
Back
Fore
SplineSet
428 796 m 1,0,-1
 391 861 l 2,1,2
 308 1014 308 1014 319 1137 c 0,3,4
 331 1289 331 1289 432 1384 c 128,-1,5
 533 1479 533 1479 684 1477 c 0,6,7
 811 1473 811 1473 887 1394.5 c 128,-1,8
 963 1316 963 1316 955 1199 c 0,9,10
 942 1033 942 1033 726 883 c 2,11,-1
 576 779 l 1,12,-1
 887 318 l 1,13,14
 999 466 999 466 1029 651 c 1,15,-1
 1137 651 l 1,16,17
 1104 401 1104 401 951 229 c 1,18,-1
 1103 0 l 1,19,-1
 971 0 l 1,20,-1
 874 144 l 1,21,22
 680 -24 680 -24 462 -20 c 0,23,24
 282 -18 282 -18 171.5 87 c 128,-1,25
 61 192 61 192 74 363 c 0,26,27
 83 472 83 472 162 575 c 128,-1,28
 241 678 241 678 428 796 c 1,0,-1
467 82 m 0,29,30
 639 79 639 79 812 232 c 1,31,-1
 494 701 l 1,32,-1
 483 716 l 1,33,-1
 434 681 l 1,34,-1
 382 640 l 1,35,36
 211 500 211 500 195 363 c 0,37,38
 178 242 178 242 255.5 163 c 128,-1,39
 333 84 333 84 467 82 c 0,29,30
438 1142 m 0,40,41
 425 1023 425 1023 524 862 c 1,42,-1
 704 992 l 1,43,44
 828 1089 828 1089 839 1200 c 0,45,46
 847 1275 847 1275 799.5 1325 c 128,-1,47
 752 1375 752 1375 676 1375 c 0,48,49
 580 1377 580 1377 514.5 1309.5 c 128,-1,50
 449 1242 449 1242 438 1142 c 0,40,41
EndSplineSet
EndChar

StartChar: quotesingle
Encoding: 39 39 11
Width: 348
Flags: W
LayerCount: 2
Back
Fore
SplineSet
344 1389 m 1,0,-1
 281 1090 l 1,1,-1
 190 1090 l 1,2,-1
 266 1536 l 1,3,-1
 367 1536 l 1,4,-1
 344 1389 l 1,0,-1
EndSplineSet
EndChar

StartChar: parenleft
Encoding: 40 40 12
Width: 643
Flags: W
LayerCount: 2
Back
Fore
SplineSet
736 1633 m 1,0,-1
 757 1551 l 1,1,2
 597 1442 597 1442 479 1245 c 128,-1,3
 361 1048 361 1048 294.5 773 c 128,-1,4
 228 498 228 498 233 240 c 2,5,-1
 235 174 l 1,6,7
 257 -226 257 -226 454 -392 c 1,8,-1
 419 -469 l 1,9,10
 219 -320 219 -320 151 -3 c 0,11,12
 110 190 110 190 120 392 c 0,13,14
 131 653 131 653 216.5 915 c 128,-1,15
 302 1177 302 1177 434.5 1360 c 128,-1,16
 567 1543 567 1543 736 1633 c 1,0,-1
EndSplineSet
EndChar

StartChar: parenright
Encoding: 41 41 13
Width: 657
Flags: W
LayerCount: 2
Back
Fore
SplineSet
495 577 m 1,0,1
 436 201 436 201 280 -74 c 128,-1,2
 124 -349 124 -349 -103 -471 c 1,3,-1
 -124 -393 l 1,4,5
 65 -264 65 -264 192 -17.5 c 128,-1,6
 319 229 319 229 375 572 c 1,7,-1
 379 592 l 1,8,9
 403 761 403 761 401 921 c 0,10,11
 396 1152 396 1152 339 1311.5 c 128,-1,12
 282 1471 282 1471 180 1555 c 1,13,-1
 215 1631 l 1,14,15
 371 1517 371 1517 448.5 1287 c 128,-1,16
 526 1057 526 1057 514 769 c 0,17,18
 510 675 510 675 498 593 c 2,19,-1
 495 577 l 1,0,1
EndSplineSet
EndChar

StartChar: asterisk
Encoding: 42 42 14
Width: 853
Flags: W
LayerCount: 2
Back
Fore
SplineSet
417 1003 m 1,0,-1
 114 1111 l 1,1,-1
 161 1208 l 1,2,-1
 464 1084 l 1,3,-1
 525 1456 l 1,4,-1
 629 1456 l 1,5,-1
 556 1087 l 1,6,-1
 890 1212 l 1,7,-1
 905 1106 l 1,8,-1
 561 991 l 1,9,-1
 727 695 l 1,10,-1
 638 635 l 1,11,-1
 484 940 l 1,12,-1
 234 639 l 1,13,-1
 156 705 l 1,14,-1
 417 1003 l 1,0,-1
EndSplineSet
EndChar

StartChar: plus
Encoding: 43 43 15
Width: 1131
Flags: W
LayerCount: 2
Back
Fore
SplineSet
637 740 m 1,0,-1
 1067 740 l 1,1,-1
 1047 628 l 1,2,-1
 618 628 l 1,3,-1
 534 146 l 1,4,-1
 414 146 l 1,5,-1
 498 628 l 1,6,-1
 76 628 l 1,7,-1
 96 740 l 1,8,-1
 517 740 l 1,9,-1
 598 1206 l 1,10,-1
 718 1206 l 1,11,-1
 637 740 l 1,0,-1
EndSplineSet
EndChar

StartChar: comma
Encoding: 44 44 16
Width: 390
Flags: W
LayerCount: 2
Back
Fore
SplineSet
-17 -273 m 1,0,-1
 -84 -218 l 1,1,2
 31 -86 31 -86 53 46 c 2,3,-1
 77 188 l 1,4,-1
 193 188 l 1,5,-1
 171 44 l 1,6,7
 138 -144 138 -144 -17 -273 c 1,0,-1
EndSplineSet
EndChar

StartChar: hyphen
Encoding: 45 45 17
Width: 578
Flags: W
LayerCount: 2
Back
Fore
SplineSet
512 592 m 1,0,-1
 45 592 l 1,1,-1
 63 693 l 1,2,-1
 530 693 l 1,3,-1
 512 592 l 1,0,-1
EndSplineSet
EndChar

StartChar: period
Encoding: 46 46 18
Width: 484
Flags: W
LayerCount: 2
Back
Fore
SplineSet
48 72 m 0,0,1
 51 107 51 107 76.5 131.5 c 128,-1,2
 102 156 102 156 137 157 c 0,3,4
 173 158 173 158 196 133 c 128,-1,5
 219 108 219 108 216 72 c 0,6,7
 214 37 214 37 188.5 14.5 c 128,-1,8
 163 -8 163 -8 128 -9 c 128,-1,9
 93 -10 93 -10 69.5 13 c 128,-1,10
 46 36 46 36 48 72 c 0,0,1
EndSplineSet
EndChar

StartChar: slash
Encoding: 47 47 19
Width: 799
Flags: W
LayerCount: 2
Back
Fore
SplineSet
13 -125 m 1,0,-1
 -101 -125 l 1,1,-1
 764 1456 l 1,2,-1
 877 1456 l 1,3,-1
 13 -125 l 1,0,-1
EndSplineSet
Substitution2: "'frac' Diagonal Fractions lookup 63 subtable" fraction
EndChar

StartChar: zero
Encoding: 48 48 20
Width: 1111
Flags: W
LayerCount: 2
Back
Fore
SplineSet
459 -20 m 0,0,1
 342 -17 342 -17 261 42 c 128,-1,2
 180 101 180 101 143 214.5 c 128,-1,3
 106 328 106 328 110 468 c 1,4,-1
 117 576 l 1,5,-1
 160 860 l 2,6,7
 207 1164 207 1164 341 1322.5 c 128,-1,8
 475 1481 475 1481 692 1476 c 0,9,10
 869 1472 869 1472 957.5 1345.5 c 128,-1,11
 1046 1219 1046 1219 1040 992 c 0,12,13
 1038 920 1038 920 1029 853 c 2,14,-1
 989 595 l 2,15,16
 936 278 936 278 801 125.5 c 128,-1,17
 666 -27 666 -27 459 -20 c 0,0,1
924 1084 m 0,18,19
 903 1368 903 1368 686 1375 c 0,20,21
 524 1380 524 1380 421 1250.5 c 128,-1,22
 318 1121 318 1121 281 875 c 2,23,-1
 237 593 l 2,24,25
 222 472 222 472 228 378 c 0,26,27
 236 235 236 235 297.5 159 c 128,-1,28
 359 83 359 83 466 80 c 0,29,30
 616 73 616 73 718 193 c 128,-1,31
 820 313 820 313 863 550 c 1,32,-1
 911 857 l 2,33,34
 930 979 930 979 924 1084 c 0,18,19
EndSplineSet
Substitution2: "Single Substitution lookup 74 subtable" zero.dnom
Substitution2: "'numr' Numerators in Cyrillic lookup 73 subtable" zero.frac
Substitution2: "'numr' Numerators in Greek lookup 72 subtable" zero.frac
Substitution2: "'numr' Numerators lookup 71 subtable" zero.frac
Substitution2: "'numr' Numerators in Latin lookup 70 subtable" zero.frac
Substitution2: "'dnom' Denominators in Cyrillic lookup 69 subtable" zero.dnom
Substitution2: "'dnom' Denominators in Greek lookup 68 subtable" zero.dnom
Substitution2: "'dnom' Denominators lookup 67 subtable" zero.dnom
Substitution2: "'dnom' Denominators in Latin lookup 66 subtable" zero.dnom
Substitution2: "'frac' Diagonal Fractions lookup 65 subtable" zero.frac
Substitution2: "'pnum' Proportional Numbers in Cyrillic lookup 58 subtable" zero.pnum
Substitution2: "'pnum' Proportional Numbers in Greek lookup 57 subtable" zero.pnum
Substitution2: "'pnum' Proportional Numbers lookup 56 subtable" zero.pnum
Substitution2: "'pnum' Proportional Numbers in Latin lookup 55 subtable" zero.pnum
Substitution2: "'onum' Oldstyle Figures in Cyrillic lookup 50 subtable" zero.oldstyle
Substitution2: "'onum' Oldstyle Figures in Greek lookup 49 subtable" zero.oldstyle
Substitution2: "'onum' Oldstyle Figures lookup 48 subtable" zero.oldstyle
Substitution2: "'onum' Oldstyle Figures in Latin lookup 47 subtable" zero.oldstyle
EndChar

StartChar: one
Encoding: 49 49 21
Width: 1111
Flags: W
LayerCount: 2
Back
Fore
SplineSet
571 0 m 1,0,-1
 451 0 l 1,1,-1
 679 1308 l 1,2,-1
 268 1162 l 1,3,-1
 289 1280 l 1,4,-1
 797 1461 l 1,5,-1
 820 1461 l 1,6,-1
 571 0 l 1,0,-1
EndSplineSet
Substitution2: "Single Substitution lookup 74 subtable" one.dnom
Substitution2: "'numr' Numerators in Cyrillic lookup 73 subtable" uni00B9
Substitution2: "'numr' Numerators in Greek lookup 72 subtable" uni00B9
Substitution2: "'numr' Numerators lookup 71 subtable" uni00B9
Substitution2: "'numr' Numerators in Latin lookup 70 subtable" uni00B9
Substitution2: "'dnom' Denominators in Cyrillic lookup 69 subtable" one.dnom
Substitution2: "'dnom' Denominators in Greek lookup 68 subtable" one.dnom
Substitution2: "'dnom' Denominators lookup 67 subtable" one.dnom
Substitution2: "'dnom' Denominators in Latin lookup 66 subtable" one.dnom
Substitution2: "'frac' Diagonal Fractions lookup 65 subtable" uni00B9
Substitution2: "'pnum' Proportional Numbers in Cyrillic lookup 58 subtable" one.pnum
Substitution2: "'pnum' Proportional Numbers in Greek lookup 57 subtable" one.pnum
Substitution2: "'pnum' Proportional Numbers lookup 56 subtable" one.pnum
Substitution2: "'pnum' Proportional Numbers in Latin lookup 55 subtable" one.pnum
Substitution2: "'onum' Oldstyle Figures in Cyrillic lookup 50 subtable" one.oldstyle
Substitution2: "'onum' Oldstyle Figures in Greek lookup 49 subtable" one.oldstyle
Substitution2: "'onum' Oldstyle Figures lookup 48 subtable" one.oldstyle
Substitution2: "'onum' Oldstyle Figures in Latin lookup 47 subtable" one.oldstyle
EndChar

StartChar: two
Encoding: 50 50 22
Width: 1111
Flags: W
LayerCount: 2
Back
Fore
SplineSet
925 0 m 1,0,-1
 38 0 l 1,1,-1
 53 97 l 1,2,-1
 683 720 l 2,3,4
 882 921 882 921 901 1082 c 0,5,6
 917 1207 917 1207 851 1289 c 128,-1,7
 785 1371 785 1371 656 1375 c 0,8,9
 516 1379 516 1379 414.5 1286.5 c 128,-1,10
 313 1194 313 1194 287 1037 c 1,11,-1
 172 1036 l 1,12,13
 196 1231 196 1231 331 1355 c 128,-1,14
 466 1479 466 1479 660 1477 c 0,15,16
 841 1473 841 1473 940.5 1365.5 c 128,-1,17
 1040 1258 1040 1258 1023 1092 c 0,18,19
 1003 895 1003 895 775 665 c 2,20,-1
 203 101 l 1,21,-1
 942 101 l 1,22,-1
 925 0 l 1,0,-1
EndSplineSet
Substitution2: "Single Substitution lookup 74 subtable" two.dnom
Substitution2: "'numr' Numerators in Cyrillic lookup 73 subtable" uni00B2
Substitution2: "'numr' Numerators in Greek lookup 72 subtable" uni00B2
Substitution2: "'numr' Numerators lookup 71 subtable" uni00B2
Substitution2: "'numr' Numerators in Latin lookup 70 subtable" uni00B2
Substitution2: "'dnom' Denominators in Cyrillic lookup 69 subtable" two.dnom
Substitution2: "'dnom' Denominators in Greek lookup 68 subtable" two.dnom
Substitution2: "'dnom' Denominators lookup 67 subtable" two.dnom
Substitution2: "'dnom' Denominators in Latin lookup 66 subtable" two.dnom
Substitution2: "'frac' Diagonal Fractions lookup 65 subtable" uni00B2
Substitution2: "'pnum' Proportional Numbers in Cyrillic lookup 58 subtable" two.pnum
Substitution2: "'pnum' Proportional Numbers in Greek lookup 57 subtable" two.pnum
Substitution2: "'pnum' Proportional Numbers lookup 56 subtable" two.pnum
Substitution2: "'pnum' Proportional Numbers in Latin lookup 55 subtable" two.pnum
Substitution2: "'onum' Oldstyle Figures in Cyrillic lookup 50 subtable" two.oldstyle
Substitution2: "'onum' Oldstyle Figures in Greek lookup 49 subtable" two.oldstyle
Substitution2: "'onum' Oldstyle Figures lookup 48 subtable" two.oldstyle
Substitution2: "'onum' Oldstyle Figures in Latin lookup 47 subtable" two.oldstyle
EndChar

StartChar: three
Encoding: 51 51 23
Width: 1111
Flags: W
LayerCount: 2
Back
Fore
SplineSet
427 793 m 1,0,-1
 542 791 l 2,1,2
 693 791 693 791 798.5 870 c 128,-1,3
 904 949 904 949 919 1083 c 0,4,5
 933 1215 933 1215 865.5 1293 c 128,-1,6
 798 1371 798 1371 669 1375 c 0,7,8
 531 1377 531 1377 435.5 1295 c 128,-1,9
 340 1213 340 1213 315 1075 c 1,10,-1
 199 1074 l 1,11,12
 221 1253 221 1253 354.5 1366 c 128,-1,13
 488 1479 488 1479 675 1477 c 0,14,15
 854 1473 854 1473 954 1362.5 c 128,-1,16
 1054 1252 1054 1252 1038 1079 c 0,17,18
 1029 971 1029 971 953.5 883 c 128,-1,19
 878 795 878 795 745 742 c 1,20,21
 855 703 855 703 910.5 613 c 128,-1,22
 966 523 966 523 956 403 c 0,23,24
 940 212 940 212 803 94 c 128,-1,25
 666 -24 666 -24 468 -20 c 0,26,27
 282 -16 282 -16 169.5 99.5 c 128,-1,28
 57 215 57 215 71 395 c 1,29,-1
 189 395 l 1,30,31
 177 261 177 261 255.5 173 c 128,-1,32
 334 85 334 85 474 81 c 0,33,34
 624 77 624 77 724 164.5 c 128,-1,35
 824 252 824 252 838 399 c 0,36,37
 850 527 850 527 778 603 c 128,-1,38
 706 679 706 679 558 689 c 2,39,-1
 537 690 l 1,40,-1
 411 691 l 1,41,-1
 427 793 l 1,0,-1
EndSplineSet
Substitution2: "Single Substitution lookup 74 subtable" three.dnom
Substitution2: "'numr' Numerators in Cyrillic lookup 73 subtable" uni00B3
Substitution2: "'numr' Numerators in Greek lookup 72 subtable" uni00B3
Substitution2: "'numr' Numerators lookup 71 subtable" uni00B3
Substitution2: "'numr' Numerators in Latin lookup 70 subtable" uni00B3
Substitution2: "'dnom' Denominators in Cyrillic lookup 69 subtable" three.dnom
Substitution2: "'dnom' Denominators in Greek lookup 68 subtable" three.dnom
Substitution2: "'dnom' Denominators lookup 67 subtable" three.dnom
Substitution2: "'dnom' Denominators in Latin lookup 66 subtable" three.dnom
Substitution2: "'frac' Diagonal Fractions lookup 65 subtable" uni00B3
Substitution2: "'pnum' Proportional Numbers in Cyrillic lookup 58 subtable" three.pnum
Substitution2: "'pnum' Proportional Numbers in Greek lookup 57 subtable" three.pnum
Substitution2: "'pnum' Proportional Numbers lookup 56 subtable" three.pnum
Substitution2: "'pnum' Proportional Numbers in Latin lookup 55 subtable" three.pnum
Substitution2: "'onum' Oldstyle Figures in Cyrillic lookup 50 subtable" three.oldstyle
Substitution2: "'onum' Oldstyle Figures in Greek lookup 49 subtable" three.oldstyle
Substitution2: "'onum' Oldstyle Figures lookup 48 subtable" three.oldstyle
Substitution2: "'onum' Oldstyle Figures in Latin lookup 47 subtable" three.oldstyle
EndChar

StartChar: four
Encoding: 52 52 24
Width: 1111
Flags: W
LayerCount: 2
Back
Fore
SplineSet
825 469 m 1,0,-1
 1045 469 l 1,1,-1
 1027 368 l 1,2,-1
 808 368 l 1,3,-1
 743 0 l 1,4,-1
 624 0 l 1,5,-1
 688 368 l 1,6,-1
 27 368 l 1,7,-1
 35 435 l 1,8,-1
 862 1456 l 1,9,-1
 996 1456 l 1,10,-1
 825 469 l 1,0,-1
190 469 m 1,11,-1
 705 469 l 1,12,-1
 849 1289 l 1,13,-1
 787 1206 l 1,14,-1
 190 469 l 1,11,-1
EndSplineSet
Substitution2: "Single Substitution lookup 74 subtable" four.dnom
Substitution2: "'numr' Numerators in Cyrillic lookup 73 subtable" four.frac
Substitution2: "'numr' Numerators in Greek lookup 72 subtable" four.frac
Substitution2: "'numr' Numerators lookup 71 subtable" four.frac
Substitution2: "'numr' Numerators in Latin lookup 70 subtable" four.frac
Substitution2: "'dnom' Denominators in Cyrillic lookup 69 subtable" four.dnom
Substitution2: "'dnom' Denominators in Greek lookup 68 subtable" four.dnom
Substitution2: "'dnom' Denominators lookup 67 subtable" four.dnom
Substitution2: "'dnom' Denominators in Latin lookup 66 subtable" four.dnom
Substitution2: "'frac' Diagonal Fractions lookup 65 subtable" four.frac
Substitution2: "'pnum' Proportional Numbers in Cyrillic lookup 58 subtable" four.pnum
Substitution2: "'pnum' Proportional Numbers in Greek lookup 57 subtable" four.pnum
Substitution2: "'pnum' Proportional Numbers lookup 56 subtable" four.pnum
Substitution2: "'pnum' Proportional Numbers in Latin lookup 55 subtable" four.pnum
Substitution2: "'onum' Oldstyle Figures in Cyrillic lookup 50 subtable" four.oldstyle
Substitution2: "'onum' Oldstyle Figures in Greek lookup 49 subtable" four.oldstyle
Substitution2: "'onum' Oldstyle Figures lookup 48 subtable" four.oldstyle
Substitution2: "'onum' Oldstyle Figures in Latin lookup 47 subtable" four.oldstyle
EndChar

StartChar: five
Encoding: 53 53 25
Width: 1111
Flags: W
LayerCount: 2
Back
Fore
SplineSet
233 748 m 1,0,-1
 411 1456 l 1,1,-1
 1122 1456 l 1,2,-1
 1104 1345 l 1,3,-1
 499 1345 l 1,4,-1
 367 853 l 1,5,6
 486 934 486 934 639 932 c 0,7,8
 818 930 818 930 915 799.5 c 128,-1,9
 1012 669 1012 669 994 471 c 0,10,11
 974 248 974 248 843 111.5 c 128,-1,12
 712 -25 712 -25 508 -21 c 0,13,14
 331 -17 331 -17 230.5 94.5 c 128,-1,15
 130 206 130 206 130 384 c 1,16,-1
 243 384 l 1,17,18
 245 243 245 243 315 163.5 c 128,-1,19
 385 84 385 84 514 80 c 0,20,21
 666 76 666 76 762 184 c 128,-1,22
 858 292 858 292 874 470 c 0,23,24
 888 624 888 624 818 721.5 c 128,-1,25
 748 819 748 819 613 823 c 0,26,27
 460 827 460 827 329 720 c 1,28,-1
 233 748 l 1,0,-1
EndSplineSet
Substitution2: "Single Substitution lookup 74 subtable" five.dnom
Substitution2: "'numr' Numerators in Cyrillic lookup 73 subtable" five.frac
Substitution2: "'numr' Numerators in Greek lookup 72 subtable" five.frac
Substitution2: "'numr' Numerators lookup 71 subtable" five.frac
Substitution2: "'numr' Numerators in Latin lookup 70 subtable" five.frac
Substitution2: "'dnom' Denominators in Cyrillic lookup 69 subtable" five.dnom
Substitution2: "'dnom' Denominators in Greek lookup 68 subtable" five.dnom
Substitution2: "'dnom' Denominators lookup 67 subtable" five.dnom
Substitution2: "'dnom' Denominators in Latin lookup 66 subtable" five.dnom
Substitution2: "'frac' Diagonal Fractions lookup 65 subtable" five.frac
Substitution2: "'pnum' Proportional Numbers in Cyrillic lookup 58 subtable" five.pnum
Substitution2: "'pnum' Proportional Numbers in Greek lookup 57 subtable" five.pnum
Substitution2: "'pnum' Proportional Numbers lookup 56 subtable" five.pnum
Substitution2: "'pnum' Proportional Numbers in Latin lookup 55 subtable" five.pnum
Substitution2: "'onum' Oldstyle Figures in Cyrillic lookup 50 subtable" five.oldstyle
Substitution2: "'onum' Oldstyle Figures in Greek lookup 49 subtable" five.oldstyle
Substitution2: "'onum' Oldstyle Figures lookup 48 subtable" five.oldstyle
Substitution2: "'onum' Oldstyle Figures in Latin lookup 47 subtable" five.oldstyle
EndChar

StartChar: six
Encoding: 54 54 26
Width: 1111
Flags: W
LayerCount: 2
Back
Fore
SplineSet
955 1468 m 1,0,-1
 943 1363 l 1,1,-1
 911 1363 l 1,2,3
 673 1358 673 1358 510 1209.5 c 128,-1,4
 347 1061 347 1061 270 783 c 1,5,6
 422 960 422 960 643 956 c 0,7,8
 758 954 758 954 840 892.5 c 128,-1,9
 922 831 922 831 960 722 c 128,-1,10
 998 613 998 613 985 484 c 0,11,12
 976 382 976 382 935.5 286.5 c 128,-1,13
 895 191 895 191 830 121 c 0,14,15
 694 -25 694 -25 501 -21 c 0,16,17
 335 -16 335 -16 232.5 95.5 c 128,-1,18
 130 207 130 207 115 385 c 0,19,20
 106 477 106 477 139 674 c 0,21,22
 201 1047 201 1047 408.5 1257.5 c 128,-1,23
 616 1468 616 1468 939 1468 c 2,24,-1
 955 1468 l 1,0,-1
618 853 m 0,25,26
 500 855 500 855 389.5 785.5 c 128,-1,27
 279 716 279 716 249 615 c 1,28,-1
 236 511 l 2,29,30
 223 396 223 396 250 298.5 c 128,-1,31
 277 201 277 201 342.5 142 c 128,-1,32
 408 83 408 83 506 81 c 0,33,34
 601 79 601 79 678.5 130.5 c 128,-1,35
 756 182 756 182 805.5 274 c 128,-1,36
 855 366 855 366 868 480 c 0,37,38
 885 641 885 641 817.5 745.5 c 128,-1,39
 750 850 750 850 618 853 c 0,25,26
EndSplineSet
Substitution2: "Single Substitution lookup 74 subtable" six.dnom
Substitution2: "'numr' Numerators in Cyrillic lookup 73 subtable" six.frac
Substitution2: "'numr' Numerators in Greek lookup 72 subtable" six.frac
Substitution2: "'numr' Numerators lookup 71 subtable" six.frac
Substitution2: "'numr' Numerators in Latin lookup 70 subtable" six.frac
Substitution2: "'dnom' Denominators in Cyrillic lookup 69 subtable" six.dnom
Substitution2: "'dnom' Denominators in Greek lookup 68 subtable" six.dnom
Substitution2: "'dnom' Denominators lookup 67 subtable" six.dnom
Substitution2: "'dnom' Denominators in Latin lookup 66 subtable" six.dnom
Substitution2: "'frac' Diagonal Fractions lookup 65 subtable" six.frac
EndChar

StartChar: seven
Encoding: 55 55 27
Width: 1111
Flags: W
LayerCount: 2
Back
Fore
SplineSet
1127 1387 m 1,0,-1
 310 0 l 1,1,-1
 180 0 l 1,2,-1
 992 1354 l 1,3,-1
 191 1354 l 1,4,-1
 207 1456 l 1,5,-1
 1135 1456 l 1,6,-1
 1127 1387 l 1,0,-1
EndSplineSet
Substitution2: "Single Substitution lookup 74 subtable" seven.dnom
Substitution2: "'numr' Numerators in Cyrillic lookup 73 subtable" seven.frac
Substitution2: "'numr' Numerators in Greek lookup 72 subtable" seven.frac
Substitution2: "'numr' Numerators lookup 71 subtable" seven.frac
Substitution2: "'numr' Numerators in Latin lookup 70 subtable" seven.frac
Substitution2: "'dnom' Denominators in Cyrillic lookup 69 subtable" seven.dnom
Substitution2: "'dnom' Denominators in Greek lookup 68 subtable" seven.dnom
Substitution2: "'dnom' Denominators lookup 67 subtable" seven.dnom
Substitution2: "'dnom' Denominators in Latin lookup 66 subtable" seven.dnom
Substitution2: "'frac' Diagonal Fractions lookup 65 subtable" seven.frac
Substitution2: "'pnum' Proportional Numbers in Cyrillic lookup 58 subtable" seven.pnum
Substitution2: "'pnum' Proportional Numbers in Greek lookup 57 subtable" seven.pnum
Substitution2: "'pnum' Proportional Numbers lookup 56 subtable" seven.pnum
Substitution2: "'pnum' Proportional Numbers in Latin lookup 55 subtable" seven.pnum
Substitution2: "'onum' Oldstyle Figures in Cyrillic lookup 50 subtable" seven.oldstyle
Substitution2: "'onum' Oldstyle Figures in Greek lookup 49 subtable" seven.oldstyle
Substitution2: "'onum' Oldstyle Figures lookup 48 subtable" seven.oldstyle
Substitution2: "'onum' Oldstyle Figures in Latin lookup 47 subtable" seven.oldstyle
EndChar

StartChar: eight
Encoding: 56 56 28
Width: 1111
Flags: W
LayerCount: 2
Back
Fore
SplineSet
1057 1090 m 0,0,1
 1046 972 1046 972 970.5 883.5 c 128,-1,2
 895 795 895 795 766 743 c 1,3,4
 872 694 872 694 926 602 c 128,-1,5
 980 510 980 510 972 395 c 0,6,7
 957 208 957 208 815 92 c 128,-1,8
 673 -24 673 -24 465 -20 c 0,9,10
 277 -16 277 -16 167 92 c 128,-1,11
 57 200 57 200 72 378 c 0,12,13
 83 505 83 505 168 601.5 c 128,-1,14
 253 698 253 698 400 751 c 1,15,16
 310 799 310 799 266 884 c 128,-1,17
 222 969 222 969 230 1072 c 0,18,19
 243 1252 243 1252 374.5 1366 c 128,-1,20
 506 1480 506 1480 697 1476 c 0,21,22
 869 1472 869 1472 970 1365.5 c 128,-1,23
 1071 1259 1071 1259 1057 1090 c 0,0,1
853 394 m 0,24,25
 867 523 867 523 787.5 608 c 128,-1,26
 708 693 708 693 575 697 c 0,27,28
 421 699 421 699 313.5 607 c 128,-1,29
 206 515 206 515 191 376 c 0,30,31
 176 245 176 245 254.5 163.5 c 128,-1,32
 333 82 333 82 470 80 c 0,33,34
 622 76 622 76 730 163.5 c 128,-1,35
 838 251 838 251 853 394 c 0,24,25
937 1091 m 0,36,37
 949 1208 949 1208 879.5 1289.5 c 128,-1,38
 810 1371 810 1371 690 1375 c 0,39,40
 552 1377 552 1377 457 1291 c 128,-1,41
 362 1205 362 1205 348 1073 c 0,42,43
 336 955 336 955 405.5 877 c 128,-1,44
 475 799 475 799 595 797 c 0,45,46
 728 793 728 793 826.5 877.5 c 128,-1,47
 925 962 925 962 937 1091 c 0,36,37
EndSplineSet
Substitution2: "Single Substitution lookup 74 subtable" eight.dnom
Substitution2: "'numr' Numerators in Cyrillic lookup 73 subtable" eight.frac
Substitution2: "'numr' Numerators in Greek lookup 72 subtable" eight.frac
Substitution2: "'numr' Numerators lookup 71 subtable" eight.frac
Substitution2: "'numr' Numerators in Latin lookup 70 subtable" eight.frac
Substitution2: "'dnom' Denominators in Cyrillic lookup 69 subtable" eight.dnom
Substitution2: "'dnom' Denominators in Greek lookup 68 subtable" eight.dnom
Substitution2: "'dnom' Denominators lookup 67 subtable" eight.dnom
Substitution2: "'dnom' Denominators in Latin lookup 66 subtable" eight.dnom
Substitution2: "'frac' Diagonal Fractions lookup 65 subtable" eight.frac
EndChar

StartChar: nine
Encoding: 57 57 29
Width: 1111
Flags: W
LayerCount: 2
Back
Fore
SplineSet
879 673 m 1,0,1
 803 578 803 578 704 525.5 c 128,-1,2
 605 473 605 473 500 477 c 0,3,4
 386 479 386 479 304 544 c 128,-1,5
 222 609 222 609 184.5 718.5 c 128,-1,6
 147 828 147 828 159 958 c 0,7,8
 174 1103 174 1103 242.5 1224.5 c 128,-1,9
 311 1346 311 1346 418 1412.5 c 128,-1,10
 525 1479 525 1479 654 1477 c 0,11,12
 826 1473 826 1473 924.5 1357 c 128,-1,13
 1023 1241 1023 1241 1029 1032 c 0,14,15
 1032 920 1032 920 1001 735 c 0,16,17
 940 375 940 375 745.5 184 c 128,-1,18
 551 -7 551 -7 251 -12 c 1,19,-1
 202 -12 l 1,20,-1
 214 92 l 1,21,-1
 254 92 l 1,22,23
 500 96 500 96 654.5 239.5 c 128,-1,24
 809 383 809 383 879 673 c 1,0,1
520 580 m 0,25,26
 634 576 634 576 736 645.5 c 128,-1,27
 838 715 838 715 898 837 c 1,28,29
 912 959 912 959 912 1008 c 0,30,31
 912 1179 912 1179 844.5 1274.5 c 128,-1,32
 777 1370 777 1370 650 1374 c 0,33,34
 553 1376 553 1376 473.5 1322.5 c 128,-1,35
 394 1269 394 1269 341.5 1172 c 128,-1,36
 289 1075 289 1075 277 963 c 0,37,38
 266 862 266 862 291.5 773.5 c 128,-1,39
 317 685 317 685 375.5 633.5 c 128,-1,40
 434 582 434 582 520 580 c 0,25,26
EndSplineSet
Substitution2: "Single Substitution lookup 74 subtable" nine.dnom
Substitution2: "'numr' Numerators in Cyrillic lookup 73 subtable" nine.frac
Substitution2: "'numr' Numerators in Greek lookup 72 subtable" nine.frac
Substitution2: "'numr' Numerators lookup 71 subtable" nine.frac
Substitution2: "'numr' Numerators in Latin lookup 70 subtable" nine.frac
Substitution2: "'dnom' Denominators in Cyrillic lookup 69 subtable" nine.dnom
Substitution2: "'dnom' Denominators in Greek lookup 68 subtable" nine.dnom
Substitution2: "'dnom' Denominators lookup 67 subtable" nine.dnom
Substitution2: "'dnom' Denominators in Latin lookup 66 subtable" nine.dnom
Substitution2: "'frac' Diagonal Fractions lookup 65 subtable" nine.frac
Substitution2: "'pnum' Proportional Numbers in Cyrillic lookup 58 subtable" nine.pnum
Substitution2: "'pnum' Proportional Numbers in Greek lookup 57 subtable" nine.pnum
Substitution2: "'pnum' Proportional Numbers lookup 56 subtable" nine.pnum
Substitution2: "'pnum' Proportional Numbers in Latin lookup 55 subtable" nine.pnum
Substitution2: "'onum' Oldstyle Figures in Cyrillic lookup 50 subtable" nine.oldstyle
Substitution2: "'onum' Oldstyle Figures in Greek lookup 49 subtable" nine.oldstyle
Substitution2: "'onum' Oldstyle Figures lookup 48 subtable" nine.oldstyle
Substitution2: "'onum' Oldstyle Figures in Latin lookup 47 subtable" nine.oldstyle
EndChar

StartChar: less
Encoding: 60 60 32
Width: 1026
Flags: W
LayerCount: 2
Back
Fore
SplineSet
212 652 m 1,0,-1
 836 352 l 1,1,-1
 814 231 l 1,2,-1
 75 612 l 1,3,-1
 92 708 l 1,4,-1
 964 1087 l 1,5,-1
 940 954 l 1,6,-1
 212 652 l 1,0,-1
EndSplineSet
EndChar

StartChar: equal
Encoding: 61 61 33
Width: 1109
Flags: W
LayerCount: 2
Back
Fore
SplineSet
995 829 m 1,0,-1
 183 829 l 1,1,-1
 202 935 l 1,2,-1
 1014 935 l 1,3,-1
 995 829 l 1,0,-1
923 418 m 1,4,-1
 112 418 l 1,5,-1
 131 524 l 1,6,-1
 942 524 l 1,7,-1
 923 418 l 1,4,-1
EndSplineSet
EndChar

StartChar: greater
Encoding: 62 62 34
Width: 1039
Flags: W
LayerCount: 2
Back
Fore
SplineSet
820 662 m 1,0,-1
 182 965 l 1,1,-1
 203 1083 l 1,2,-1
 960 704 l 1,3,-1
 943 607 l 1,4,-1
 54 227 l 1,5,-1
 77 358 l 1,6,-1
 820 662 l 1,0,-1
EndSplineSet
EndChar

StartChar: question
Encoding: 63 63 35
Width: 912
Flags: W
LayerCount: 2
Back
Fore
SplineSet
339 402 m 1,0,1
 352 512 352 512 400 597 c 128,-1,2
 448 682 448 682 547 766 c 128,-1,3
 646 850 646 850 686.5 897.5 c 128,-1,4
 727 945 727 945 752.5 996.5 c 128,-1,5
 778 1048 778 1048 784 1110 c 0,6,7
 797 1223 797 1223 745.5 1295 c 128,-1,8
 694 1367 694 1367 587 1371 c 0,9,10
 472 1373 472 1373 392.5 1305.5 c 128,-1,11
 313 1238 313 1238 287 1116 c 1,12,-1
 172 1115 l 1,13,14
 196 1281 196 1281 313 1381 c 128,-1,15
 430 1481 430 1481 596 1477 c 0,16,17
 749 1473 749 1473 834.5 1373 c 128,-1,18
 920 1273 920 1273 905 1111 c 0,19,20
 887 924 887 924 699 755 c 1,21,-1
 586 660 l 1,22,23
 480 565 480 565 449 404 c 1,24,-1
 339 402 l 1,0,1
256 70 m 0,25,26
 259 104 259 104 283 127.5 c 128,-1,27
 307 151 307 151 342 152 c 128,-1,28
 377 153 377 153 399 129 c 128,-1,29
 421 105 421 105 419 70 c 0,30,31
 416 37 416 37 391 14.5 c 128,-1,32
 366 -8 366 -8 333 -9 c 0,33,34
 298 -10 298 -10 276 12.5 c 128,-1,35
 254 35 254 35 256 70 c 0,25,26
EndSplineSet
EndChar

StartChar: at
Encoding: 64 64 36
Width: 1824
Flags: W
LayerCount: 2
Back
Fore
SplineSet
1229 -20 m 0,0,1
 1143 -18 1143 -18 1086.5 32.5 c 128,-1,2
 1030 83 1030 83 1024 173 c 1,3,4
 943 64 943 64 866.5 20 c 128,-1,5
 790 -24 790 -24 708 -21 c 0,6,7
 616 -18 616 -18 563 46 c 128,-1,8
 510 110 510 110 504 235 c 0,9,10
 493 408 493 408 569 599 c 128,-1,11
 645 790 645 790 763 890.5 c 128,-1,12
 881 991 881 991 1023 989 c 0,13,14
 1100 987 1100 987 1158.5 959 c 128,-1,15
 1217 931 1217 931 1274 882 c 1,16,-1
 1139 308 l 1,17,-1
 1131 231 l 2,18,19
 1126 158 1126 158 1156 113 c 128,-1,20
 1186 68 1186 68 1247 65 c 0,21,22
 1353 61 1353 61 1433 143 c 128,-1,23
 1513 225 1513 225 1561.5 380 c 128,-1,24
 1610 535 1610 535 1617 722 c 0,25,26
 1623 908 1623 908 1563.5 1045.5 c 128,-1,27
 1504 1183 1504 1183 1382.5 1253.5 c 128,-1,28
 1261 1324 1261 1324 1082 1327 c 0,29,30
 842 1331 842 1331 639 1192.5 c 128,-1,31
 436 1054 436 1054 308.5 802 c 128,-1,32
 181 550 181 550 175 274 c 0,33,34
 169 88 169 88 231 -60 c 128,-1,35
 293 -208 293 -208 414 -284.5 c 128,-1,36
 535 -361 535 -361 703 -362 c 0,37,38
 870 -366 870 -366 1040 -284 c 1,39,-1
 1063 -366 l 1,40,41
 912 -455 912 -455 698 -453 c 0,42,43
 507 -452 507 -452 366 -368.5 c 128,-1,44
 225 -285 225 -285 149.5 -124 c 128,-1,45
 74 37 74 37 74 246 c 0,46,47
 74 469 74 469 153 689.5 c 128,-1,48
 232 910 232 910 375 1079.5 c 128,-1,49
 518 1249 518 1249 701.5 1336 c 128,-1,50
 885 1423 885 1423 1088 1420 c 0,51,52
 1284 1417 1284 1417 1423.5 1337 c 128,-1,53
 1563 1257 1563 1257 1636 1102 c 128,-1,54
 1709 947 1709 947 1709 745 c 0,55,56
 1709 531 1709 531 1645.5 350 c 128,-1,57
 1582 169 1582 169 1474 72.5 c 128,-1,58
 1366 -24 1366 -24 1229 -20 c 0,0,1
609 285 m 2,59,60
 604 189 604 189 637.5 133.5 c 128,-1,61
 671 78 671 78 737 75 c 0,62,63
 830 70 830 70 915.5 144 c 128,-1,64
 1001 218 1001 218 1040 330 c 1,65,-1
 1170 850 l 1,66,67
 1110 895 1110 895 1028 899 c 0,68,69
 870 904 870 904 759.5 750 c 128,-1,70
 649 596 649 596 615 357 c 1,71,-1
 609 285 l 2,59,60
EndSplineSet
EndChar

StartChar: A
Encoding: 65 65 37
Width: 1251
Flags: W
LayerCount: 2
Back
Fore
SplineSet
909 408 m 1,0,-1
 271 408 l 1,1,-1
 54 0 l 1,2,-1
 -79 0 l 1,3,-1
 708 1456 l 1,4,-1
 825 1456 l 1,5,-1
 1106 0 l 1,6,-1
 985 0 l 1,7,-1
 909 408 l 1,0,-1
326 513 m 1,8,-1
 889 513 l 1,9,-1
 745 1302 l 1,10,-1
 326 513 l 1,8,-1
EndSplineSet
Substitution2: "'c2sc' Capitals to Small Capitals in Cyrillic lookup 3 subtable" A.c2sc
Substitution2: "'c2sc' Capitals to Small Capitals in Greek lookup 2 subtable" A.c2sc
Substitution2: "'c2sc' Capitals to Small Capitals lookup 1 subtable" A.c2sc
Substitution2: "'c2sc' Capitals to Small Capitals in Latin lookup 0 subtable" A.c2sc
Position2: "'cpsp' Capital Spacing in Cyrillic lookup 3 subtable" dx=36 dy=0 dh=72 dv=0
Position2: "'cpsp' Capital Spacing in Greek lookup 2 subtable" dx=36 dy=0 dh=72 dv=0
Position2: "'cpsp' Capital Spacing lookup 1 subtable" dx=36 dy=0 dh=72 dv=0
Position2: "'cpsp' Capital Spacing in Latin lookup 0 subtable" dx=36 dy=0 dh=72 dv=0
EndChar

StartChar: B
Encoding: 66 66 38
Width: 1227
Flags: W
LayerCount: 2
Back
Fore
SplineSet
73 0 m 1,0,-1
 326 1456 l 1,1,-1
 736 1455 l 1,2,3
 945 1450 945 1450 1051 1352 c 128,-1,4
 1157 1254 1157 1254 1141 1082 c 0,5,6
 1130 968 1130 968 1058 883.5 c 128,-1,7
 986 799 986 799 863 755 c 1,8,9
 967 723 967 723 1025 630.5 c 128,-1,10
 1083 538 1083 538 1074 418 c 0,11,12
 1059 228 1059 228 920.5 114 c 128,-1,13
 782 0 782 0 559 0 c 2,14,-1
 73 0 l 1,0,-1
317 700 m 1,15,-1
 213 104 l 1,16,-1
 563 103 l 2,17,18
 721 103 721 103 828.5 186 c 128,-1,19
 936 269 936 269 953 416 c 0,20,21
 966 543 966 543 895.5 619 c 128,-1,22
 825 695 825 695 690 699 c 2,23,-1
 317 700 l 1,15,-1
334 803 m 1,24,-1
 653 802 l 2,25,26
 809 804 809 804 906.5 881 c 128,-1,27
 1004 958 1004 958 1018 1087 c 0,28,29
 1043 1340 1043 1340 733 1350 c 1,30,-1
 430 1351 l 1,31,-1
 334 803 l 1,24,-1
EndSplineSet
Substitution2: "'c2sc' Capitals to Small Capitals in Cyrillic lookup 3 subtable" B.c2sc
Substitution2: "'c2sc' Capitals to Small Capitals in Greek lookup 2 subtable" B.c2sc
Substitution2: "'c2sc' Capitals to Small Capitals lookup 1 subtable" B.c2sc
Substitution2: "'c2sc' Capitals to Small Capitals in Latin lookup 0 subtable" B.c2sc
Position2: "'cpsp' Capital Spacing in Cyrillic lookup 3 subtable" dx=36 dy=0 dh=72 dv=0
Position2: "'cpsp' Capital Spacing in Greek lookup 2 subtable" dx=36 dy=0 dh=72 dv=0
Position2: "'cpsp' Capital Spacing lookup 1 subtable" dx=36 dy=0 dh=72 dv=0
Position2: "'cpsp' Capital Spacing in Latin lookup 0 subtable" dx=36 dy=0 dh=72 dv=0
EndChar

StartChar: C
Encoding: 67 67 39
Width: 1300
Flags: W
LayerCount: 2
Back
Fore
SplineSet
1150 454 m 1,0,1
 1099 229 1099 229 943 101.5 c 128,-1,2
 787 -26 787 -26 562 -20 c 0,3,4
 367 -16 367 -16 251.5 118.5 c 128,-1,5
 136 253 136 253 127 481 c 0,6,7
 124 559 124 559 134 636 c 2,8,-1
 161 812 l 2,9,10
 192 1013 192 1013 285.5 1168 c 128,-1,11
 379 1323 379 1323 513 1401 c 128,-1,12
 647 1479 647 1479 808 1476 c 0,13,14
 1016 1472 1016 1472 1133 1344 c 128,-1,15
 1250 1216 1250 1216 1248 999 c 1,16,-1
 1127 1000 l 1,17,18
 1127 1175 1127 1175 1043 1271.5 c 128,-1,19
 959 1368 959 1368 802 1372 c 0,20,21
 604 1377 604 1377 464.5 1224.5 c 128,-1,22
 325 1072 325 1072 283 803 c 2,23,-1
 253 603 l 1,24,-1
 249 513 l 2,25,26
 247 395 247 395 283.5 294 c 128,-1,27
 320 193 320 193 393 140 c 128,-1,28
 466 87 466 87 568 84 c 0,29,30
 742 78 742 78 859 171.5 c 128,-1,31
 976 265 976 265 1031 453 c 1,32,-1
 1150 454 l 1,0,1
EndSplineSet
Substitution2: "'ss06' Style Set 6 in Cyrillic lookup 42 subtable" C.ss06
Substitution2: "'ss06' Style Set 6 in Greek lookup 41 subtable" C.ss06
Substitution2: "'ss06' Style Set 6 lookup 40 subtable" C.ss06
Substitution2: "'ss06' Style Set 6 in Latin lookup 39 subtable" C.ss06
Substitution2: "'c2sc' Capitals to Small Capitals in Cyrillic lookup 3 subtable" C.c2sc
Substitution2: "'c2sc' Capitals to Small Capitals in Greek lookup 2 subtable" C.c2sc
Substitution2: "'c2sc' Capitals to Small Capitals lookup 1 subtable" C.c2sc
Substitution2: "'c2sc' Capitals to Small Capitals in Latin lookup 0 subtable" C.c2sc
Position2: "'cpsp' Capital Spacing in Cyrillic lookup 3 subtable" dx=36 dy=0 dh=72 dv=0
Position2: "'cpsp' Capital Spacing in Greek lookup 2 subtable" dx=36 dy=0 dh=72 dv=0
Position2: "'cpsp' Capital Spacing lookup 1 subtable" dx=36 dy=0 dh=72 dv=0
Position2: "'cpsp' Capital Spacing in Latin lookup 0 subtable" dx=36 dy=0 dh=72 dv=0
EndChar

StartChar: D
Encoding: 68 68 40
Width: 1311
Flags: W
LayerCount: 2
Back
Fore
SplineSet
73 0 m 1,0,-1
 326 1456 l 1,1,-1
 705 1455 l 2,2,3
 874 1455 874 1455 998 1368.5 c 128,-1,4
 1122 1282 1122 1282 1177.5 1129.5 c 128,-1,5
 1233 977 1233 977 1210 794 c 1,6,-1
 1192 673 l 2,7,8
 1146 370 1146 370 950 185 c 128,-1,9
 754 0 754 0 469 0 c 2,10,-1
 73 0 l 1,0,-1
430 1351 m 1,11,-1
 213 104 l 1,12,-1
 473 103 l 2,13,14
 626 103 626 103 752 173 c 128,-1,15
 878 243 878 243 960.5 370.5 c 128,-1,16
 1043 498 1043 498 1068.5 658.5 c 128,-1,17
 1094 819 1094 819 1095.5 880 c 128,-1,18
 1097 941 1097 941 1089 998 c 0,19,20
 1066 1158 1066 1158 967 1252 c 128,-1,21
 868 1346 868 1346 711 1350 c 2,22,-1
 430 1351 l 1,11,-1
EndSplineSet
Substitution2: "'ss06' Style Set 6 in Cyrillic lookup 42 subtable" D.ss06
Substitution2: "'ss06' Style Set 6 in Greek lookup 41 subtable" D.ss06
Substitution2: "'ss06' Style Set 6 lookup 40 subtable" D.ss06
Substitution2: "'ss06' Style Set 6 in Latin lookup 39 subtable" D.ss06
Substitution2: "'c2sc' Capitals to Small Capitals in Cyrillic lookup 3 subtable" D.c2sc
Substitution2: "'c2sc' Capitals to Small Capitals in Greek lookup 2 subtable" D.c2sc
Substitution2: "'c2sc' Capitals to Small Capitals lookup 1 subtable" D.c2sc
Substitution2: "'c2sc' Capitals to Small Capitals in Latin lookup 0 subtable" D.c2sc
Position2: "'cpsp' Capital Spacing in Cyrillic lookup 3 subtable" dx=36 dy=0 dh=72 dv=0
Position2: "'cpsp' Capital Spacing in Greek lookup 2 subtable" dx=36 dy=0 dh=72 dv=0
Position2: "'cpsp' Capital Spacing lookup 1 subtable" dx=36 dy=0 dh=72 dv=0
Position2: "'cpsp' Capital Spacing in Latin lookup 0 subtable" dx=36 dy=0 dh=72 dv=0
EndChar

StartChar: E
Encoding: 69 69 41
Width: 1140
Flags: W
LayerCount: 2
Back
Fore
SplineSet
977 698 m 1,0,-1
 317 698 l 1,1,-1
 213 104 l 1,2,-1
 973 104 l 1,3,-1
 955 0 l 1,4,-1
 73 0 l 1,5,-1
 326 1456 l 1,6,-1
 1203 1456 l 1,7,-1
 1184 1351 l 1,8,-1
 430 1351 l 1,9,-1
 334 802 l 1,10,-1
 995 802 l 1,11,-1
 977 698 l 1,0,-1
EndSplineSet
Substitution2: "'c2sc' Capitals to Small Capitals in Cyrillic lookup 3 subtable" E.c2sc
Substitution2: "'c2sc' Capitals to Small Capitals in Greek lookup 2 subtable" E.c2sc
Substitution2: "'c2sc' Capitals to Small Capitals lookup 1 subtable" E.c2sc
Substitution2: "'c2sc' Capitals to Small Capitals in Latin lookup 0 subtable" E.c2sc
Position2: "'cpsp' Capital Spacing in Cyrillic lookup 3 subtable" dx=36 dy=0 dh=72 dv=0
Position2: "'cpsp' Capital Spacing in Greek lookup 2 subtable" dx=36 dy=0 dh=72 dv=0
Position2: "'cpsp' Capital Spacing lookup 1 subtable" dx=36 dy=0 dh=72 dv=0
Position2: "'cpsp' Capital Spacing in Latin lookup 0 subtable" dx=36 dy=0 dh=72 dv=0
EndChar

StartChar: F
Encoding: 70 70 42
Width: 1127
Flags: W
LayerCount: 2
Back
Fore
SplineSet
972 680 m 1,0,-1
 314 680 l 1,1,-1
 195 0 l 1,2,-1
 73 0 l 1,3,-1
 326 1456 l 1,4,-1
 1204 1456 l 1,5,-1
 1185 1351 l 1,6,-1
 430 1351 l 1,7,-1
 331 785 l 1,8,-1
 991 785 l 1,9,-1
 972 680 l 1,0,-1
EndSplineSet
Substitution2: "'c2sc' Capitals to Small Capitals in Cyrillic lookup 3 subtable" F.c2sc
Substitution2: "'c2sc' Capitals to Small Capitals in Greek lookup 2 subtable" F.c2sc
Substitution2: "'c2sc' Capitals to Small Capitals lookup 1 subtable" F.c2sc
Substitution2: "'c2sc' Capitals to Small Capitals in Latin lookup 0 subtable" F.c2sc
Position2: "'cpsp' Capital Spacing in Cyrillic lookup 3 subtable" dx=36 dy=0 dh=72 dv=0
Position2: "'cpsp' Capital Spacing in Greek lookup 2 subtable" dx=36 dy=0 dh=72 dv=0
Position2: "'cpsp' Capital Spacing lookup 1 subtable" dx=36 dy=0 dh=72 dv=0
Position2: "'cpsp' Capital Spacing in Latin lookup 0 subtable" dx=36 dy=0 dh=72 dv=0
EndChar

StartChar: G
Encoding: 71 71 43
Width: 1368
Flags: W
LayerCount: 2
Back
Fore
SplineSet
1131 173 m 1,0,1
 1057 78 1057 78 918.5 27.5 c 128,-1,2
 780 -23 780 -23 610 -20 c 0,3,4
 407 -18 407 -18 281 119 c 128,-1,5
 155 256 155 256 143 484 c 0,6,7
 138 566 138 566 149 644 c 2,8,-1
 174 810 l 2,9,10
 221 1116 221 1116 395.5 1298.5 c 128,-1,11
 570 1481 570 1481 829 1476 c 0,12,13
 1029 1472 1029 1472 1149 1357 c 128,-1,14
 1269 1242 1269 1242 1275 1045 c 1,15,-1
 1155 1045 l 1,16,17
 1148 1197 1148 1197 1063 1282 c 128,-1,18
 978 1367 978 1367 824 1371 c 0,19,20
 620 1376 620 1376 478.5 1224 c 128,-1,21
 337 1072 337 1072 296 806 c 2,22,-1
 272 650 l 2,23,24
 262 585 262 585 264 516 c 0,25,26
 267 318 267 318 360 202.5 c 128,-1,27
 453 87 453 87 614 85 c 0,28,29
 871 80 871 80 1009 211 c 1,30,-1
 1075 587 l 1,31,-1
 696 587 l 1,32,-1
 714 691 l 1,33,-1
 1215 691 l 1,34,-1
 1131 173 l 1,0,1
EndSplineSet
Substitution2: "'ss06' Style Set 6 in Cyrillic lookup 42 subtable" G.ss06
Substitution2: "'ss06' Style Set 6 in Greek lookup 41 subtable" G.ss06
Substitution2: "'ss06' Style Set 6 lookup 40 subtable" G.ss06
Substitution2: "'ss06' Style Set 6 in Latin lookup 39 subtable" G.ss06
Substitution2: "'c2sc' Capitals to Small Capitals in Cyrillic lookup 3 subtable" G.c2sc
Substitution2: "'c2sc' Capitals to Small Capitals in Greek lookup 2 subtable" G.c2sc
Substitution2: "'c2sc' Capitals to Small Capitals lookup 1 subtable" G.c2sc
Substitution2: "'c2sc' Capitals to Small Capitals in Latin lookup 0 subtable" G.c2sc
Position2: "'cpsp' Capital Spacing in Cyrillic lookup 3 subtable" dx=36 dy=0 dh=72 dv=0
Position2: "'cpsp' Capital Spacing in Greek lookup 2 subtable" dx=36 dy=0 dh=72 dv=0
Position2: "'cpsp' Capital Spacing lookup 1 subtable" dx=36 dy=0 dh=72 dv=0
Position2: "'cpsp' Capital Spacing in Latin lookup 0 subtable" dx=36 dy=0 dh=72 dv=0
EndChar

StartChar: H
Encoding: 72 72 44
Width: 1416
Flags: W
LayerCount: 2
Back
Fore
SplineSet
1122 0 m 1,0,-1
 999 0 l 1,1,-1
 1121 698 l 1,2,-1
 317 698 l 1,3,-1
 195 0 l 1,4,-1
 73 0 l 1,5,-1
 326 1456 l 1,6,-1
 448 1456 l 1,7,-1
 334 802 l 1,8,-1
 1138 802 l 1,9,-1
 1252 1456 l 1,10,-1
 1376 1456 l 1,11,-1
 1122 0 l 1,0,-1
EndSplineSet
Substitution2: "'c2sc' Capitals to Small Capitals in Cyrillic lookup 3 subtable" H.c2sc
Substitution2: "'c2sc' Capitals to Small Capitals in Greek lookup 2 subtable" H.c2sc
Substitution2: "'c2sc' Capitals to Small Capitals lookup 1 subtable" H.c2sc
Substitution2: "'c2sc' Capitals to Small Capitals in Latin lookup 0 subtable" H.c2sc
Position2: "'cpsp' Capital Spacing in Cyrillic lookup 3 subtable" dx=36 dy=0 dh=72 dv=0
Position2: "'cpsp' Capital Spacing in Greek lookup 2 subtable" dx=36 dy=0 dh=72 dv=0
Position2: "'cpsp' Capital Spacing lookup 1 subtable" dx=36 dy=0 dh=72 dv=0
Position2: "'cpsp' Capital Spacing in Latin lookup 0 subtable" dx=36 dy=0 dh=72 dv=0
EndChar

StartChar: I
Encoding: 73 73 45
Width: 539
Flags: W
LayerCount: 2
Back
Fore
SplineSet
221 0 m 1,0,-1
 99 0 l 1,1,-1
 352 1456 l 1,2,-1
 474 1456 l 1,3,-1
 221 0 l 1,0,-1
EndSplineSet
Substitution2: "'c2sc' Capitals to Small Capitals in Cyrillic lookup 3 subtable" I.c2sc
Substitution2: "'c2sc' Capitals to Small Capitals in Greek lookup 2 subtable" I.c2sc
Substitution2: "'c2sc' Capitals to Small Capitals lookup 1 subtable" I.c2sc
Substitution2: "'c2sc' Capitals to Small Capitals in Latin lookup 0 subtable" I.c2sc
Position2: "'cpsp' Capital Spacing in Cyrillic lookup 3 subtable" dx=36 dy=0 dh=72 dv=0
Position2: "'cpsp' Capital Spacing in Greek lookup 2 subtable" dx=36 dy=0 dh=72 dv=0
Position2: "'cpsp' Capital Spacing lookup 1 subtable" dx=36 dy=0 dh=72 dv=0
Position2: "'cpsp' Capital Spacing in Latin lookup 0 subtable" dx=36 dy=0 dh=72 dv=0
EndChar

StartChar: J
Encoding: 74 74 46
Width: 1103
Flags: W
LayerCount: 2
Back
Fore
SplineSet
959 1456 m 1,0,-1
 1082 1456 l 1,1,-1
 907 433 l 1,2,3
 878 230 878 230 744 102.5 c 128,-1,4
 610 -25 610 -25 410 -21 c 0,5,6
 222 -17 222 -17 124 95.5 c 128,-1,7
 26 208 26 208 44 401 c 1,8,-1
 166 401 l 1,9,10
 151 255 151 255 217 171 c 128,-1,11
 283 87 283 87 418 83 c 0,12,13
 557 79 557 79 657 174 c 128,-1,14
 757 269 757 269 784 431 c 2,15,-1
 959 1456 l 1,0,-1
EndSplineSet
Substitution2: "'c2sc' Capitals to Small Capitals in Cyrillic lookup 3 subtable" J.c2sc
Substitution2: "'c2sc' Capitals to Small Capitals in Greek lookup 2 subtable" J.c2sc
Substitution2: "'c2sc' Capitals to Small Capitals lookup 1 subtable" J.c2sc
Substitution2: "'c2sc' Capitals to Small Capitals in Latin lookup 0 subtable" J.c2sc
Position2: "'cpsp' Capital Spacing in Cyrillic lookup 3 subtable" dx=36 dy=0 dh=72 dv=0
Position2: "'cpsp' Capital Spacing in Greek lookup 2 subtable" dx=36 dy=0 dh=72 dv=0
Position2: "'cpsp' Capital Spacing lookup 1 subtable" dx=36 dy=0 dh=72 dv=0
Position2: "'cpsp' Capital Spacing in Latin lookup 0 subtable" dx=36 dy=0 dh=72 dv=0
EndChar

StartChar: K
Encoding: 75 75 47
Width: 1263
Flags: W
LayerCount: 2
Back
Fore
SplineSet
523 721 m 1,0,-1
 285 516 l 1,1,-1
 195 0 l 1,2,-1
 73 0 l 1,3,-1
 326 1456 l 1,4,-1
 448 1456 l 1,5,-1
 313 680 l 1,6,-1
 546 890 l 1,7,-1
 1164 1456 l 1,8,-1
 1327 1456 l 1,9,-1
 616 802 l 1,10,-1
 1110 0 l 1,11,-1
 972 0 l 1,12,-1
 523 721 l 1,0,-1
EndSplineSet
Substitution2: "'ss05' Style Set 5 in Cyrillic lookup 38 subtable" K.ss05
Substitution2: "'ss05' Style Set 5 in Greek lookup 37 subtable" K.ss05
Substitution2: "'ss05' Style Set 5 lookup 36 subtable" K.ss05
Substitution2: "'ss05' Style Set 5 in Latin lookup 35 subtable" K.ss05
Substitution2: "'ss04' Style Set 4 in Cyrillic lookup 34 subtable" K.ss04
Substitution2: "'ss04' Style Set 4 in Greek lookup 33 subtable" K.ss04
Substitution2: "'ss04' Style Set 4 lookup 32 subtable" K.ss04
Substitution2: "'ss04' Style Set 4 in Latin lookup 31 subtable" K.ss04
Substitution2: "'c2sc' Capitals to Small Capitals in Cyrillic lookup 3 subtable" K.c2sc
Substitution2: "'c2sc' Capitals to Small Capitals in Greek lookup 2 subtable" K.c2sc
Substitution2: "'c2sc' Capitals to Small Capitals lookup 1 subtable" K.c2sc
Substitution2: "'c2sc' Capitals to Small Capitals in Latin lookup 0 subtable" K.c2sc
Position2: "'cpsp' Capital Spacing in Cyrillic lookup 3 subtable" dx=36 dy=0 dh=72 dv=0
Position2: "'cpsp' Capital Spacing in Greek lookup 2 subtable" dx=36 dy=0 dh=72 dv=0
Position2: "'cpsp' Capital Spacing lookup 1 subtable" dx=36 dy=0 dh=72 dv=0
Position2: "'cpsp' Capital Spacing in Latin lookup 0 subtable" dx=36 dy=0 dh=72 dv=0
EndChar

StartChar: L
Encoding: 76 76 48
Width: 1057
Flags: W
LayerCount: 2
Back
Fore
SplineSet
214 104 m 1,0,-1
 912 104 l 1,1,-1
 894 0 l 1,2,-1
 73 0 l 1,3,-1
 326 1456 l 1,4,-1
 449 1456 l 1,5,-1
 214 104 l 1,0,-1
EndSplineSet
Substitution2: "'c2sc' Capitals to Small Capitals in Cyrillic lookup 3 subtable" L.c2sc
Substitution2: "'c2sc' Capitals to Small Capitals in Greek lookup 2 subtable" L.c2sc
Substitution2: "'c2sc' Capitals to Small Capitals lookup 1 subtable" L.c2sc
Substitution2: "'c2sc' Capitals to Small Capitals in Latin lookup 0 subtable" L.c2sc
Position2: "'cpsp' Capital Spacing in Cyrillic lookup 3 subtable" dx=36 dy=0 dh=72 dv=0
Position2: "'cpsp' Capital Spacing in Greek lookup 2 subtable" dx=36 dy=0 dh=72 dv=0
Position2: "'cpsp' Capital Spacing lookup 1 subtable" dx=36 dy=0 dh=72 dv=0
Position2: "'cpsp' Capital Spacing in Latin lookup 0 subtable" dx=36 dy=0 dh=72 dv=0
EndChar

StartChar: M
Encoding: 77 77 49
Width: 1729
Flags: W
LayerCount: 2
Back
Fore
SplineSet
484 1456 m 1,0,-1
 781 174 l 1,1,-1
 1525 1456 l 1,2,-1
 1690 1456 l 1,3,-1
 1437 0 l 1,4,-1
 1315 0 l 1,5,-1
 1426 639 l 1,6,-1
 1545 1269 l 1,7,-1
 804 0 l 1,8,-1
 710 0 l 1,9,-1
 408 1279 l 1,10,-1
 305 633 l 1,11,-1
 195 0 l 1,12,-1
 73 0 l 1,13,-1
 326 1456 l 1,14,-1
 484 1456 l 1,0,-1
EndSplineSet
Substitution2: "'c2sc' Capitals to Small Capitals in Cyrillic lookup 3 subtable" M.c2sc
Substitution2: "'c2sc' Capitals to Small Capitals in Greek lookup 2 subtable" M.c2sc
Substitution2: "'c2sc' Capitals to Small Capitals lookup 1 subtable" M.c2sc
Substitution2: "'c2sc' Capitals to Small Capitals in Latin lookup 0 subtable" M.c2sc
Position2: "'cpsp' Capital Spacing in Cyrillic lookup 3 subtable" dx=36 dy=0 dh=72 dv=0
Position2: "'cpsp' Capital Spacing in Greek lookup 2 subtable" dx=36 dy=0 dh=72 dv=0
Position2: "'cpsp' Capital Spacing lookup 1 subtable" dx=36 dy=0 dh=72 dv=0
Position2: "'cpsp' Capital Spacing in Latin lookup 0 subtable" dx=36 dy=0 dh=72 dv=0
EndChar

StartChar: N
Encoding: 78 78 50
Width: 1420
Flags: W
LayerCount: 2
Back
Fore
SplineSet
1128 0 m 1,0,-1
 1010 0 l 1,1,-1
 413 1248 l 1,2,-1
 196 0 l 1,3,-1
 73 0 l 1,4,-1
 326 1456 l 1,5,-1
 444 1456 l 1,6,-1
 1042 207 l 1,7,-1
 1259 1456 l 1,8,-1
 1380 1456 l 1,9,-1
 1128 0 l 1,0,-1
EndSplineSet
Substitution2: "'c2sc' Capitals to Small Capitals in Cyrillic lookup 3 subtable" N.c2sc
Substitution2: "'c2sc' Capitals to Small Capitals in Greek lookup 2 subtable" N.c2sc
Substitution2: "'c2sc' Capitals to Small Capitals lookup 1 subtable" N.c2sc
Substitution2: "'c2sc' Capitals to Small Capitals in Latin lookup 0 subtable" N.c2sc
Position2: "'cpsp' Capital Spacing in Cyrillic lookup 3 subtable" dx=36 dy=0 dh=72 dv=0
Position2: "'cpsp' Capital Spacing in Greek lookup 2 subtable" dx=36 dy=0 dh=72 dv=0
Position2: "'cpsp' Capital Spacing lookup 1 subtable" dx=36 dy=0 dh=72 dv=0
Position2: "'cpsp' Capital Spacing in Latin lookup 0 subtable" dx=36 dy=0 dh=72 dv=0
EndChar

StartChar: O
Encoding: 79 79 51
Width: 1354
Flags: W
LayerCount: 2
Back
Fore
SplineSet
577 -20 m 0,0,1
 373 -16 373 -16 253.5 121.5 c 128,-1,2
 134 259 134 259 124 489 c 0,3,4
 120 569 120 569 131 648 c 2,5,-1
 151 786 l 2,6,7
 196 1091 196 1091 371 1284 c 0,8,9
 550 1481 550 1481 813 1476 c 0,10,11
 947 1473 947 1473 1047.5 1410.5 c 128,-1,12
 1148 1348 1148 1348 1204 1228.5 c 128,-1,13
 1260 1109 1260 1109 1265 966 c 0,14,15
 1268 880 1268 880 1256 798 c 2,16,-1
 1233 644 l 1,17,18
 1198 438 1198 438 1103.5 284 c 128,-1,19
 1009 130 1009 130 874 53.5 c 128,-1,20
 739 -23 739 -23 577 -20 c 0,0,1
1136 809 m 2,21,22
 1144 872 1144 872 1145 937 c 0,23,24
 1145 1059 1145 1059 1107 1159 c 128,-1,25
 1069 1259 1069 1259 992.5 1312.5 c 128,-1,26
 916 1366 916 1366 807 1369 c 0,27,28
 607 1374 607 1374 466 1225.5 c 128,-1,29
 325 1077 325 1077 280 824 c 0,30,31
 244 619 244 619 245 521 c 0,32,33
 245 319 245 319 333.5 205 c 128,-1,34
 422 91 422 91 583 87 c 0,35,36
 796 82 796 82 935.5 241 c 128,-1,37
 1075 400 1075 400 1114 661 c 2,38,-1
 1136 809 l 2,21,22
EndSplineSet
Substitution2: "'ss06' Style Set 6 in Cyrillic lookup 42 subtable" O.ss06
Substitution2: "'ss06' Style Set 6 in Greek lookup 41 subtable" O.ss06
Substitution2: "'ss06' Style Set 6 lookup 40 subtable" O.ss06
Substitution2: "'ss06' Style Set 6 in Latin lookup 39 subtable" O.ss06
Substitution2: "'c2sc' Capitals to Small Capitals in Cyrillic lookup 3 subtable" O.c2sc
Substitution2: "'c2sc' Capitals to Small Capitals in Greek lookup 2 subtable" O.c2sc
Substitution2: "'c2sc' Capitals to Small Capitals lookup 1 subtable" O.c2sc
Substitution2: "'c2sc' Capitals to Small Capitals in Latin lookup 0 subtable" O.c2sc
Position2: "'cpsp' Capital Spacing in Cyrillic lookup 3 subtable" dx=36 dy=0 dh=72 dv=0
Position2: "'cpsp' Capital Spacing in Greek lookup 2 subtable" dx=36 dy=0 dh=72 dv=0
Position2: "'cpsp' Capital Spacing lookup 1 subtable" dx=36 dy=0 dh=72 dv=0
Position2: "'cpsp' Capital Spacing in Latin lookup 0 subtable" dx=36 dy=0 dh=72 dv=0
EndChar

StartChar: P
Encoding: 80 80 52
Width: 1233
Flags: W
LayerCount: 2
Back
Fore
SplineSet
298 593 m 1,0,-1
 195 0 l 1,1,-1
 73 0 l 1,2,-1
 326 1456 l 1,3,-1
 800 1455 l 1,4,5
 1004 1449 1004 1449 1115 1334.5 c 128,-1,6
 1226 1220 1226 1220 1209 1028 c 0,7,8
 1189 824 1189 824 1044 708 c 128,-1,9
 899 592 899 592 666 592 c 2,10,-1
 298 593 l 1,0,-1
316 697 m 1,11,-1
 671 696 l 2,12,13
 844 696 844 696 956 784 c 128,-1,14
 1068 872 1068 872 1087 1027 c 0,15,16
 1103 1175 1103 1175 1023.5 1260.5 c 128,-1,17
 944 1346 944 1346 797 1350 c 2,18,-1
 430 1351 l 1,19,-1
 316 697 l 1,11,-1
EndSplineSet
Substitution2: "'c2sc' Capitals to Small Capitals in Cyrillic lookup 3 subtable" P.c2sc
Substitution2: "'c2sc' Capitals to Small Capitals in Greek lookup 2 subtable" P.c2sc
Substitution2: "'c2sc' Capitals to Small Capitals lookup 1 subtable" P.c2sc
Substitution2: "'c2sc' Capitals to Small Capitals in Latin lookup 0 subtable" P.c2sc
Position2: "'cpsp' Capital Spacing in Cyrillic lookup 3 subtable" dx=36 dy=0 dh=72 dv=0
Position2: "'cpsp' Capital Spacing in Greek lookup 2 subtable" dx=36 dy=0 dh=72 dv=0
Position2: "'cpsp' Capital Spacing lookup 1 subtable" dx=36 dy=0 dh=72 dv=0
Position2: "'cpsp' Capital Spacing in Latin lookup 0 subtable" dx=36 dy=0 dh=72 dv=0
EndChar

StartChar: Q
Encoding: 81 81 53
Width: 1354
Flags: W
LayerCount: 2
Back
Fore
SplineSet
851 50 m 1,0,-1
 1067 -183 l 1,1,-1
 976 -254 l 1,2,-1
 734 2 l 1,3,4
 648 -19 648 -19 570 -19 c 0,5,6
 437 -18 437 -18 337 45 c 128,-1,7
 237 108 237 108 181.5 226.5 c 128,-1,8
 126 345 126 345 120 491 c 0,9,10
 116 573 116 573 127 649 c 2,11,-1
 149 798 l 2,12,13
 179 999 179 999 274 1159 c 128,-1,14
 369 1319 369 1319 506 1399 c 128,-1,15
 643 1479 643 1479 808 1476 c 0,16,17
 1012 1472 1012 1472 1132 1335 c 128,-1,18
 1252 1198 1252 1198 1261 966 c 0,19,20
 1264 880 1264 880 1252 798 c 2,21,-1
 1226 626 l 1,22,23
 1151 211 1151 211 851 50 c 1,0,-1
1132 808 m 2,24,25
 1140 871 1140 871 1141 937 c 0,26,27
 1141 1060 1141 1060 1102 1161 c 128,-1,28
 1063 1262 1063 1262 986.5 1314 c 128,-1,29
 910 1366 910 1366 802 1369 c 0,30,31
 600 1374 600 1374 459.5 1223.5 c 128,-1,32
 319 1073 319 1073 275 818 c 0,33,34
 240 613 240 613 240 521 c 0,35,36
 240 324 240 324 327.5 207.5 c 128,-1,37
 415 91 415 91 578 87 c 0,38,39
 790 82 790 82 930 239 c 128,-1,40
 1070 396 1070 396 1110 663 c 2,41,-1
 1132 808 l 2,24,25
EndSplineSet
Substitution2: "'ss06' Style Set 6 in Cyrillic lookup 42 subtable" Q.ss06
Substitution2: "'ss06' Style Set 6 in Greek lookup 41 subtable" Q.ss06
Substitution2: "'ss06' Style Set 6 lookup 40 subtable" Q.ss06
Substitution2: "'ss06' Style Set 6 in Latin lookup 39 subtable" Q.ss06
Substitution2: "'c2sc' Capitals to Small Capitals in Cyrillic lookup 3 subtable" Q.c2sc
Substitution2: "'c2sc' Capitals to Small Capitals in Greek lookup 2 subtable" Q.c2sc
Substitution2: "'c2sc' Capitals to Small Capitals lookup 1 subtable" Q.c2sc
Substitution2: "'c2sc' Capitals to Small Capitals in Latin lookup 0 subtable" Q.c2sc
Position2: "'cpsp' Capital Spacing in Cyrillic lookup 3 subtable" dx=36 dy=0 dh=72 dv=0
Position2: "'cpsp' Capital Spacing in Greek lookup 2 subtable" dx=36 dy=0 dh=72 dv=0
Position2: "'cpsp' Capital Spacing lookup 1 subtable" dx=36 dy=0 dh=72 dv=0
Position2: "'cpsp' Capital Spacing in Latin lookup 0 subtable" dx=36 dy=0 dh=72 dv=0
EndChar

StartChar: R
Encoding: 82 82 54
Width: 1271
Flags: W
LayerCount: 2
Back
Fore
SplineSet
710 606 m 1,0,-1
 299 606 l 1,1,-1
 193 0 l 1,2,-1
 70 0 l 1,3,-1
 323 1456 l 1,4,-1
 754 1455 l 2,5,6
 972 1455 972 1455 1090 1341.5 c 128,-1,7
 1208 1228 1208 1228 1189 1035 c 0,8,9
 1174 889 1174 889 1079.5 783 c 128,-1,10
 985 677 985 677 828 629 c 1,11,-1
 1076 14 l 1,12,-1
 1075 0 l 1,13,-1
 945 0 l 1,14,-1
 710 606 l 1,0,-1
317 711 m 1,15,-1
 677 710 l 2,16,17
 831 710 831 710 940.5 800.5 c 128,-1,18
 1050 891 1050 891 1067 1036 c 0,19,20
 1084 1176 1084 1176 1005 1261 c 128,-1,21
 926 1346 926 1346 772 1350 c 2,22,-1
 428 1351 l 1,23,-1
 317 711 l 1,15,-1
EndSplineSet
Substitution2: "'ss03' Style Set 3 in Cyrillic lookup 30 subtable" R.ss03
Substitution2: "'ss03' Style Set 3 in Greek lookup 29 subtable" R.ss03
Substitution2: "'ss03' Style Set 3 lookup 28 subtable" R.ss03
Substitution2: "'ss03' Style Set 3 in Latin lookup 27 subtable" R.ss03
Substitution2: "'c2sc' Capitals to Small Capitals in Cyrillic lookup 3 subtable" R.c2sc
Substitution2: "'c2sc' Capitals to Small Capitals in Greek lookup 2 subtable" R.c2sc
Substitution2: "'c2sc' Capitals to Small Capitals lookup 1 subtable" R.c2sc
Substitution2: "'c2sc' Capitals to Small Capitals in Latin lookup 0 subtable" R.c2sc
Position2: "'cpsp' Capital Spacing in Cyrillic lookup 3 subtable" dx=36 dy=0 dh=72 dv=0
Position2: "'cpsp' Capital Spacing in Greek lookup 2 subtable" dx=36 dy=0 dh=72 dv=0
Position2: "'cpsp' Capital Spacing lookup 1 subtable" dx=36 dy=0 dh=72 dv=0
Position2: "'cpsp' Capital Spacing in Latin lookup 0 subtable" dx=36 dy=0 dh=72 dv=0
EndChar

StartChar: S
Encoding: 83 83 55
Width: 1187
Flags: W
LayerCount: 2
Back
Fore
SplineSet
936 365 m 0,0,1
 959 553 959 553 735 641 c 1,2,-1
 544 710 l 1,3,-1
 482 735 l 1,4,5
 198 856 198 856 219 1092 c 0,6,7
 228 1208 228 1208 301 1296 c 128,-1,8
 374 1384 374 1384 493.5 1431.5 c 128,-1,9
 613 1479 613 1479 747 1476 c 0,10,11
 876 1473 876 1473 977.5 1416.5 c 128,-1,12
 1079 1360 1079 1360 1129.5 1262 c 128,-1,13
 1180 1164 1180 1164 1169 1041 c 1,14,-1
 1046 1041 l 1,15,16
 1060 1189 1060 1189 976.5 1278 c 128,-1,17
 893 1367 893 1367 741 1371 c 0,18,19
 583 1373 583 1373 470.5 1298.5 c 128,-1,20
 358 1224 358 1224 342 1095 c 0,21,22
 329 992 329 992 402.5 919.5 c 128,-1,23
 476 847 476 847 658 793 c 0,24,25
 890 719 890 719 980.5 616 c 128,-1,26
 1071 513 1071 513 1059 368 c 0,27,28
 1048 248 1048 248 975 159.5 c 128,-1,29
 902 71 902 71 780 24 c 128,-1,30
 658 -23 658 -23 518 -20 c 0,31,32
 379 -19 379 -19 267.5 37 c 128,-1,33
 156 93 156 93 100.5 190.5 c 128,-1,34
 45 288 45 288 56 416 c 1,35,-1
 178 416 l 1,36,37
 163 264 163 264 259.5 174.5 c 128,-1,38
 356 85 356 85 524 83 c 128,-1,39
 692 81 692 81 806.5 159 c 128,-1,40
 921 237 921 237 936 365 c 0,0,1
EndSplineSet
Substitution2: "'c2sc' Capitals to Small Capitals in Cyrillic lookup 3 subtable" S.c2sc
Substitution2: "'c2sc' Capitals to Small Capitals in Greek lookup 2 subtable" S.c2sc
Substitution2: "'c2sc' Capitals to Small Capitals lookup 1 subtable" S.c2sc
Substitution2: "'c2sc' Capitals to Small Capitals in Latin lookup 0 subtable" S.c2sc
Position2: "'cpsp' Capital Spacing in Cyrillic lookup 3 subtable" dx=36 dy=0 dh=72 dv=0
Position2: "'cpsp' Capital Spacing in Greek lookup 2 subtable" dx=36 dy=0 dh=72 dv=0
Position2: "'cpsp' Capital Spacing lookup 1 subtable" dx=36 dy=0 dh=72 dv=0
Position2: "'cpsp' Capital Spacing in Latin lookup 0 subtable" dx=36 dy=0 dh=72 dv=0
EndChar

StartChar: T
Encoding: 84 84 56
Width: 1196
Flags: W
LayerCount: 2
Back
Fore
SplineSet
1268 1351 m 1,0,-1
 785 1351 l 1,1,-1
 550 0 l 1,2,-1
 428 0 l 1,3,-1
 663 1351 l 1,4,-1
 179 1351 l 1,5,-1
 198 1456 l 1,6,-1
 1287 1456 l 1,7,-1
 1268 1351 l 1,0,-1
EndSplineSet
Substitution2: "'c2sc' Capitals to Small Capitals in Cyrillic lookup 3 subtable" T.c2sc
Substitution2: "'c2sc' Capitals to Small Capitals in Greek lookup 2 subtable" T.c2sc
Substitution2: "'c2sc' Capitals to Small Capitals lookup 1 subtable" T.c2sc
Substitution2: "'c2sc' Capitals to Small Capitals in Latin lookup 0 subtable" T.c2sc
Position2: "'cpsp' Capital Spacing in Cyrillic lookup 3 subtable" dx=36 dy=0 dh=72 dv=0
Position2: "'cpsp' Capital Spacing in Greek lookup 2 subtable" dx=36 dy=0 dh=72 dv=0
Position2: "'cpsp' Capital Spacing lookup 1 subtable" dx=36 dy=0 dh=72 dv=0
Position2: "'cpsp' Capital Spacing in Latin lookup 0 subtable" dx=36 dy=0 dh=72 dv=0
EndChar

StartChar: U
Encoding: 85 85 57
Width: 1316
Flags: W
LayerCount: 2
Back
Fore
SplineSet
1306 1456 m 1,0,-1
 1137 471 l 2,1,2
 1101 241 1101 241 944 108 c 128,-1,3
 787 -25 787 -25 562 -21 c 0,4,5
 421 -18 421 -18 318.5 44 c 128,-1,6
 216 106 216 106 169.5 218 c 128,-1,7
 123 330 123 330 140 469 c 1,8,-1
 309 1456 l 1,9,-1
 430 1456 l 1,10,-1
 262 468 l 1,11,12
 241 299 241 299 324 194.5 c 128,-1,13
 407 90 407 90 568 84 c 0,14,15
 736 78 736 78 857 177 c 128,-1,16
 978 276 978 276 1011 452 c 2,17,-1
 1183 1456 l 1,18,-1
 1306 1456 l 1,0,-1
EndSplineSet
Substitution2: "'c2sc' Capitals to Small Capitals in Cyrillic lookup 3 subtable" U.c2sc
Substitution2: "'c2sc' Capitals to Small Capitals in Greek lookup 2 subtable" U.c2sc
Substitution2: "'c2sc' Capitals to Small Capitals lookup 1 subtable" U.c2sc
Substitution2: "'c2sc' Capitals to Small Capitals in Latin lookup 0 subtable" U.c2sc
Position2: "'cpsp' Capital Spacing in Cyrillic lookup 3 subtable" dx=36 dy=0 dh=72 dv=0
Position2: "'cpsp' Capital Spacing in Greek lookup 2 subtable" dx=36 dy=0 dh=72 dv=0
Position2: "'cpsp' Capital Spacing lookup 1 subtable" dx=36 dy=0 dh=72 dv=0
Position2: "'cpsp' Capital Spacing in Latin lookup 0 subtable" dx=36 dy=0 dh=72 dv=0
EndChar

StartChar: V
Encoding: 86 86 58
Width: 1235
Flags: W
LayerCount: 2
Back
Fore
SplineSet
536 180 m 1,0,-1
 538 149 l 1,1,-1
 552 180 l 1,2,-1
 1196 1456 l 1,3,-1
 1334 1456 l 1,4,-1
 580 0 l 1,5,-1
 463 0 l 1,6,-1
 166 1456 l 1,7,-1
 289 1456 l 1,8,-1
 536 180 l 1,0,-1
EndSplineSet
Substitution2: "'c2sc' Capitals to Small Capitals in Cyrillic lookup 3 subtable" V.c2sc
Substitution2: "'c2sc' Capitals to Small Capitals in Greek lookup 2 subtable" V.c2sc
Substitution2: "'c2sc' Capitals to Small Capitals lookup 1 subtable" V.c2sc
Substitution2: "'c2sc' Capitals to Small Capitals in Latin lookup 0 subtable" V.c2sc
Position2: "'cpsp' Capital Spacing in Cyrillic lookup 3 subtable" dx=36 dy=0 dh=72 dv=0
Position2: "'cpsp' Capital Spacing in Greek lookup 2 subtable" dx=36 dy=0 dh=72 dv=0
Position2: "'cpsp' Capital Spacing lookup 1 subtable" dx=36 dy=0 dh=72 dv=0
Position2: "'cpsp' Capital Spacing in Latin lookup 0 subtable" dx=36 dy=0 dh=72 dv=0
EndChar

StartChar: W
Encoding: 87 87 59
Width: 1791
Flags: W
LayerCount: 2
Back
Fore
SplineSet
408 389 m 1,0,-1
 415 174 l 1,1,-1
 502 387 l 1,2,-1
 974 1456 l 1,3,-1
 1084 1456 l 1,4,-1
 1220 377 l 1,5,-1
 1237 171 l 1,6,-1
 1319 397 l 1,7,-1
 1739 1456 l 1,8,-1
 1867 1456 l 1,9,-1
 1277 0 l 1,10,-1
 1160 0 l 1,11,-1
 1017 1144 l 1,12,-1
 1006 1278 l 1,13,-1
 950 1139 l 1,14,-1
 444 0 l 1,15,-1
 327 0 l 1,16,-1
 193 1456 l 1,17,-1
 315 1456 l 1,18,-1
 408 389 l 1,0,-1
EndSplineSet
Substitution2: "'c2sc' Capitals to Small Capitals in Cyrillic lookup 3 subtable" W.c2sc
Substitution2: "'c2sc' Capitals to Small Capitals in Greek lookup 2 subtable" W.c2sc
Substitution2: "'c2sc' Capitals to Small Capitals lookup 1 subtable" W.c2sc
Substitution2: "'c2sc' Capitals to Small Capitals in Latin lookup 0 subtable" W.c2sc
Position2: "'cpsp' Capital Spacing in Cyrillic lookup 3 subtable" dx=36 dy=0 dh=72 dv=0
Position2: "'cpsp' Capital Spacing in Greek lookup 2 subtable" dx=36 dy=0 dh=72 dv=0
Position2: "'cpsp' Capital Spacing lookup 1 subtable" dx=36 dy=0 dh=72 dv=0
Position2: "'cpsp' Capital Spacing in Latin lookup 0 subtable" dx=36 dy=0 dh=72 dv=0
EndChar

StartChar: X
Encoding: 88 88 60
Width: 1225
Flags: W
LayerCount: 2
Back
Fore
SplineSet
642 842 m 1,0,-1
 1135 1456 l 1,1,-1
 1287 1456 l 1,2,-1
 703 732 l 1,3,-1
 1067 0 l 1,4,-1
 929 0 l 1,5,-1
 618 634 l 1,6,-1
 106 0 l 1,7,-1
 -45 0 l 1,8,-1
 558 744 l 1,9,-1
 204 1456 l 1,10,-1
 342 1456 l 1,11,-1
 642 842 l 1,0,-1
EndSplineSet
Substitution2: "'c2sc' Capitals to Small Capitals in Cyrillic lookup 3 subtable" X.c2sc
Substitution2: "'c2sc' Capitals to Small Capitals in Greek lookup 2 subtable" X.c2sc
Substitution2: "'c2sc' Capitals to Small Capitals lookup 1 subtable" X.c2sc
Substitution2: "'c2sc' Capitals to Small Capitals in Latin lookup 0 subtable" X.c2sc
Position2: "'cpsp' Capital Spacing in Cyrillic lookup 3 subtable" dx=36 dy=0 dh=72 dv=0
Position2: "'cpsp' Capital Spacing in Greek lookup 2 subtable" dx=36 dy=0 dh=72 dv=0
Position2: "'cpsp' Capital Spacing lookup 1 subtable" dx=36 dy=0 dh=72 dv=0
Position2: "'cpsp' Capital Spacing in Latin lookup 0 subtable" dx=36 dy=0 dh=72 dv=0
EndChar

StartChar: Y
Encoding: 89 89 61
Width: 1199
Flags: W
LayerCount: 2
Back
Fore
SplineSet
600 664 m 1,0,-1
 1168 1456 l 1,1,-1
 1316 1456 l 1,2,-1
 643 542 l 1,3,-1
 549 0 l 1,4,-1
 427 0 l 1,5,-1
 524 555 l 1,6,-1
 174 1456 l 1,7,-1
 311 1456 l 1,8,-1
 600 664 l 1,0,-1
EndSplineSet
Substitution2: "'c2sc' Capitals to Small Capitals in Cyrillic lookup 3 subtable" Y.c2sc
Substitution2: "'c2sc' Capitals to Small Capitals in Greek lookup 2 subtable" Y.c2sc
Substitution2: "'c2sc' Capitals to Small Capitals lookup 1 subtable" Y.c2sc
Substitution2: "'c2sc' Capitals to Small Capitals in Latin lookup 0 subtable" Y.c2sc
Position2: "'cpsp' Capital Spacing in Cyrillic lookup 3 subtable" dx=36 dy=0 dh=72 dv=0
Position2: "'cpsp' Capital Spacing in Greek lookup 2 subtable" dx=36 dy=0 dh=72 dv=0
Position2: "'cpsp' Capital Spacing lookup 1 subtable" dx=36 dy=0 dh=72 dv=0
Position2: "'cpsp' Capital Spacing in Latin lookup 0 subtable" dx=36 dy=0 dh=72 dv=0
EndChar

StartChar: Z
Encoding: 90 90 62
Width: 1198
Flags: W
LayerCount: 2
Back
Fore
SplineSet
151 104 m 1,0,-1
 1020 104 l 1,1,-1
 1001 0 l 1,2,-1
 -18 0 l 1,3,-1
 -1 99 l 1,4,-1
 1051 1351 l 1,5,-1
 241 1351 l 1,6,-1
 260 1456 l 1,7,-1
 1223 1456 l 1,8,-1
 1207 1362 l 1,9,-1
 151 104 l 1,0,-1
EndSplineSet
Substitution2: "'c2sc' Capitals to Small Capitals in Cyrillic lookup 3 subtable" Z.c2sc
Substitution2: "'c2sc' Capitals to Small Capitals in Greek lookup 2 subtable" Z.c2sc
Substitution2: "'c2sc' Capitals to Small Capitals lookup 1 subtable" Z.c2sc
Substitution2: "'c2sc' Capitals to Small Capitals in Latin lookup 0 subtable" Z.c2sc
Position2: "'cpsp' Capital Spacing in Cyrillic lookup 3 subtable" dx=36 dy=0 dh=72 dv=0
Position2: "'cpsp' Capital Spacing in Greek lookup 2 subtable" dx=36 dy=0 dh=72 dv=0
Position2: "'cpsp' Capital Spacing lookup 1 subtable" dx=36 dy=0 dh=72 dv=0
Position2: "'cpsp' Capital Spacing in Latin lookup 0 subtable" dx=36 dy=0 dh=72 dv=0
EndChar

StartChar: bracketleft
Encoding: 91 91 63
Width: 486
Flags: W
LayerCount: 2
Back
Fore
SplineSet
630 1562 m 1,0,-1
 426 1562 l 1,1,-1
 150 -210 l 1,2,-1
 354 -210 l 1,3,-1
 337 -312 l 1,4,-1
 14 -312 l 1,5,-1
 323 1664 l 1,6,-1
 646 1664 l 1,7,-1
 630 1562 l 1,0,-1
EndSplineSet
EndChar

StartChar: backslash
Encoding: 92 92 64
Width: 793
Flags: W
LayerCount: 2
Back
Fore
SplineSet
197 1456 m 1,0,-1
 307 1456 l 1,1,-1
 623 -125 l 1,2,-1
 512 -125 l 1,3,-1
 197 1456 l 1,0,-1
EndSplineSet
EndChar

StartChar: bracketright
Encoding: 93 93 65
Width: 486
Flags: W
LayerCount: 2
Back
Fore
SplineSet
165 1664 m 1,0,-1
 489 1664 l 1,1,-1
 180 -312 l 1,2,-1
 -144 -312 l 1,3,-1
 -127 -210 l 1,4,-1
 77 -210 l 1,5,-1
 354 1562 l 1,6,-1
 149 1562 l 1,7,-1
 165 1664 l 1,0,-1
EndSplineSet
EndChar

StartChar: asciicircum
Encoding: 94 94 66
Width: 836
Flags: W
LayerCount: 2
Back
Fore
SplineSet
532 1294 m 1,0,-1
 213 729 l 1,1,-1
 93 729 l 1,2,-1
 509 1456 l 1,3,-1
 599 1456 l 1,4,-1
 762 729 l 1,5,-1
 653 729 l 1,6,-1
 532 1294 l 1,0,-1
EndSplineSet
EndChar

StartChar: underscore
Encoding: 95 95 67
Width: 867
Flags: W
LayerCount: 2
Back
Fore
SplineSet
736 -101 m 1,0,-1
 -122 -101 l 1,1,-1
 -104 0 l 1,2,-1
 754 0 l 1,3,-1
 736 -101 l 1,0,-1
EndSplineSet
EndChar

StartChar: grave
Encoding: 96 96 68
Width: 577
Flags: W
LayerCount: 2
Back
Fore
SplineSet
523 1245 m 1,0,-1
 423 1245 l 1,1,-1
 247 1524 l 1,2,-1
 381 1524 l 1,3,-1
 523 1245 l 1,0,-1
EndSplineSet
EndChar

StartChar: a
Encoding: 97 97 69
Width: 1074
Flags: W
LayerCount: 2
Back
Fore
SplineSet
719 0 m 1,0,1
 714 38 714 38 716 76 c 2,2,-1
 725 151 l 1,3,4
 650 70 650 70 553.5 24 c 128,-1,5
 457 -22 457 -22 345 -20 c 0,6,7
 208 -18 208 -18 122.5 66.5 c 128,-1,8
 37 151 37 151 46 279 c 0,9,10
 54 386 54 386 119.5 464.5 c 128,-1,11
 185 543 185 543 306 586.5 c 128,-1,12
 427 630 427 630 577 630 c 2,13,-1
 798 629 l 1,14,-1
 816 753 l 1,15,16
 828 864 828 864 768 931 c 128,-1,17
 708 998 708 998 591 1002 c 0,18,19
 473 1004 473 1004 385.5 943.5 c 128,-1,20
 298 883 298 883 276 784 c 1,21,-1
 159 784 l 1,22,23
 179 926 179 926 305 1015.5 c 128,-1,24
 431 1105 431 1105 603 1103 c 0,25,26
 770 1099 770 1099 860.5 1002 c 128,-1,27
 951 905 951 905 934 750 c 1,28,-1
 844 206 l 1,29,-1
 836 119 l 2,30,31
 833 65 833 65 844 12 c 1,32,-1
 842 0 l 1,33,-1
 719 0 l 1,0,1
365 85 m 0,34,35
 475 81 475 81 575.5 137.5 c 128,-1,36
 676 194 676 194 742 298 c 1,37,-1
 783 537 l 1,38,-1
 592 538 l 2,39,40
 410 538 410 538 295 473.5 c 128,-1,41
 180 409 180 409 168 289 c 0,42,43
 159 201 159 201 214.5 144 c 128,-1,44
 270 87 270 87 365 85 c 0,34,35
EndSplineSet
Substitution2: "'smcp' Lowercase to Small Capitals in Cyrillic lookup 7 subtable" A.c2sc
Substitution2: "'smcp' Lowercase to Small Capitals in Greek lookup 6 subtable" A.c2sc
Substitution2: "'smcp' Lowercase to Small Capitals lookup 5 subtable" A.c2sc
Substitution2: "'smcp' Lowercase to Small Capitals in Latin lookup 4 subtable" A.c2sc
EndChar

StartChar: b
Encoding: 98 98 70
Width: 1111
Flags: W
LayerCount: 2
Back
Fore
SplineSet
986 536 m 1,0,1
 951 278 951 278 821.5 126 c 128,-1,2
 692 -26 692 -26 501 -21 c 0,3,4
 395 -19 395 -19 314.5 26 c 128,-1,5
 234 71 234 71 191 148 c 1,6,-1
 157 0 l 1,7,-1
 45 0 l 1,8,-1
 312 1536 l 1,9,-1
 430 1536 l 1,10,-1
 317 925 l 1,11,12
 456 1108 456 1108 668 1102 c 0,13,14
 823 1098 823 1098 907 987 c 128,-1,15
 991 876 991 876 994 680 c 0,16,17
 995 616 995 616 988 557 c 2,18,-1
 986 536 l 1,0,1
869 559 m 1,19,-1
 876 654 l 1,20,21
 879 817 879 817 819 906 c 128,-1,22
 759 995 759 995 640 999 c 0,23,24
 421 1003 421 1003 297 777 c 1,25,-1
 215 287 l 1,26,27
 244 190 244 190 314.5 137.5 c 128,-1,28
 385 85 385 85 486 82 c 0,29,30
 635 79 635 79 735.5 197.5 c 128,-1,31
 836 316 836 316 869 559 c 1,19,-1
EndSplineSet
Substitution2: "'ss06' Style Set 6 in Cyrillic lookup 42 subtable" b.ss06
Substitution2: "'ss06' Style Set 6 in Greek lookup 41 subtable" b.ss06
Substitution2: "'ss06' Style Set 6 lookup 40 subtable" b.ss06
Substitution2: "'ss06' Style Set 6 in Latin lookup 39 subtable" b.ss06
Substitution2: "'smcp' Lowercase to Small Capitals in Cyrillic lookup 7 subtable" B.c2sc
Substitution2: "'smcp' Lowercase to Small Capitals in Greek lookup 6 subtable" B.c2sc
Substitution2: "'smcp' Lowercase to Small Capitals lookup 5 subtable" B.c2sc
Substitution2: "'smcp' Lowercase to Small Capitals in Latin lookup 4 subtable" B.c2sc
EndChar

StartChar: c
Encoding: 99 99 71
Width: 1033
Flags: W
LayerCount: 2
Back
Fore
SplineSet
465 80 m 0,0,1
 583 76 583 76 673.5 145.5 c 128,-1,2
 764 215 764 215 794 333 c 1,3,-1
 907 333 l 1,4,5
 877 172 877 172 749.5 73.5 c 128,-1,6
 622 -25 622 -25 459 -21 c 0,7,8
 328 -18 328 -18 239 51 c 128,-1,9
 150 120 150 120 110.5 242 c 128,-1,10
 71 364 71 364 85 517 c 2,11,-1
 89 560 l 2,12,13
 101 665 101 665 140.5 764 c 128,-1,14
 180 863 180 863 246 939.5 c 128,-1,15
 312 1016 312 1016 403.5 1060.5 c 128,-1,16
 495 1105 495 1105 610 1102 c 0,17,18
 776 1098 776 1098 874 990 c 128,-1,19
 972 882 972 882 966 716 c 1,20,-1
 853 717 l 1,21,22
 855 842 855 842 788 919 c 128,-1,23
 721 996 721 996 605 1000 c 0,24,25
 481 1004 481 1004 386 928 c 128,-1,26
 291 852 291 852 243 713 c 128,-1,27
 195 574 195 574 198 418 c 0,28,29
 201 257 201 257 270 170.5 c 128,-1,30
 339 84 339 84 465 80 c 0,0,1
EndSplineSet
Substitution2: "'ss06' Style Set 6 in Cyrillic lookup 42 subtable" c.ss06
Substitution2: "'ss06' Style Set 6 in Greek lookup 41 subtable" c.ss06
Substitution2: "'ss06' Style Set 6 lookup 40 subtable" c.ss06
Substitution2: "'ss06' Style Set 6 in Latin lookup 39 subtable" c.ss06
Substitution2: "'smcp' Lowercase to Small Capitals in Cyrillic lookup 7 subtable" C.c2sc
Substitution2: "'smcp' Lowercase to Small Capitals in Greek lookup 6 subtable" C.c2sc
Substitution2: "'smcp' Lowercase to Small Capitals lookup 5 subtable" C.c2sc
Substitution2: "'smcp' Lowercase to Small Capitals in Latin lookup 4 subtable" C.c2sc
EndChar

StartChar: d
Encoding: 100 100 72
Width: 1114
Flags: W
LayerCount: 2
Back
Fore
SplineSet
94 544 m 1,0,1
 117 714 117 714 187 845.5 c 128,-1,2
 257 977 257 977 358.5 1041 c 128,-1,3
 460 1105 460 1105 586 1102 c 0,4,5
 682 1100 682 1100 761 1057.5 c 128,-1,6
 840 1015 840 1015 886 929 c 1,7,-1
 996 1536 l 1,8,-1
 1114 1536 l 1,9,-1
 847 0 l 1,10,-1
 736 0 l 1,11,-1
 763 144 l 1,12,13
 622 -26 622 -26 413 -20 c 0,14,15
 262 -16 262 -16 176.5 97.5 c 128,-1,16
 91 211 91 211 87 403 c 0,17,18
 85 465 85 465 92 523 c 2,19,-1
 94 544 l 1,0,1
214 524 m 2,20,21
 206 457 206 457 208 381 c 0,22,23
 212 244 212 244 271.5 165.5 c 128,-1,24
 331 87 331 87 441 83 c 0,25,26
 552 80 552 80 636 134 c 128,-1,27
 720 188 720 188 778 278 c 1,28,-1
 865 788 l 1,29,30
 836 885 836 885 769.5 940.5 c 128,-1,31
 703 996 703 996 600 999 c 0,32,33
 448 1004 448 1004 346.5 882.5 c 128,-1,34
 245 761 245 761 216 545 c 1,35,-1
 214 524 l 2,20,21
EndSplineSet
Substitution2: "'ss06' Style Set 6 in Cyrillic lookup 42 subtable" d.ss06
Substitution2: "'ss06' Style Set 6 in Greek lookup 41 subtable" d.ss06
Substitution2: "'ss06' Style Set 6 lookup 40 subtable" d.ss06
Substitution2: "'ss06' Style Set 6 in Latin lookup 39 subtable" d.ss06
Substitution2: "'smcp' Lowercase to Small Capitals in Cyrillic lookup 7 subtable" D.c2sc
Substitution2: "'smcp' Lowercase to Small Capitals in Greek lookup 6 subtable" D.c2sc
Substitution2: "'smcp' Lowercase to Small Capitals lookup 5 subtable" D.c2sc
Substitution2: "'smcp' Lowercase to Small Capitals in Latin lookup 4 subtable" D.c2sc
EndChar

StartChar: e
Encoding: 101 101 73
Width: 1036
Flags: W
LayerCount: 2
Back
Fore
SplineSet
475 -20 m 0,0,1
 345 -18 345 -18 250 52.5 c 128,-1,2
 155 123 155 123 110.5 244.5 c 128,-1,3
 66 366 66 366 79 507 c 2,4,-1
 82 541 l 2,5,6
 96 691 96 691 171 826.5 c 128,-1,7
 246 962 246 962 361 1033.5 c 128,-1,8
 476 1105 476 1105 607 1102 c 0,9,10
 728 1100 728 1100 811.5 1036 c 128,-1,11
 895 972 895 972 933 858 c 128,-1,12
 971 744 971 744 957 606 c 2,13,-1
 949 533 l 1,14,-1
 200 533 l 1,15,-1
 197 509 l 2,16,17
 182 400 182 400 213 300.5 c 128,-1,18
 244 201 244 201 314.5 142.5 c 128,-1,19
 385 84 385 84 484 82 c 0,20,21
 580 79 580 79 657 119 c 128,-1,22
 734 159 734 159 799 226 c 1,23,-1
 869 169 l 1,24,25
 796 75 796 75 695.5 26.5 c 128,-1,26
 595 -22 595 -22 475 -20 c 0,0,1
601 1000 m 0,27,28
 471 1005 471 1005 368 908 c 128,-1,29
 265 811 265 811 213 635 c 1,30,-1
 841 634 l 1,31,-1
 844 649 l 1,32,33
 862 791 862 791 794 893.5 c 128,-1,34
 726 996 726 996 601 1000 c 0,27,28
EndSplineSet
Substitution2: "'ss07' Style Set 7 in Cyrillic lookup 46 subtable" e.ss07
Substitution2: "'ss07' Style Set 7 in Greek lookup 45 subtable" e.ss07
Substitution2: "'ss07' Style Set 7 lookup 44 subtable" e.ss07
Substitution2: "'ss07' Style Set 7 in Latin lookup 43 subtable" e.ss07
Substitution2: "'smcp' Lowercase to Small Capitals in Cyrillic lookup 7 subtable" E.c2sc
Substitution2: "'smcp' Lowercase to Small Capitals in Greek lookup 6 subtable" E.c2sc
Substitution2: "'smcp' Lowercase to Small Capitals lookup 5 subtable" E.c2sc
Substitution2: "'smcp' Lowercase to Small Capitals in Latin lookup 4 subtable" E.c2sc
EndChar

StartChar: f
Encoding: 102 102 74
Width: 668
Flags: W
LayerCount: 2
Back
Fore
SplineSet
129 0 m 1,0,-1
 300 984 l 1,1,-1
 126 984 l 1,2,-1
 144 1082 l 1,3,-1
 317 1082 l 1,4,-1
 338 1229 l 2,5,6
 363 1388 363 1388 459.5 1475 c 128,-1,7
 556 1562 556 1562 700 1560 c 0,8,9
 758 1558 758 1558 831 1540 c 1,10,-1
 810 1441 l 1,11,12
 754 1456 754 1456 703 1456 c 0,13,14
 603 1456 603 1456 537.5 1391 c 128,-1,15
 472 1326 472 1326 455 1210 c 2,16,-1
 436 1082 l 1,17,-1
 687 1082 l 1,18,-1
 669 984 l 1,19,-1
 420 984 l 1,20,-1
 249 0 l 1,21,-1
 129 0 l 1,0,-1
EndSplineSet
Substitution2: "'smcp' Lowercase to Small Capitals in Cyrillic lookup 7 subtable" F.c2sc
Substitution2: "'smcp' Lowercase to Small Capitals in Greek lookup 6 subtable" F.c2sc
Substitution2: "'smcp' Lowercase to Small Capitals lookup 5 subtable" F.c2sc
Substitution2: "'smcp' Lowercase to Small Capitals in Latin lookup 4 subtable" F.c2sc
EndChar

StartChar: g
Encoding: 103 103 75
Width: 1112
Flags: W
LayerCount: 2
Back
Fore
SplineSet
585 1103 m 0,0,1
 682 1100 682 1100 762 1057 c 128,-1,2
 842 1014 842 1014 888 926 c 1,3,-1
 925 1082 l 1,4,-1
 1036 1082 l 1,5,-1
 854 19 l 1,6,7
 835 -117 835 -117 768 -221 c 128,-1,8
 701 -325 701 -325 596.5 -380.5 c 128,-1,9
 492 -436 492 -436 364 -432 c 0,10,11
 262 -430 262 -430 169 -381 c 0,12,13
 75 -331 75 -331 18 -242 c 1,14,-1
 92 -172 l 1,15,16
 195 -327 195 -327 361 -331 c 0,17,18
 509 -335 509 -335 608.5 -241.5 c 128,-1,19
 708 -148 708 -148 734 13 c 1,20,-1
 760 139 l 1,21,22
 616 -26 616 -26 413 -20 c 0,23,24
 261 -16 261 -16 176.5 96.5 c 128,-1,25
 92 209 92 209 88 403 c 0,26,27
 82 582 82 582 148 757 c 128,-1,28
 214 932 214 932 327.5 1019.5 c 128,-1,29
 441 1107 441 1107 585 1103 c 0,0,1
213 523 m 1,30,-1
 207 430 l 1,31,32
 204 266 204 266 264 176.5 c 128,-1,33
 324 87 324 87 441 83 c 0,34,35
 541 79 541 79 628 130 c 128,-1,36
 715 181 715 181 778 281 c 1,37,-1
 863 786 l 1,38,39
 836 883 836 883 769.5 939.5 c 128,-1,40
 703 996 703 996 599 999 c 0,41,42
 446 1004 446 1004 345.5 881 c 128,-1,43
 245 758 245 758 213 523 c 1,30,-1
EndSplineSet
Substitution2: "'ss07' Style Set 7 in Cyrillic lookup 46 subtable" g.ss07
Substitution2: "'ss07' Style Set 7 in Greek lookup 45 subtable" g.ss07
Substitution2: "'ss07' Style Set 7 lookup 44 subtable" g.ss07
Substitution2: "'ss07' Style Set 7 in Latin lookup 43 subtable" g.ss07
Substitution2: "'ss06' Style Set 6 in Cyrillic lookup 42 subtable" g.ss06
Substitution2: "'ss06' Style Set 6 in Greek lookup 41 subtable" g.ss06
Substitution2: "'ss06' Style Set 6 lookup 40 subtable" g.ss06
Substitution2: "'ss06' Style Set 6 in Latin lookup 39 subtable" g.ss06
Substitution2: "'ss01' Style Set 1 in Cyrillic lookup 22 subtable" g.ss01
Substitution2: "'ss01' Style Set 1 in Greek lookup 21 subtable" g.ss01
Substitution2: "'ss01' Style Set 1 lookup 20 subtable" g.ss01
Substitution2: "'ss01' Style Set 1 in Latin lookup 19 subtable" g.ss01
Substitution2: "'smcp' Lowercase to Small Capitals in Cyrillic lookup 7 subtable" G.c2sc
Substitution2: "'smcp' Lowercase to Small Capitals in Greek lookup 6 subtable" G.c2sc
Substitution2: "'smcp' Lowercase to Small Capitals lookup 5 subtable" G.c2sc
Substitution2: "'smcp' Lowercase to Small Capitals in Latin lookup 4 subtable" G.c2sc
EndChar

StartChar: h
Encoding: 104 104 76
Width: 1100
Flags: W
LayerCount: 2
Back
Fore
SplineSet
313 899 m 1,0,1
 469 1106 469 1106 681 1102 c 0,2,3
 837 1098 837 1098 908 993 c 128,-1,4
 979 888 979 888 958 704 c 1,5,-1
 840 0 l 1,6,-1
 722 0 l 1,7,-1
 840 706 l 2,8,9
 846 763 846 763 842 816 c 0,10,11
 825 994 825 994 648 999 c 0,12,13
 543 1001 543 1001 452 936.5 c 128,-1,14
 361 872 361 872 292 742 c 1,15,-1
 164 0 l 1,16,-1
 46 0 l 1,17,-1
 313 1536 l 1,18,-1
 431 1536 l 1,19,-1
 313 899 l 1,0,1
EndSplineSet
Substitution2: "'smcp' Lowercase to Small Capitals in Cyrillic lookup 7 subtable" H.c2sc
Substitution2: "'smcp' Lowercase to Small Capitals in Greek lookup 6 subtable" H.c2sc
Substitution2: "'smcp' Lowercase to Small Capitals lookup 5 subtable" H.c2sc
Substitution2: "'smcp' Lowercase to Small Capitals in Latin lookup 4 subtable" H.c2sc
EndChar

StartChar: i
Encoding: 105 105 77
Width: 455
Flags: W
LayerCount: 2
Back
Fore
SplineSet
179 0 m 1,0,-1
 59 0 l 1,1,-1
 248 1082 l 1,2,-1
 367 1082 l 1,3,-1
 179 0 l 1,0,-1
281 1395 m 0,4,5
 286 1460 286 1460 367 1477 c 1,6,7
 406 1470 406 1470 422.5 1452.5 c 128,-1,8
 439 1435 439 1435 444 1395 c 1,9,10
 434 1357 434 1357 415 1339.5 c 128,-1,11
 396 1322 396 1322 358 1314 c 1,12,13
 277 1326 277 1326 281 1395 c 0,4,5
EndSplineSet
Substitution2: "Single Substitution lookup 74 subtable" glyph576
Substitution2: "'smcp' Lowercase to Small Capitals in Cyrillic lookup 7 subtable" I.c2sc
Substitution2: "'smcp' Lowercase to Small Capitals in Greek lookup 6 subtable" I.c2sc
Substitution2: "'smcp' Lowercase to Small Capitals lookup 5 subtable" I.c2sc
Substitution2: "'smcp' Lowercase to Small Capitals in Latin lookup 4 subtable" I.c2sc
EndChar

StartChar: j
Encoding: 106 106 78
Width: 463
Flags: W
LayerCount: 2
Back
Fore
SplineSet
362 1082 m 1,0,-1
 156 -129 l 1,1,2
 136 -280 136 -280 51 -362 c 128,-1,3
 -34 -444 -34 -444 -167 -440 c 0,4,5
 -210 -439 -210 -439 -276 -419 c 1,6,-1
 -262 -320 l 1,7,8
 -207 -335 -207 -335 -174 -335 c 0,9,10
 1 -339 1 -339 38 -124 c 2,11,-1
 244 1082 l 1,12,-1
 362 1082 l 1,0,-1
278 1395 m 0,13,14
 280 1428 280 1428 303.5 1452 c 128,-1,15
 327 1476 327 1476 362 1477 c 128,-1,16
 397 1478 397 1478 419 1454 c 128,-1,17
 441 1430 441 1430 439 1395 c 0,18,19
 436 1361 436 1361 411.5 1338 c 128,-1,20
 387 1315 387 1315 353 1314 c 0,21,22
 318 1313 318 1313 296.5 1336.5 c 128,-1,23
 275 1360 275 1360 278 1395 c 0,13,14
EndSplineSet
Substitution2: "Single Substitution lookup 74 subtable" glyph574
Substitution2: "'smcp' Lowercase to Small Capitals in Cyrillic lookup 7 subtable" J.c2sc
Substitution2: "'smcp' Lowercase to Small Capitals in Greek lookup 6 subtable" J.c2sc
Substitution2: "'smcp' Lowercase to Small Capitals lookup 5 subtable" J.c2sc
Substitution2: "'smcp' Lowercase to Small Capitals in Latin lookup 4 subtable" J.c2sc
EndChar

StartChar: k
Encoding: 107 107 79
Width: 983
Flags: W
LayerCount: 2
Back
Fore
SplineSet
396 543 m 1,0,-1
 236 408 l 1,1,-1
 165 0 l 1,2,-1
 46 0 l 1,3,-1
 313 1536 l 1,4,-1
 432 1536 l 1,5,-1
 262 562 l 1,6,-1
 386 676 l 1,7,-1
 857 1082 l 1,8,-1
 1016 1082 l 1,9,-1
 484 621 l 1,10,-1
 857 0 l 1,11,-1
 725 0 l 1,12,-1
 396 543 l 1,0,-1
EndSplineSet
Substitution2: "'ss05' Style Set 5 in Cyrillic lookup 38 subtable" k.ss05
Substitution2: "'ss05' Style Set 5 in Greek lookup 37 subtable" k.ss05
Substitution2: "'ss05' Style Set 5 lookup 36 subtable" k.ss05
Substitution2: "'ss05' Style Set 5 in Latin lookup 35 subtable" k.ss05
Substitution2: "'ss04' Style Set 4 in Cyrillic lookup 34 subtable" k.ss04
Substitution2: "'ss04' Style Set 4 in Greek lookup 33 subtable" k.ss04
Substitution2: "'ss04' Style Set 4 lookup 32 subtable" k.ss04
Substitution2: "'ss04' Style Set 4 in Latin lookup 31 subtable" k.ss04
Substitution2: "'smcp' Lowercase to Small Capitals in Cyrillic lookup 7 subtable" K.c2sc
Substitution2: "'smcp' Lowercase to Small Capitals in Greek lookup 6 subtable" K.c2sc
Substitution2: "'smcp' Lowercase to Small Capitals lookup 5 subtable" K.c2sc
Substitution2: "'smcp' Lowercase to Small Capitals in Latin lookup 4 subtable" K.c2sc
EndChar

StartChar: l
Encoding: 108 108 80
Width: 455
Flags: W
LayerCount: 2
Back
Fore
SplineSet
179 0 m 1,0,-1
 59 0 l 1,1,-1
 326 1536 l 1,2,-1
 446 1536 l 1,3,-1
 179 0 l 1,0,-1
EndSplineSet
Substitution2: "'smcp' Lowercase to Small Capitals in Cyrillic lookup 7 subtable" L.c2sc
Substitution2: "'smcp' Lowercase to Small Capitals in Greek lookup 6 subtable" L.c2sc
Substitution2: "'smcp' Lowercase to Small Capitals lookup 5 subtable" L.c2sc
Substitution2: "'smcp' Lowercase to Small Capitals in Latin lookup 4 subtable" L.c2sc
EndChar

StartChar: m
Encoding: 109 109 81
Width: 1771
Flags: W
LayerCount: 2
Back
Fore
SplineSet
343 1082 m 1,0,-1
 309 906 l 1,1,2
 455 1106 455 1106 676 1102 c 0,3,4
 790 1100 790 1100 865.5 1045 c 128,-1,5
 941 990 941 990 959 892 c 1,6,7
 1033 993 1033 993 1131.5 1048.5 c 128,-1,8
 1230 1104 1230 1104 1346 1102 c 0,9,10
 1500 1099 1500 1099 1574.5 1000.5 c 128,-1,11
 1649 902 1649 902 1636 728 c 2,12,-1
 1634 705 l 1,13,-1
 1515 0 l 1,14,-1
 1396 0 l 1,15,-1
 1514 707 l 2,16,17
 1520 766 1520 766 1515 819 c 0,18,19
 1495 996 1495 996 1313 999 c 0,20,21
 1191 1001 1191 1001 1088.5 919.5 c 128,-1,22
 986 838 986 838 960 716 c 1,23,-1
 836 0 l 1,24,-1
 717 0 l 1,25,-1
 837 716 l 1,26,27
 866 992 866 992 634 999 c 0,28,29
 519 1001 519 1001 420 927 c 128,-1,30
 321 853 321 853 287 743 c 1,31,-1
 159 0 l 1,32,-1
 40 0 l 1,33,-1
 228 1082 l 1,34,-1
 343 1082 l 1,0,-1
EndSplineSet
Substitution2: "'smcp' Lowercase to Small Capitals in Cyrillic lookup 7 subtable" M.c2sc
Substitution2: "'smcp' Lowercase to Small Capitals in Greek lookup 6 subtable" M.c2sc
Substitution2: "'smcp' Lowercase to Small Capitals lookup 5 subtable" M.c2sc
Substitution2: "'smcp' Lowercase to Small Capitals in Latin lookup 4 subtable" M.c2sc
EndChar

StartChar: n
Encoding: 110 110 82
Width: 1101
Flags: W
LayerCount: 2
Back
Fore
SplineSet
348 1082 m 1,0,-1
 312 897 l 1,1,2
 384 997 384 997 478.5 1050.5 c 128,-1,3
 573 1104 573 1104 681 1102 c 0,4,5
 837 1098 837 1098 908 993 c 128,-1,6
 979 888 979 888 958 704 c 1,7,-1
 840 0 l 1,8,-1
 722 0 l 1,9,-1
 840 706 l 2,10,11
 846 763 846 763 842 816 c 0,12,13
 825 994 825 994 648 999 c 0,14,15
 543 1001 543 1001 452 936.5 c 128,-1,16
 361 872 361 872 292 742 c 1,17,-1
 164 0 l 1,18,-1
 46 0 l 1,19,-1
 234 1082 l 1,20,-1
 348 1082 l 1,0,-1
EndSplineSet
Substitution2: "'smcp' Lowercase to Small Capitals in Cyrillic lookup 7 subtable" N.c2sc
Substitution2: "'smcp' Lowercase to Small Capitals in Greek lookup 6 subtable" N.c2sc
Substitution2: "'smcp' Lowercase to Small Capitals lookup 5 subtable" N.c2sc
Substitution2: "'smcp' Lowercase to Small Capitals in Latin lookup 4 subtable" N.c2sc
EndChar

StartChar: o
Encoding: 111 111 83
Width: 1123
Flags: W
LayerCount: 2
Back
Fore
SplineSet
75 551 m 1,0,1
 93 708 93 708 171 838.5 c 128,-1,2
 249 969 249 969 365.5 1037 c 128,-1,3
 482 1105 482 1105 618 1102 c 0,4,5
 752 1100 752 1100 846.5 1028.5 c 128,-1,6
 941 957 941 957 984.5 833.5 c 128,-1,7
 1028 710 1028 710 1014 560 c 2,8,-1
 1012 541 l 2,9,10
 982 285 982 285 830.5 130 c 128,-1,11
 679 -25 679 -25 467 -20 c 0,12,13
 285 -17 285 -17 176 114 c 128,-1,14
 67 245 67 245 69 460 c 1,15,-1
 72 517 l 1,16,-1
 75 551 l 1,0,1
191 517 m 2,17,18
 178 398 178 398 208.5 297.5 c 128,-1,19
 239 197 239 197 306 140 c 128,-1,20
 373 83 373 83 473 80 c 0,21,22
 581 78 581 78 670.5 135 c 128,-1,23
 760 192 760 192 818 296 c 128,-1,24
 876 400 876 400 893 526 c 1,25,-1
 896 559 l 2,26,27
 914 752 914 752 836.5 874.5 c 128,-1,28
 759 997 759 997 612 1000 c 0,29,30
 452 1005 452 1005 335.5 876.5 c 128,-1,31
 219 748 219 748 193 535 c 2,32,-1
 191 517 l 2,17,18
EndSplineSet
Substitution2: "'ss06' Style Set 6 in Cyrillic lookup 42 subtable" o.ss06
Substitution2: "'ss06' Style Set 6 in Greek lookup 41 subtable" o.ss06
Substitution2: "'ss06' Style Set 6 lookup 40 subtable" o.ss06
Substitution2: "'ss06' Style Set 6 in Latin lookup 39 subtable" o.ss06
Substitution2: "'smcp' Lowercase to Small Capitals in Cyrillic lookup 7 subtable" O.c2sc
Substitution2: "'smcp' Lowercase to Small Capitals in Greek lookup 6 subtable" O.c2sc
Substitution2: "'smcp' Lowercase to Small Capitals lookup 5 subtable" O.c2sc
Substitution2: "'smcp' Lowercase to Small Capitals in Latin lookup 4 subtable" O.c2sc
EndChar

StartChar: p
Encoding: 112 112 84
Width: 1111
Flags: W
LayerCount: 2
Back
Fore
SplineSet
500 -21 m 0,0,1
 407 -19 407 -19 324.5 18.5 c 128,-1,2
 242 56 242 56 191 136 c 1,3,-1
 91 -416 l 1,4,-1
 -27 -416 l 1,5,-1
 233 1082 l 1,6,-1
 343 1082 l 1,7,-1
 315 929 l 1,8,9
 456 1108 456 1108 668 1102 c 0,10,11
 820 1098 820 1098 905 989 c 128,-1,12
 990 880 990 880 993 680 c 0,13,14
 994 617 994 617 987 558 c 2,15,-1
 983 530 l 2,16,17
 958 355 958 355 889 228 c 128,-1,18
 820 101 820 101 721 38.5 c 128,-1,19
 622 -24 622 -24 500 -21 c 0,0,1
868 558 m 1,20,-1
 874 653 l 1,21,22
 877 813 877 813 816 904 c 128,-1,23
 755 995 755 995 635 999 c 0,24,25
 530 1001 530 1001 444.5 947.5 c 128,-1,26
 359 894 359 894 300 792 c 1,27,-1
 211 271 l 1,28,29
 243 179 243 179 312.5 131 c 128,-1,30
 382 83 382 83 479 80 c 0,31,32
 624 75 624 75 724.5 188.5 c 128,-1,33
 825 302 825 302 860 505 c 1,34,-1
 868 558 l 1,20,-1
EndSplineSet
Substitution2: "'ss06' Style Set 6 in Cyrillic lookup 42 subtable" p.ss06
Substitution2: "'ss06' Style Set 6 in Greek lookup 41 subtable" p.ss06
Substitution2: "'ss06' Style Set 6 lookup 40 subtable" p.ss06
Substitution2: "'ss06' Style Set 6 in Latin lookup 39 subtable" p.ss06
Substitution2: "'smcp' Lowercase to Small Capitals in Cyrillic lookup 7 subtable" P.c2sc
Substitution2: "'smcp' Lowercase to Small Capitals in Greek lookup 6 subtable" P.c2sc
Substitution2: "'smcp' Lowercase to Small Capitals lookup 5 subtable" P.c2sc
Substitution2: "'smcp' Lowercase to Small Capitals in Latin lookup 4 subtable" P.c2sc
EndChar

StartChar: q
Encoding: 113 113 85
Width: 1118
Flags: W
LayerCount: 2
Back
Fore
SplineSet
95 545 m 1,0,1
 130 803 130 803 260.5 955 c 128,-1,2
 391 1107 391 1107 587 1102 c 0,3,4
 682 1100 682 1100 761 1059.5 c 128,-1,5
 840 1019 840 1019 888 935 c 1,6,-1
 923 1082 l 1,7,-1
 1035 1082 l 1,8,-1
 775 -416 l 1,9,-1
 656 -416 l 1,10,-1
 758 134 l 1,11,12
 619 -26 619 -26 415 -20 c 0,13,14
 263 -16 263 -16 177.5 95.5 c 128,-1,15
 92 207 92 207 88 402 c 0,16,17
 86 464 86 464 93 523 c 2,18,-1
 95 545 l 1,0,1
214 524 m 1,19,-1
 207 430 l 1,20,21
 204 266 204 266 263.5 175 c 128,-1,22
 323 84 323 84 442 80 c 0,23,24
 541 76 541 76 626.5 125 c 128,-1,25
 712 174 712 174 775 267 c 1,26,-1
 866 799 l 1,27,28
 835 891 835 891 768.5 944 c 128,-1,29
 702 997 702 997 602 1000 c 0,30,31
 446 1005 446 1005 345 879 c 128,-1,32
 244 753 244 753 216 545 c 1,33,-1
 214 524 l 1,19,-1
EndSplineSet
Substitution2: "'ss06' Style Set 6 in Cyrillic lookup 42 subtable" q.ss06
Substitution2: "'ss06' Style Set 6 in Greek lookup 41 subtable" q.ss06
Substitution2: "'ss06' Style Set 6 lookup 40 subtable" q.ss06
Substitution2: "'ss06' Style Set 6 in Latin lookup 39 subtable" q.ss06
Substitution2: "'smcp' Lowercase to Small Capitals in Cyrillic lookup 7 subtable" Q.c2sc
Substitution2: "'smcp' Lowercase to Small Capitals in Greek lookup 6 subtable" Q.c2sc
Substitution2: "'smcp' Lowercase to Small Capitals lookup 5 subtable" Q.c2sc
Substitution2: "'smcp' Lowercase to Small Capitals in Latin lookup 4 subtable" Q.c2sc
EndChar

StartChar: r
Encoding: 114 114 86
Width: 678
Flags: W
LayerCount: 2
Back
Fore
SplineSet
707 981 m 1,0,1
 668 989 668 989 628 990 c 0,2,3
 514 990 514 990 419 920.5 c 128,-1,4
 324 851 324 851 292 744 c 1,5,-1
 164 0 l 1,6,-1
 46 0 l 1,7,-1
 234 1082 l 1,8,-1
 351 1082 l 1,9,-1
 315 910 l 1,10,11
 374 1006 374 1006 457.5 1056 c 128,-1,12
 541 1106 541 1106 641 1104 c 0,13,14
 676 1104 676 1104 723 1090 c 1,15,-1
 707 981 l 1,0,1
EndSplineSet
Substitution2: "'smcp' Lowercase to Small Capitals in Cyrillic lookup 7 subtable" R.c2sc
Substitution2: "'smcp' Lowercase to Small Capitals in Greek lookup 6 subtable" R.c2sc
Substitution2: "'smcp' Lowercase to Small Capitals lookup 5 subtable" R.c2sc
Substitution2: "'smcp' Lowercase to Small Capitals in Latin lookup 4 subtable" R.c2sc
EndChar

StartChar: s
Encoding: 115 115 87
Width: 1016
Flags: W
LayerCount: 2
Back
Fore
SplineSet
730 282 m 0,0,1
 746 420 746 420 562 482 c 1,2,-1
 390 533 l 1,3,4
 153 613 153 613 166 800 c 0,5,6
 173 935 173 935 290.5 1019.5 c 128,-1,7
 408 1104 408 1104 570 1102 c 0,8,9
 729 1100 729 1100 828 1012.5 c 128,-1,10
 927 925 927 925 920 779 c 1,11,-1
 802 779 l 1,12,13
 808 876 808 876 741.5 937 c 128,-1,14
 675 998 675 998 565 1000 c 0,15,16
 451 1000 451 1000 373 946.5 c 128,-1,17
 295 893 295 893 285 805 c 0,18,19
 270 676 270 676 443 624 c 2,20,-1
 568 588 l 1,21,-1
 635 565 l 1,22,23
 861 480 861 480 848 288 c 0,24,25
 840 158 840 158 735.5 74.5 c 128,-1,26
 631 -9 631 -9 466 -19 c 1,27,-1
 425 -20 l 1,28,29
 316 -18 316 -18 228 22.5 c 128,-1,30
 140 63 140 63 93 136 c 128,-1,31
 46 209 46 209 52 304 c 1,32,-1
 171 303 l 1,33,34
 171 201 171 201 240 142 c 128,-1,35
 309 83 309 83 430 81 c 0,36,37
 550 81 550 81 634 135.5 c 128,-1,38
 718 190 718 190 730 282 c 0,0,1
EndSplineSet
Substitution2: "'smcp' Lowercase to Small Capitals in Cyrillic lookup 7 subtable" S.c2sc
Substitution2: "'smcp' Lowercase to Small Capitals in Greek lookup 6 subtable" S.c2sc
Substitution2: "'smcp' Lowercase to Small Capitals lookup 5 subtable" S.c2sc
Substitution2: "'smcp' Lowercase to Small Capitals in Latin lookup 4 subtable" S.c2sc
EndChar

StartChar: t
Encoding: 116 116 88
Width: 648
Flags: W
LayerCount: 2
Back
Fore
SplineSet
465 1359 m 1,0,-1
 417 1082 l 1,1,-1
 634 1082 l 1,2,-1
 617 984 l 1,3,-1
 400 984 l 1,4,-1
 280 262 l 1,5,-1
 278 200 l 2,6,7
 278 91 278 91 378 88 c 0,8,9
 409 87 409 87 475 95 c 1,10,-1
 470 -3 l 1,11,12
 411 -20 411 -20 350 -18 c 0,13,14
 245 -16 245 -16 197 55.5 c 128,-1,15
 149 127 149 127 162 263 c 1,16,-1
 281 984 l 1,17,-1
 87 984 l 1,18,-1
 105 1082 l 1,19,-1
 297 1082 l 1,20,-1
 346 1359 l 1,21,-1
 465 1359 l 1,0,-1
EndSplineSet
Substitution2: "'smcp' Lowercase to Small Capitals in Cyrillic lookup 7 subtable" T.c2sc
Substitution2: "'smcp' Lowercase to Small Capitals in Greek lookup 6 subtable" T.c2sc
Substitution2: "'smcp' Lowercase to Small Capitals lookup 5 subtable" T.c2sc
Substitution2: "'smcp' Lowercase to Small Capitals in Latin lookup 4 subtable" T.c2sc
EndChar

StartChar: u
Encoding: 117 117 89
Width: 1101
Flags: W
LayerCount: 2
Back
Fore
SplineSet
764 136 m 1,0,1
 635 -26 635 -26 408 -20 c 0,2,3
 255 -17 255 -17 180 90.5 c 128,-1,4
 105 198 105 198 126 389 c 1,5,-1
 242 1082 l 1,6,-1
 360 1082 l 1,7,-1
 245 386 l 2,8,9
 239 332 239 332 244 279 c 0,10,11
 251 187 251 187 299 137 c 128,-1,12
 347 87 347 87 431 84 c 0,13,14
 551 79 551 79 653 139.5 c 128,-1,15
 755 200 755 200 785 298 c 1,16,-1
 919 1082 l 1,17,-1
 1039 1082 l 1,18,-1
 851 0 l 1,19,-1
 735 0 l 1,20,-1
 764 136 l 1,0,1
EndSplineSet
Substitution2: "'smcp' Lowercase to Small Capitals in Cyrillic lookup 7 subtable" U.c2sc
Substitution2: "'smcp' Lowercase to Small Capitals in Greek lookup 6 subtable" U.c2sc
Substitution2: "'smcp' Lowercase to Small Capitals lookup 5 subtable" U.c2sc
Substitution2: "'smcp' Lowercase to Small Capitals in Latin lookup 4 subtable" U.c2sc
EndChar

StartChar: v
Encoding: 118 118 90
Width: 965
Flags: W
LayerCount: 2
Back
Fore
SplineSet
408 169 m 1,0,-1
 870 1082 l 1,1,-1
 996 1082 l 1,2,-1
 435 0 l 1,3,-1
 338 0 l 1,4,-1
 113 1082 l 1,5,-1
 231 1082 l 1,6,-1
 408 169 l 1,0,-1
EndSplineSet
Substitution2: "'smcp' Lowercase to Small Capitals in Cyrillic lookup 7 subtable" V.c2sc
Substitution2: "'smcp' Lowercase to Small Capitals in Greek lookup 6 subtable" V.c2sc
Substitution2: "'smcp' Lowercase to Small Capitals lookup 5 subtable" V.c2sc
Substitution2: "'smcp' Lowercase to Small Capitals in Latin lookup 4 subtable" V.c2sc
EndChar

StartChar: w
Encoding: 119 119 91
Width: 1508
Flags: W
LayerCount: 2
Back
Fore
SplineSet
342 249 m 1,0,-1
 342 164 l 1,1,-1
 381 257 l 1,2,-1
 776 1082 l 1,3,-1
 878 1082 l 1,4,-1
 985 255 l 1,5,-1
 991 153 l 1,6,-1
 1032 256 l 1,7,-1
 1390 1082 l 1,8,-1
 1517 1082 l 1,9,-1
 1023 0 l 1,10,-1
 921 0 l 1,11,-1
 802 858 l 1,12,-1
 801 918 l 1,13,-1
 778 857 l 1,14,-1
 364 0 l 1,15,-1
 262 0 l 1,16,-1
 147 1082 l 1,17,-1
 259 1083 l 1,18,-1
 342 249 l 1,0,-1
EndSplineSet
Substitution2: "'smcp' Lowercase to Small Capitals in Cyrillic lookup 7 subtable" W.c2sc
Substitution2: "'smcp' Lowercase to Small Capitals in Greek lookup 6 subtable" W.c2sc
Substitution2: "'smcp' Lowercase to Small Capitals lookup 5 subtable" W.c2sc
Substitution2: "'smcp' Lowercase to Small Capitals in Latin lookup 4 subtable" W.c2sc
EndChar

StartChar: x
Encoding: 120 120 92
Width: 976
Flags: W
LayerCount: 2
Back
Fore
SplineSet
484 645 m 1,0,-1
 835 1082 l 1,1,-1
 983 1082 l 1,2,-1
 539 545 l 1,3,-1
 822 0 l 1,4,-1
 690 0 l 1,5,-1
 464 456 l 1,6,-1
 94 0 l 1,7,-1
 -52 0 l 1,8,-1
 410 557 l 1,9,-1
 139 1082 l 1,10,-1
 271 1082 l 1,11,-1
 484 645 l 1,0,-1
EndSplineSet
Substitution2: "'smcp' Lowercase to Small Capitals in Cyrillic lookup 7 subtable" X.c2sc
Substitution2: "'smcp' Lowercase to Small Capitals in Greek lookup 6 subtable" X.c2sc
Substitution2: "'smcp' Lowercase to Small Capitals lookup 5 subtable" X.c2sc
Substitution2: "'smcp' Lowercase to Small Capitals in Latin lookup 4 subtable" X.c2sc
EndChar

StartChar: y
Encoding: 121 121 93
Width: 954
Flags: W
LayerCount: 2
Back
Fore
SplineSet
408 176 m 1,0,-1
 871 1082 l 1,1,-1
 1004 1082 l 1,2,-1
 344 -174 l 2,3,4
 271 -320 271 -320 189.5 -381 c 128,-1,5
 108 -442 108 -442 8 -440 c 0,6,7
 -30 -438 -30 -438 -88 -424 c 1,8,-1
 -76 -326 l 1,9,-1
 -16 -333 l 1,10,11
 152 -340 152 -340 249 -135 c 1,12,-1
 325 16 l 1,13,-1
 116 1082 l 1,14,-1
 241 1082 l 1,15,-1
 408 176 l 1,0,-1
EndSplineSet
Substitution2: "'smcp' Lowercase to Small Capitals in Cyrillic lookup 7 subtable" Y.c2sc
Substitution2: "'smcp' Lowercase to Small Capitals in Greek lookup 6 subtable" Y.c2sc
Substitution2: "'smcp' Lowercase to Small Capitals lookup 5 subtable" Y.c2sc
Substitution2: "'smcp' Lowercase to Small Capitals in Latin lookup 4 subtable" Y.c2sc
EndChar

StartChar: z
Encoding: 122 122 94
Width: 976
Flags: W
LayerCount: 2
Back
Fore
SplineSet
147 101 m 1,0,-1
 825 101 l 1,1,-1
 807 0 l 1,2,-1
 -21 0 l 1,3,-1
 -5 94 l 1,4,-1
 781 979 l 1,5,-1
 168 979 l 1,6,-1
 186 1082 l 1,7,-1
 953 1082 l 1,8,-1
 936 987 l 1,9,-1
 147 101 l 1,0,-1
EndSplineSet
Substitution2: "'smcp' Lowercase to Small Capitals in Cyrillic lookup 7 subtable" Z.c2sc
Substitution2: "'smcp' Lowercase to Small Capitals in Greek lookup 6 subtable" Z.c2sc
Substitution2: "'smcp' Lowercase to Small Capitals lookup 5 subtable" Z.c2sc
Substitution2: "'smcp' Lowercase to Small Capitals in Latin lookup 4 subtable" Z.c2sc
EndChar

StartChar: braceleft
Encoding: 123 123 95
Width: 666
Flags: W
LayerCount: 2
Back
Fore
SplineSet
476 -402 m 1,0,1
 326 -351 326 -351 256.5 -231.5 c 128,-1,2
 187 -112 187 -112 206 58 c 1,3,-1
 237 285 l 2,4,5
 243 338 243 338 237 384 c 0,6,7
 217 531 217 531 58 542 c 1,8,-1
 70 645 l 1,9,10
 300 654 300 654 338 899 c 1,11,-1
 372 1146 l 1,12,13
 426 1495 426 1495 770 1599 c 1,14,-1
 788 1519 l 1,15,16
 532 1432 532 1432 489 1125 c 2,17,-1
 455 884 l 1,18,19
 419 673 419 673 228 591 c 1,20,21
 345 527 345 527 357 374 c 0,22,23
 360 329 360 329 356 284 c 2,24,-1
 325 57 l 2,25,26
 317 -5 317 -5 322 -63 c 0,27,28
 335 -257 335 -257 506 -323 c 1,29,-1
 476 -402 l 1,0,1
EndSplineSet
EndChar

StartChar: bar
Encoding: 124 124 96
Width: 448
Flags: W
LayerCount: 2
Back
Fore
SplineSet
136 -270 m 1,0,-1
 35 -270 l 1,1,-1
 305 1456 l 1,2,-1
 406 1456 l 1,3,-1
 136 -270 l 1,0,-1
EndSplineSet
EndChar

StartChar: braceright
Encoding: 125 125 97
Width: 666
Flags: W
LayerCount: 2
Back
Fore
SplineSet
-136 -325 m 1,0,1
 124 -236 124 -236 166 71 c 2,2,-1
 198 304 l 1,3,4
 234 519 234 519 434 598 c 1,5,6
 374 626 374 626 339 681.5 c 128,-1,7
 304 737 304 737 297 813 c 0,8,9
 293 858 293 858 298 904 c 2,10,-1
 328 1133 l 2,11,12
 335 1194 335 1194 332 1253 c 0,13,14
 327 1349 327 1349 281.5 1417.5 c 128,-1,15
 236 1486 236 1486 153 1518 c 1,16,-1
 185 1595 l 1,17,18
 331 1543 331 1543 399 1425 c 128,-1,19
 467 1307 467 1307 447 1132 c 2,20,-1
 417 903 l 2,21,22
 411 850 411 850 417 805 c 0,23,24
 437 657 437 657 595 649 c 1,25,-1
 584 545 l 1,26,27
 348 535 348 535 313 275 c 2,28,-1
 282 44 l 1,29,30
 228 -303 228 -303 -116 -406 c 1,31,-1
 -136 -325 l 1,0,1
EndSplineSet
EndChar

StartChar: asciitilde
Encoding: 126 126 98
Width: 1370
Flags: W
LayerCount: 2
Back
Fore
SplineSet
1240 764 m 1,0,1
 1221 609 1221 609 1132 513.5 c 128,-1,2
 1043 418 1043 418 914 422 c 0,3,4
 795 425 795 425 681 527 c 1,5,-1
 591 613 l 2,6,7
 515 681 515 681 439 681 c 0,8,9
 263 684 263 684 222 451 c 1,10,-1
 118 449 l 1,11,12
 137 606 137 606 225.5 698.5 c 128,-1,13
 314 791 314 791 444 789 c 0,14,15
 560 786 560 786 672 689 c 1,16,-1
 767 599 l 2,17,18
 842 530 842 530 920 528 c 0,19,20
 1003 526 1003 526 1061.5 586 c 128,-1,21
 1120 646 1120 646 1141 763 c 1,22,-1
 1240 764 l 1,0,1
EndSplineSet
EndChar

StartChar: exclamdown
Encoding: 161 161 99
Width: 448
Flags: W
LayerCount: 2
Back
Fore
SplineSet
183 690 m 1,0,-1
 294 690 l 1,1,-1
 118 -359 l 1,2,-1
 -5 -359 l 1,3,-1
 183 690 l 1,0,-1
370 1022 m 0,4,5
 368 989 368 989 343.5 965.5 c 128,-1,6
 319 942 319 942 285 941 c 0,7,8
 250 940 250 940 228 963.5 c 128,-1,9
 206 987 206 987 208 1022 c 0,10,11
 211 1056 211 1056 235.5 1079 c 128,-1,12
 260 1102 260 1102 294 1103 c 0,13,14
 329 1104 329 1104 351 1080.5 c 128,-1,15
 373 1057 373 1057 370 1022 c 0,4,5
EndSplineSet
EndChar

StartChar: cent
Encoding: 162 162 100
Width: 1092
Flags: W
LayerCount: 2
Back
Fore
SplineSet
484 80 m 0,0,1
 604 76 604 76 694 145 c 128,-1,2
 784 214 784 214 817 333 c 1,3,-1
 930 333 l 1,4,5
 902 189 902 189 792.5 95 c 128,-1,6
 683 1 683 1 524 -18 c 1,7,-1
 481 -245 l 1,8,-1
 361 -245 l 1,9,-1
 405 -14 l 1,10,11
 308 4 308 4 247 57 c 0,12,13
 130 159 130 159 112 344 c 0,14,15
 94 521 94 521 145.5 694.5 c 128,-1,16
 197 868 197 868 314.5 973 c 128,-1,17
 432 1078 432 1078 591 1099 c 1,18,-1
 633 1318 l 1,19,-1
 753 1318 l 1,20,-1
 710 1097 l 1,21,22
 851 1072 851 1072 926.5 968.5 c 128,-1,23
 1002 865 1002 865 996 716 c 1,24,-1
 883 717 l 1,25,26
 887 841 887 841 821 918.5 c 128,-1,27
 755 996 755 996 639 1000 c 0,28,29
 470 1005 470 1005 360 871.5 c 128,-1,30
 250 738 250 738 227 499 c 1,31,-1
 224 419 l 1,32,33
 224 261 224 261 290.5 172.5 c 128,-1,34
 357 84 357 84 484 80 c 0,0,1
EndSplineSet
EndChar

StartChar: sterling
Encoding: 163 163 101
Width: 1145
Flags: W
LayerCount: 2
Back
Fore
SplineSet
401 645 m 1,0,-1
 364 376 l 2,1,2
 340 200 340 200 252 102 c 1,3,-1
 977 104 l 1,4,-1
 959 0 l 1,5,-1
 -11 0 l 1,6,-1
 7 103 l 1,7,-1
 99 102 l 1,8,9
 212 144 212 144 242 367 c 2,10,-1
 279 645 l 1,11,-1
 97 645 l 1,12,-1
 115 749 l 1,13,-1
 294 749 l 1,14,-1
 331 1031 l 2,15,16
 358 1238 358 1238 484 1359.5 c 128,-1,17
 610 1481 610 1481 791 1477 c 0,18,19
 955 1473 955 1473 1045.5 1365.5 c 128,-1,20
 1136 1258 1136 1258 1119 1088 c 1,21,-1
 997 1088 l 1,22,23
 1010 1211 1010 1211 952.5 1289.5 c 128,-1,24
 895 1368 895 1368 776 1372 c 0,25,26
 650 1375 650 1375 562.5 1283 c 128,-1,27
 475 1191 475 1191 453 1025 c 2,28,-1
 416 749 l 1,29,-1
 750 749 l 1,30,-1
 732 645 l 1,31,-1
 401 645 l 1,0,-1
EndSplineSet
Substitution2: "'c2sc' Capitals to Small Capitals in Cyrillic lookup 3 subtable" sterling.c2sc
Substitution2: "'c2sc' Capitals to Small Capitals in Greek lookup 2 subtable" sterling.c2sc
Substitution2: "'c2sc' Capitals to Small Capitals lookup 1 subtable" sterling.c2sc
Substitution2: "'c2sc' Capitals to Small Capitals in Latin lookup 0 subtable" sterling.c2sc
Position2: "'cpsp' Capital Spacing in Cyrillic lookup 3 subtable" dx=36 dy=0 dh=72 dv=0
Position2: "'cpsp' Capital Spacing in Greek lookup 2 subtable" dx=36 dy=0 dh=72 dv=0
Position2: "'cpsp' Capital Spacing lookup 1 subtable" dx=36 dy=0 dh=72 dv=0
Position2: "'cpsp' Capital Spacing in Latin lookup 0 subtable" dx=36 dy=0 dh=72 dv=0
EndChar

StartChar: currency
Encoding: 164 164 102
Width: 1447
Flags: W
LayerCount: 2
Back
Fore
SplineSet
1023 131 m 1,0,1
 831 -24 831 -24 620 -20 c 0,2,3
 519 -18 519 -18 426.5 20 c 128,-1,4
 334 58 334 58 265 132 c 1,5,-1
 85 -26 l 1,6,-1
 12 66 l 1,7,-1
 195 222 l 1,8,9
 114 401 114 401 141 601 c 0,10,11
 172 829 172 829 338 1010 c 1,12,-1
 205 1183 l 1,13,-1
 298 1265 l 1,14,-1
 429 1096 l 1,15,16
 619 1238 619 1238 819 1234 c 0,17,18
 916 1232 916 1232 1005.5 1196.5 c 128,-1,19
 1095 1161 1095 1161 1164 1092 c 1,20,-1
 1361 1265 l 1,21,-1
 1435 1171 l 1,22,-1
 1238 1001 l 1,23,24
 1324 815 1324 815 1296 614 c 0,25,26
 1269 399 1269 399 1111 222 c 1,27,-1
 1241 54 l 1,28,-1
 1147 -28 l 1,29,-1
 1023 131 l 1,0,1
252 599 m 0,30,31
 240 507 240 507 259.5 417 c 128,-1,32
 279 327 279 327 326.5 255.5 c 128,-1,33
 374 184 374 184 450 138 c 128,-1,34
 526 92 526 92 627 89 c 0,35,36
 760 85 760 85 882 156.5 c 128,-1,37
 1004 228 1004 228 1085 352 c 128,-1,38
 1166 476 1166 476 1185 616 c 0,39,40
 1202 744 1202 744 1158.5 862.5 c 128,-1,41
 1115 981 1115 981 1024 1050 c 128,-1,42
 933 1119 933 1119 811 1123 c 0,43,44
 681 1127 681 1127 561 1060 c 128,-1,45
 441 993 441 993 356 867.5 c 128,-1,46
 271 742 271 742 252 599 c 0,30,31
EndSplineSet
EndChar

StartChar: yen
Encoding: 165 165 103
Width: 1196
Flags: W
LayerCount: 2
Back
Fore
SplineSet
609 736 m 1,0,-1
 1141 1456 l 1,1,-1
 1290 1456 l 1,2,-1
 720 705 l 1,3,-1
 1073 705 l 1,4,-1
 1057 616 l 1,5,-1
 652 616 l 1,6,-1
 616 412 l 1,7,-1
 1022 412 l 1,8,-1
 1006 324 l 1,9,-1
 601 324 l 1,10,-1
 544 0 l 1,11,-1
 422 0 l 1,12,-1
 479 324 l 1,13,-1
 77 324 l 1,14,-1
 93 412 l 1,15,-1
 494 412 l 1,16,-1
 530 616 l 1,17,-1
 127 616 l 1,18,-1
 143 705 l 1,19,-1
 502 705 l 1,20,-1
 194 1456 l 1,21,-1
 327 1456 l 1,22,-1
 609 736 l 1,0,-1
EndSplineSet
Substitution2: "'c2sc' Capitals to Small Capitals in Cyrillic lookup 3 subtable" yen.c2sc
Substitution2: "'c2sc' Capitals to Small Capitals in Greek lookup 2 subtable" yen.c2sc
Substitution2: "'c2sc' Capitals to Small Capitals lookup 1 subtable" yen.c2sc
Substitution2: "'c2sc' Capitals to Small Capitals in Latin lookup 0 subtable" yen.c2sc
Position2: "'cpsp' Capital Spacing in Cyrillic lookup 3 subtable" dx=36 dy=0 dh=72 dv=0
Position2: "'cpsp' Capital Spacing in Greek lookup 2 subtable" dx=36 dy=0 dh=72 dv=0
Position2: "'cpsp' Capital Spacing lookup 1 subtable" dx=36 dy=0 dh=72 dv=0
Position2: "'cpsp' Capital Spacing in Latin lookup 0 subtable" dx=36 dy=0 dh=72 dv=0
EndChar

StartChar: brokenbar
Encoding: 166 166 104
Width: 441
Flags: W
LayerCount: 2
Back
Fore
SplineSet
2 -270 m 1,0,-1
 136 501 l 1,1,-1
 256 501 l 1,2,-1
 121 -270 l 1,3,-1
 2 -270 l 1,0,-1
289 698 m 1,4,-1
 170 698 l 1,5,-1
 302 1456 l 1,6,-1
 421 1456 l 1,7,-1
 289 698 l 1,4,-1
EndSplineSet
EndChar

StartChar: section
Encoding: 167 167 105
Width: 1212
Flags: W
LayerCount: 2
Back
Fore
SplineSet
1066 439 m 0,0,1
 1049 240 1049 240 793 155 c 1,2,3
 940 55 940 55 924 -131 c 0,4,5
 915 -245 915 -245 847.5 -327.5 c 128,-1,6
 780 -410 780 -410 665 -454 c 128,-1,7
 550 -498 550 -498 418 -495 c 0,8,9
 210 -493 210 -493 93 -377.5 c 128,-1,10
 -24 -262 -24 -262 -7 -64 c 1,11,-1
 112 -62 l 1,12,13
 97 -210 97 -210 181.5 -300.5 c 128,-1,14
 266 -391 266 -391 423 -393 c 0,15,16
 571 -398 571 -398 679 -327 c 128,-1,17
 787 -256 787 -256 803 -134 c 0,18,19
 813 -46 813 -46 761 15.5 c 128,-1,20
 709 77 709 77 584 120 c 2,21,-1
 422 173 l 1,22,-1
 342 204 l 1,23,24
 84 313 84 313 104 543 c 0,25,26
 121 742 121 742 368 829 c 1,27,28
 228 930 228 930 245 1112 c 0,29,30
 254 1224 254 1224 323 1307.5 c 128,-1,31
 392 1391 392 1391 506.5 1435 c 128,-1,32
 621 1479 621 1479 753 1476 c 0,33,34
 954 1472 954 1472 1061 1355 c 128,-1,35
 1168 1238 1168 1238 1149 1045 c 1,36,-1
 1031 1045 l 1,37,38
 1045 1190 1045 1190 968 1280 c 128,-1,39
 891 1370 891 1370 748 1374 c 0,40,41
 589 1376 589 1376 485 1306.5 c 128,-1,42
 381 1237 381 1237 366 1115 c 0,43,44
 344 948 344 948 542 871 c 1,45,-1
 777 791 l 2,46,47
 936 734 936 734 1006 649.5 c 128,-1,48
 1076 565 1076 565 1066 439 c 0,0,1
615 729 m 1,49,-1
 483 772 l 1,50,51
 249 733 249 733 224 546 c 0,52,53
 211 453 211 453 267 388 c 128,-1,54
 323 323 323 323 488 271 c 128,-1,55
 653 219 653 219 668 213 c 1,56,57
 790 231 790 231 861.5 288.5 c 128,-1,58
 933 346 933 346 945 435 c 0,59,60
 957 526 957 526 896 592.5 c 128,-1,61
 835 659 835 659 679 709 c 2,62,-1
 615 729 l 1,49,-1
EndSplineSet
EndChar

StartChar: dieresis
Encoding: 168 168 106
Width: 865
Flags: W
LayerCount: 2
Back
Fore
SplineSet
262 1396 m 0,0,1
 264 1430 264 1430 288 1453.5 c 128,-1,2
 312 1477 312 1477 347 1478 c 0,3,4
 382 1478 382 1478 404.5 1454.5 c 128,-1,5
 427 1431 427 1431 424 1396 c 0,6,7
 422 1363 422 1363 397 1340 c 128,-1,8
 372 1317 372 1317 339 1316 c 0,9,10
 304 1316 304 1316 282 1338.5 c 128,-1,11
 260 1361 260 1361 262 1396 c 0,0,1
686 1395 m 0,12,13
 688 1429 688 1429 714 1453 c 128,-1,14
 740 1477 740 1477 771 1477 c 0,15,16
 806 1478 806 1478 828 1454 c 128,-1,17
 850 1430 850 1430 848 1395 c 0,18,19
 846 1361 846 1361 821 1338.5 c 128,-1,20
 796 1316 796 1316 763 1315 c 0,21,22
 729 1315 729 1315 706.5 1337.5 c 128,-1,23
 684 1360 684 1360 686 1395 c 0,12,13
EndSplineSet
EndChar

StartChar: copyright
Encoding: 169 169 107
Width: 1598
Flags: W
LayerCount: 2
Back
Fore
SplineSet
1101 607 m 1,0,1
 1082 455 1082 455 992 371.5 c 128,-1,2
 902 288 902 288 762 292 c 0,3,4
 620 296 620 296 545.5 406 c 128,-1,5
 471 516 471 516 485 680 c 2,6,-1
 493 758 l 2,7,8
 513 946 513 946 615.5 1056 c 128,-1,9
 718 1166 718 1166 868 1164 c 0,10,11
 1005 1160 1005 1160 1076.5 1076.5 c 128,-1,12
 1148 993 1148 993 1137 850 c 1,13,-1
 1039 850 l 1,14,15
 1057 1071 1057 1071 864 1075 c 0,16,17
 758 1077 758 1077 685 994.5 c 128,-1,18
 612 912 612 912 595 777 c 2,19,-1
 585 679 l 2,20,21
 572 550 572 550 620.5 467.5 c 128,-1,22
 669 385 669 385 766 382 c 0,23,24
 964 375 964 375 1006 606 c 1,25,-1
 1101 607 l 1,0,1
219 562 m 0,26,27
 241 345 241 345 379 206 c 128,-1,28
 517 67 517 67 717 65 c 0,29,30
 912 61 912 61 1085.5 178 c 128,-1,31
 1259 295 1259 295 1355 494 c 128,-1,32
 1451 693 1451 693 1430 896 c 0,33,34
 1414 1038 1414 1038 1345.5 1150.5 c 128,-1,35
 1277 1263 1277 1263 1170.5 1324.5 c 128,-1,36
 1064 1386 1064 1386 932 1389 c 0,37,38
 788 1392 788 1392 652.5 1328 c 128,-1,39
 517 1264 517 1264 410.5 1140.5 c 128,-1,40
 304 1017 304 1017 253.5 864 c 128,-1,41
 203 711 203 711 219 562 c 0,26,27
135 722 m 0,42,43
 157 919 157 919 270.5 1096.5 c 128,-1,44
 384 1274 384 1274 560 1377 c 128,-1,45
 736 1480 736 1480 933 1476 c 0,46,47
 1112 1474 1112 1474 1254 1375.5 c 128,-1,48
 1396 1277 1396 1277 1466 1101.5 c 128,-1,49
 1536 926 1536 926 1513 735 c 0,50,51
 1488 529 1488 529 1370.5 350.5 c 128,-1,52
 1253 172 1253 172 1079 73.5 c 128,-1,53
 905 -25 905 -25 716 -21 c 0,54,55
 532 -17 532 -17 392 81.5 c 128,-1,56
 252 180 252 180 182 356 c 128,-1,57
 112 532 112 532 135 722 c 0,42,43
EndSplineSet
EndChar

StartChar: ordfeminine
Encoding: 170 170 108
Width: 889
Flags: W
LayerCount: 2
Back
Fore
SplineSet
657 703 m 1,0,1
 651 751 651 751 654 798 c 1,2,3
 555 690 555 690 427 690 c 0,4,5
 324 690 324 690 263.5 749 c 128,-1,6
 203 808 203 808 209 900 c 0,7,8
 214 1014 214 1014 307 1077.5 c 128,-1,9
 400 1141 400 1141 560 1141 c 2,10,-1
 697 1140 l 1,11,-1
 706 1202 l 2,12,13
 710 1237 710 1237 706 1269 c 0,14,15
 692 1377 692 1377 583 1380 c 0,16,17
 507 1382 507 1382 451.5 1348 c 128,-1,18
 396 1314 396 1314 377 1238 c 1,19,-1
 273 1244 l 1,20,21
 288 1353 288 1353 375 1416 c 128,-1,22
 462 1479 462 1479 589 1477 c 0,23,24
 706 1473 706 1473 766.5 1397.5 c 128,-1,25
 827 1322 827 1322 816 1200 c 1,26,-1
 767 886 l 2,27,28
 752 793 752 793 762 704 c 1,29,-1
 657 703 l 1,0,1
450 784 m 0,30,31
 563 784 563 784 658 889 c 1,32,-1
 688 1058 l 1,33,-1
 562 1059 l 2,34,35
 455 1059 455 1059 391 1018.5 c 128,-1,36
 327 978 327 978 319 905 c 0,37,38
 314 846 314 846 349 815 c 128,-1,39
 384 784 384 784 450 784 c 0,30,31
EndSplineSet
EndChar

StartChar: logicalnot
Encoding: 172 172 110
Width: 1093
Flags: W
LayerCount: 2
Back
Fore
SplineSet
872 386 m 1,0,-1
 753 386 l 1,1,-1
 803 670 l 1,2,-1
 131 670 l 1,3,-1
 150 776 l 1,4,-1
 940 776 l 1,5,-1
 872 386 l 1,0,-1
EndSplineSet
EndChar

StartChar: registered
Encoding: 174 174 111
Width: 1603
Flags: W
LayerCount: 2
Back
Fore
SplineSet
130 722 m 0,0,1
 155 929 155 929 270 1104 c 128,-1,2
 385 1279 385 1279 559.5 1379.5 c 128,-1,3
 734 1480 734 1480 928 1476 c 0,4,5
 1105 1474 1105 1474 1247.5 1376.5 c 128,-1,6
 1390 1279 1390 1279 1461.5 1103 c 128,-1,7
 1533 927 1533 927 1510 735 c 0,8,9
 1492 584 1492 584 1421 442.5 c 128,-1,10
 1350 301 1350 301 1238 194.5 c 128,-1,11
 1126 88 1126 88 989.5 32 c 128,-1,12
 853 -24 853 -24 711 -21 c 0,13,14
 527 -17 527 -17 387 81.5 c 128,-1,15
 247 180 247 180 177 356 c 128,-1,16
 107 532 107 532 130 722 c 0,0,1
214 562 m 0,17,18
 236 346 236 346 374 206.5 c 128,-1,19
 512 67 512 67 712 65 c 0,20,21
 855 62 855 62 989.5 125 c 128,-1,22
 1124 188 1124 188 1231 312.5 c 128,-1,23
 1338 437 1338 437 1389.5 589 c 128,-1,24
 1441 741 1441 741 1425 896 c 0,25,26
 1411 1034 1411 1034 1343.5 1147.5 c 128,-1,27
 1276 1261 1276 1261 1167.5 1323.5 c 128,-1,28
 1059 1386 1059 1386 927 1389 c 0,29,30
 784 1392 784 1392 648 1328 c 128,-1,31
 512 1264 512 1264 407 1142.5 c 128,-1,32
 302 1021 302 1021 249.5 869 c 128,-1,33
 197 717 197 717 214 562 c 0,17,18
655 666 m 1,34,-1
 600 321 l 1,35,-1
 502 321 l 1,36,-1
 634 1160 l 1,37,-1
 878 1159 l 1,38,39
 1011 1154 1011 1154 1079.5 1092.5 c 128,-1,40
 1148 1031 1148 1031 1141 919 c 0,41,42
 1131 787 1131 787 975 711 c 1,43,44
 1058 669 1058 669 1067 571 c 1,45,-1
 1066 509 l 1,46,47
 1056 433 1056 433 1057 400 c 2,48,-1
 1059 337 l 1,49,-1
 1057 321 l 1,50,-1
 959 321 l 1,51,52
 954 357 954 357 956 393 c 2,53,-1
 962 465 l 1,54,-1
 967 509 l 2,55,56
 974 584 974 584 946.5 622.5 c 128,-1,57
 919 661 919 661 842 665 c 2,58,-1
 655 666 l 1,34,-1
668 757 m 1,59,-1
 839 756 l 2,60,61
 921 758 921 758 979.5 800.5 c 128,-1,62
 1038 843 1038 843 1047 917 c 0,63,64
 1067 1068 1067 1068 877 1069 c 2,65,-1
 718 1070 l 1,66,-1
 668 757 l 1,59,-1
EndSplineSet
EndChar

StartChar: macron
Encoding: 175 175 112
Width: 858
Flags: W
LayerCount: 2
Back
Fore
SplineSet
873 1359 m 1,0,-1
 220 1359 l 1,1,-1
 236 1456 l 1,2,-1
 888 1456 l 1,3,-1
 873 1359 l 1,0,-1
EndSplineSet
EndChar

StartChar: degree
Encoding: 176 176 113
Width: 761
Flags: W
LayerCount: 2
Back
Fore
SplineSet
249 1217 m 0,0,1
 253 1323 253 1323 331.5 1401 c 128,-1,2
 410 1479 410 1479 511 1477 c 0,3,4
 603 1475 603 1475 664.5 1404 c 128,-1,5
 726 1333 726 1333 722 1235 c 0,6,7
 718 1129 718 1129 641.5 1053 c 128,-1,8
 565 977 565 977 464 979 c 0,9,10
 368 981 368 981 306.5 1052 c 128,-1,11
 245 1123 245 1123 249 1217 c 0,0,1
339 1219 m 0,12,13
 333 1157 333 1157 370 1113.5 c 128,-1,14
 407 1070 407 1070 466 1070 c 0,15,16
 533 1070 533 1070 580 1117.5 c 128,-1,17
 627 1165 627 1165 633 1233 c 0,18,19
 639 1294 639 1294 604.5 1340 c 128,-1,20
 570 1386 570 1386 508 1386 c 0,21,22
 444 1386 444 1386 395 1338.5 c 128,-1,23
 346 1291 346 1291 339 1219 c 0,12,13
EndSplineSet
EndChar

StartChar: plusminus
Encoding: 177 177 114
Width: 1062
Flags: W
LayerCount: 2
Back
Fore
SplineSet
628 829 m 1,0,-1
 1008 829 l 1,1,-1
 991 727 l 1,2,-1
 612 727 l 1,3,-1
 543 289 l 1,4,-1
 433 289 l 1,5,-1
 502 727 l 1,6,-1
 100 727 l 1,7,-1
 116 829 l 1,8,-1
 517 829 l 1,9,-1
 586 1267 l 1,10,-1
 697 1267 l 1,11,-1
 628 829 l 1,0,-1
842 0 m 1,12,-1
 29 0 l 1,13,-1
 45 101 l 1,14,-1
 858 101 l 1,15,-1
 842 0 l 1,12,-1
EndSplineSet
EndChar

StartChar: uni00B2
Encoding: 178 178 115
Width: 728
Flags: W
LayerCount: 2
Back
Fore
SplineSet
659 665 m 1,0,-1
 103 665 l 1,1,-1
 117 745 l 1,2,-1
 488 1066 l 2,3,4
 598 1164 598 1164 608 1247 c 0,5,6
 616 1311 616 1311 579.5 1345.5 c 128,-1,7
 543 1380 543 1380 481 1380 c 0,8,9
 400 1381 400 1381 350 1336.5 c 128,-1,10
 300 1292 300 1292 283 1216 c 1,11,-1
 180 1216 l 1,12,13
 196 1332 196 1332 280 1400.5 c 128,-1,14
 364 1469 364 1469 482 1467 c 0,15,16
 594 1465 594 1465 658.5 1405 c 128,-1,17
 723 1345 723 1345 716 1248 c 0,18,19
 709 1133 709 1133 560 1004 c 2,20,-1
 497 950 l 1,21,-1
 255 752 l 1,22,-1
 675 752 l 1,23,-1
 659 665 l 1,0,-1
EndSplineSet
EndChar

StartChar: uni00B3
Encoding: 179 179 116
Width: 728
Flags: W
LayerCount: 2
Back
Fore
SplineSet
345 1106 m 1,0,-1
 421 1106 l 2,1,2
 510 1109 510 1109 565 1149 c 0,3,4
 617 1187 617 1187 623 1248 c 0,5,6
 629 1310 629 1310 589.5 1344.5 c 128,-1,7
 550 1379 550 1379 485 1379 c 0,8,9
 418 1380 418 1380 367.5 1346 c 128,-1,10
 317 1312 317 1312 299 1247 c 1,11,-1
 195 1246 l 1,12,13
 210 1349 210 1349 291.5 1409 c 128,-1,14
 373 1469 373 1469 486 1467 c 0,15,16
 598 1465 598 1465 666.5 1406.5 c 128,-1,17
 735 1348 735 1348 728 1251 c 0,18,19
 721 1133 721 1133 559 1065 c 1,20,21
 690 1021 690 1021 684 888 c 0,22,23
 679 781 679 781 592 716.5 c 128,-1,24
 505 652 505 652 380 654 c 0,25,26
 262 656 262 656 190 718.5 c 128,-1,27
 118 781 118 781 122 885 c 1,28,-1
 225 885 l 1,29,30
 222 822 222 822 265 782 c 128,-1,31
 308 742 308 742 385 742 c 0,32,33
 467 742 467 742 520.5 782.5 c 128,-1,34
 574 823 574 823 581 890 c 0,35,36
 594 1019 594 1019 417 1024 c 2,37,-1
 336 1025 l 1,38,-1
 345 1106 l 1,0,-1
EndSplineSet
EndChar

StartChar: acute
Encoding: 180 180 117
Width: 569
Flags: W
LayerCount: 2
Back
Fore
SplineSet
446 1524 m 1,0,-1
 596 1523 l 1,1,-1
 328 1246 l 1,2,-1
 216 1246 l 1,3,-1
 446 1524 l 1,0,-1
EndSplineSet
EndChar

StartChar: mu
Encoding: 181 181 118
Width: 1116
Flags: W
LayerCount: 2
Back
Fore
SplineSet
358 1082 m 1,0,-1
 253 448 l 1,1,-1
 247 368 l 1,2,-1
 247 321 l 1,3,4
 256 87 256 87 439 80 c 0,5,6
 561 76 561 76 657.5 138.5 c 128,-1,7
 754 201 754 201 784 311 c 1,8,-1
 916 1082 l 1,9,-1
 1035 1082 l 1,10,-1
 847 0 l 1,11,-1
 739 0 l 1,12,-1
 766 154 l 1,13,14
 645 -24 645 -24 441 -20 c 0,15,16
 265 -15 265 -15 192 106 c 1,17,-1
 98 -416 l 1,18,-1
 -20 -416 l 1,19,-1
 240 1082 l 1,20,-1
 358 1082 l 1,0,-1
EndSplineSet
EndChar

StartChar: paragraph
Encoding: 182 182 119
Width: 954
Flags: W
LayerCount: 2
Back
Fore
SplineSet
566 0 m 1,0,-1
 657 520 l 1,1,-1
 574 521 l 2,2,3
 362 523 362 523 249.5 650 c 128,-1,4
 137 777 137 777 159 980 c 0,5,6
 182 1195 182 1195 334.5 1326 c 128,-1,7
 487 1457 487 1457 710 1457 c 2,8,-1
 938 1456 l 1,9,-1
 685 0 l 1,10,-1
 566 0 l 1,0,-1
EndSplineSet
EndChar

StartChar: periodcentered
Encoding: 183 183 120
Width: 498
Flags: W
LayerCount: 2
Back
Fore
SplineSet
178 717 m 0,0,1
 180 752 180 752 205 776 c 128,-1,2
 230 800 230 800 265 801 c 0,3,4
 302 801 302 801 324.5 777 c 128,-1,5
 347 753 347 753 345 717 c 0,6,7
 342 682 342 682 316.5 658.5 c 128,-1,8
 291 635 291 635 256 634 c 0,9,10
 220 633 220 633 197.5 657 c 128,-1,11
 175 681 175 681 178 717 c 0,0,1
EndSplineSet
EndChar

StartChar: cedilla
Encoding: 184 184 121
Width: 493
Flags: W
LayerCount: 2
Back
Fore
SplineSet
131 0 m 1,0,-1
 109 -66 l 1,1,2
 250 -92 250 -92 244 -228 c 0,3,4
 239 -326 239 -326 154.5 -380 c 128,-1,5
 70 -434 70 -434 -75 -437 c 1,6,-1
 -74 -358 l 1,7,8
 22 -355 22 -355 79.5 -322 c 128,-1,9
 137 -289 137 -289 145 -231 c 0,10,11
 154 -152 154 -152 51 -134 c 2,12,-1
 -4 -126 l 1,13,-1
 41 0 l 1,14,-1
 131 0 l 1,0,-1
EndSplineSet
EndChar

StartChar: uni00B9
Encoding: 185 185 122
Width: 728
Flags: W
LayerCount: 2
Back
Fore
SplineSet
463 669 m 1,0,-1
 358 669 l 1,1,-1
 473 1329 l 1,2,-1
 235 1260 l 1,3,-1
 252 1354 l 1,4,-1
 580 1459 l 1,5,-1
 597 1459 l 1,6,-1
 463 669 l 1,0,-1
EndSplineSet
EndChar

StartChar: ordmasculine
Encoding: 186 186 123
Width: 904
Flags: W
LayerCount: 2
Back
Fore
SplineSet
585 1477 m 0,0,1
 720 1473 720 1473 794 1376.5 c 128,-1,2
 868 1280 868 1280 855 1132 c 2,3,-1
 845 1033 l 2,4,5
 826 879 826 879 727.5 782 c 128,-1,6
 629 685 629 685 485 689 c 0,7,8
 350 693 350 693 276 788.5 c 128,-1,9
 202 884 202 884 213 1033 c 1,10,-1
 222 1121 l 2,11,12
 239 1284 239 1284 340.5 1382.5 c 128,-1,13
 442 1481 442 1481 585 1477 c 0,0,1
323 1031 m 2,14,15
 311 920 311 920 356 853 c 128,-1,16
 401 786 401 786 491 784 c 0,17,18
 587 780 587 780 654.5 850 c 128,-1,19
 722 920 722 920 737 1042 c 2,20,-1
 748 1133 l 2,21,22
 758 1243 758 1243 713 1310.5 c 128,-1,23
 668 1378 668 1378 579 1381 c 0,24,25
 479 1383 479 1383 412.5 1311.5 c 128,-1,26
 346 1240 346 1240 333 1123 c 2,27,-1
 323 1031 l 2,14,15
EndSplineSet
EndChar

StartChar: questiondown
Encoding: 191 191 128
Width: 922
Flags: W
LayerCount: 2
Back
Fore
SplineSet
554 688 m 1,0,1
 539 580 539 580 497.5 506.5 c 128,-1,2
 456 433 456 433 372 359 c 128,-1,3
 288 285 288 285 267 265 c 0,4,5
 125 131 125 131 109 -17 c 0,6,7
 96 -136 96 -136 151 -206.5 c 128,-1,8
 206 -277 206 -277 315 -279 c 0,9,10
 425 -283 425 -283 504 -215 c 128,-1,11
 583 -147 583 -147 610 -21 c 1,12,-1
 727 -20 l 1,13,14
 702 -190 702 -190 588 -289 c 128,-1,15
 474 -388 474 -388 307 -384 c 0,16,17
 145 -380 145 -380 59 -277 c 128,-1,18
 -27 -174 -27 -174 -11 -18 c 0,19,20
 7 174 7 174 198 349 c 1,21,-1
 336 469 l 1,22,23
 415 547 415 547 439 687 c 1,24,-1
 554 688 l 1,0,1
632 1022 m 0,25,26
 630 988 630 988 604 964 c 128,-1,27
 578 940 578 940 547 940 c 0,28,29
 512 939 512 939 490 963 c 128,-1,30
 468 987 468 987 470 1022 c 0,31,32
 473 1055 473 1055 498 1078 c 128,-1,33
 523 1101 523 1101 556 1102 c 0,34,35
 590 1103 590 1103 612.5 1080 c 128,-1,36
 635 1057 635 1057 632 1022 c 0,25,26
EndSplineSet
EndChar

StartChar: AE
Encoding: 198 198 129
Width: 1819
Flags: W
LayerCount: 2
Back
Fore
SplineSet
1666 0 m 1,0,-1
 871 0 l 1,1,-1
 922 389 l 1,2,-1
 350 389 l 1,3,-1
 59 0 l 1,4,-1
 -93 0 l 1,5,-1
 1015 1456 l 1,6,-1
 1859 1456 l 1,7,-1
 1841 1354 l 1,8,-1
 1168 1354 l 1,9,-1
 1096 809 l 1,10,-1
 1668 809 l 1,11,-1
 1650 707 l 1,12,-1
 1082 707 l 1,13,-1
 1002 101 l 1,14,-1
 1684 101 l 1,15,-1
 1666 0 l 1,0,-1
434 502 m 1,16,-1
 938 502 l 1,17,-1
 1047 1320 l 1,18,-1
 434 502 l 1,16,-1
EndSplineSet
EndChar

StartChar: multiply
Encoding: 215 215 130
Width: 1050
Flags: W
LayerCount: 2
Back
Fore
SplineSet
17 184 m 1,0,-1
 428 550 l 1,1,-1
 155 900 l 1,2,-1
 242 975 l 1,3,-1
 512 625 l 1,4,-1
 906 974 l 1,5,-1
 974 888 l 1,6,-1
 580 539 l 1,7,-1
 865 173 l 1,8,-1
 779 99 l 1,9,-1
 495 463 l 1,10,-1
 85 100 l 1,11,-1
 17 184 l 1,0,-1
EndSplineSet
EndChar

StartChar: Oslash
Encoding: 216 216 131
Width: 1354
Flags: W
LayerCount: 2
Back
Fore
SplineSet
575 -21 m 1,0,1
 397 -17 397 -17 281 77 c 1,2,-1
 153 -82 l 1,3,-1
 41 -82 l 1,4,-1
 218 136 l 1,5,6
 117 292 117 292 120 516 c 0,7,8
 121 613 121 613 157 823 c 128,-1,9
 193 1033 193 1033 301 1195 c 128,-1,10
 409 1357 409 1357 567 1427 c 0,11,12
 683 1479 683 1479 813 1476 c 0,13,14
 909 1474 909 1474 998 1440.5 c 128,-1,15
 1087 1407 1087 1407 1153 1336 c 1,16,-1
 1288 1504 l 1,17,-1
 1399 1504 l 1,18,-1
 1207 1267 l 1,19,20
 1255 1158 1255 1158 1265 1040 c 0,21,22
 1275 921 1275 921 1258 806 c 2,23,-1
 1236 663 l 2,24,25
 1203 449 1203 449 1107.5 291.5 c 128,-1,26
 1012 134 1012 134 876.5 55.5 c 128,-1,27
 741 -23 741 -23 582 -21 c 2,28,-1
 575 -21 l 1,0,1
241 544 m 1,29,30
 231 361 231 361 291 235 c 1,31,-1
 1081 1240 l 1,32,33
 988 1366 988 1366 808 1370 c 0,34,35
 601 1375 601 1375 459 1218.5 c 128,-1,36
 317 1062 317 1062 275 795 c 2,37,-1
 247 614 l 1,38,-1
 241 544 l 1,29,30
1151 986 m 0,39,40
 1151 1074 1151 1074 1127 1160 c 1,41,-1
 349 168 l 1,42,43
 437 91 437 91 582 86 c 0,44,45
 714 83 714 83 823 147 c 128,-1,46
 932 211 932 211 1009 343.5 c 128,-1,47
 1086 476 1086 476 1115 668 c 128,-1,48
 1144 860 1144 860 1147 901 c 128,-1,49
 1150 942 1150 942 1151 986 c 0,39,40
EndSplineSet
EndChar

StartChar: Thorn
Encoding: 222 222 132
Width: 1188
Flags: W
LayerCount: 2
Back
Fore
SplineSet
444 1456 m 1,0,-1
 391 1152 l 1,1,-1
 696 1151 l 2,2,3
 819 1148 819 1148 913.5 1097 c 128,-1,4
 1008 1046 1008 1046 1053.5 954 c 128,-1,5
 1099 862 1099 862 1088 745 c 0,6,7
 1076 617 1076 617 1006.5 521.5 c 128,-1,8
 937 426 937 426 822 374.5 c 128,-1,9
 707 323 707 323 568 323 c 2,10,-1
 248 324 l 1,11,-1
 191 0 l 1,12,-1
 72 0 l 1,13,-1
 325 1456 l 1,14,-1
 444 1456 l 1,0,-1
374 1051 m 1,15,-1
 265 425 l 1,16,-1
 572 424 l 2,17,18
 729 424 729 424 840 512.5 c 128,-1,19
 951 601 951 601 968 744 c 0,20,21
 984 878 984 878 907.5 962 c 128,-1,22
 831 1046 831 1046 694 1050 c 2,23,-1
 374 1051 l 1,15,-1
EndSplineSet
EndChar

StartChar: germandbls
Encoding: 223 223 133
Width: 1174
Flags: W
LayerCount: 2
Back
Fore
SplineSet
160 0 m 1,0,-1
 41 0 l 1,1,-1
 234 1127 l 1,2,3
 262 1327 262 1327 371 1438 c 128,-1,4
 480 1549 480 1549 645 1544 c 0,5,6
 785 1540 785 1540 866 1457 c 128,-1,7
 947 1374 947 1374 936 1246 c 0,8,9
 932 1199 932 1199 916.5 1157 c 128,-1,10
 901 1115 901 1115 845.5 1022.5 c 128,-1,11
 790 930 790 930 776 893.5 c 128,-1,12
 762 857 762 857 756 814 c 0,13,14
 748 756 748 756 776.5 701.5 c 128,-1,15
 805 647 805 647 879 573.5 c 128,-1,16
 953 500 953 500 985.5 440 c 128,-1,17
 1018 380 1018 380 1013 316 c 0,18,19
 1004 167 1004 167 885 71 c 128,-1,20
 766 -25 766 -25 603 -21 c 0,21,22
 523 -21 523 -21 441.5 0.5 c 128,-1,23
 360 22 360 22 308 62 c 1,24,-1
 354 161 l 1,25,26
 459 81 459 81 593 79 c 0,27,28
 710 77 710 77 796.5 143.5 c 128,-1,29
 883 210 883 210 896 315 c 0,30,31
 903 375 903 375 874 430.5 c 128,-1,32
 845 486 845 486 770.5 558 c 128,-1,33
 696 630 696 630 664 690.5 c 128,-1,34
 632 751 632 751 638 816 c 0,35,36
 643 865 643 865 661 908.5 c 128,-1,37
 679 952 679 952 726.5 1029 c 128,-1,38
 774 1106 774 1106 792.5 1148.5 c 128,-1,39
 811 1191 811 1191 817 1240 c 0,40,41
 827 1323 827 1323 780 1381.5 c 128,-1,42
 733 1440 733 1440 647 1444 c 0,43,44
 529 1449 529 1449 452 1367 c 128,-1,45
 375 1285 375 1285 352 1128 c 2,46,-1
 160 0 l 1,0,-1
EndSplineSet
Substitution2: "'c2sc' Capitals to Small Capitals in Cyrillic lookup 3 subtable" germandbls.c2sc
Substitution2: "'c2sc' Capitals to Small Capitals in Greek lookup 2 subtable" germandbls.c2sc
Substitution2: "'c2sc' Capitals to Small Capitals lookup 1 subtable" germandbls.c2sc
Substitution2: "'c2sc' Capitals to Small Capitals in Latin lookup 0 subtable" germandbls.c2sc
EndChar

StartChar: ae
Encoding: 230 230 134
Width: 1690
Flags: W
LayerCount: 2
Back
Fore
SplineSet
1134 -19 m 0,0,1
 1012 -17 1012 -17 918 37 c 128,-1,2
 824 91 824 91 781 186 c 1,3,4
 700 80 700 80 583.5 28.5 c 128,-1,5
 467 -23 467 -23 336 -20 c 0,6,7
 188 -18 188 -18 106 65.5 c 128,-1,8
 24 149 24 149 33 285 c 0,9,10
 45 449 45 449 174 541 c 128,-1,11
 303 633 303 633 510 633 c 2,12,-1
 765 632 l 1,13,-1
 777 721 l 2,14,15
 791 851 791 851 741 924 c 128,-1,16
 691 997 691 997 583 1001 c 0,17,18
 460 1003 460 1003 371.5 940.5 c 128,-1,19
 283 878 283 878 260 766 c 1,20,-1
 145 778 l 1,21,22
 165 927 165 927 289 1017 c 128,-1,23
 413 1107 413 1107 591 1102 c 0,24,25
 710 1100 710 1100 789.5 1043 c 128,-1,26
 869 986 869 986 890 890 c 1,27,28
 1055 1106 1055 1106 1277 1102 c 0,29,30
 1458 1098 1458 1098 1550.5 969.5 c 128,-1,31
 1643 841 1643 841 1618 638 c 1,32,-1
 1603 538 l 1,33,-1
 871 538 l 1,34,-1
 866 508 l 2,35,36
 855 431 855 431 863 356 c 0,37,38
 875 232 875 232 947.5 158.5 c 128,-1,39
 1020 85 1020 85 1139 82 c 0,40,41
 1308 78 1308 78 1470 199 c 1,42,-1
 1509 110 l 1,43,44
 1358 -23 1358 -23 1134 -19 c 0,0,1
358 80 m 0,45,46
 445 78 445 78 535.5 119 c 128,-1,47
 626 160 626 160 697 235 c 1,48,-1
 750 536 l 1,49,-1
 510 537 l 2,50,51
 366 537 366 537 265.5 467 c 128,-1,52
 165 397 165 397 153 281 c 0,53,54
 144 186 144 186 201 133 c 128,-1,55
 258 80 258 80 358 80 c 0,45,46
1269 1001 m 0,56,57
 1141 1004 1141 1004 1041.5 912.5 c 128,-1,58
 942 821 942 821 884 636 c 1,59,-1
 1499 636 l 1,60,61
 1513 729 1513 729 1504 791 c 0,62,63
 1489 888 1489 888 1427.5 943 c 128,-1,64
 1366 998 1366 998 1269 1001 c 0,56,57
EndSplineSet
EndChar

StartChar: eth
Encoding: 240 240 135
Width: 1165
Flags: W
LayerCount: 2
Back
Fore
SplineSet
912 1301 m 1,0,1
 1049 1085 1049 1085 1045 800 c 0,2,3
 1042 681 1042 681 1017.5 527 c 128,-1,4
 993 373 993 373 924.5 249 c 128,-1,5
 856 125 856 125 759 56 c 0,6,7
 645 -25 645 -25 506 -21 c 0,8,9
 383 -17 383 -17 292 46.5 c 128,-1,10
 201 110 201 110 157 220 c 128,-1,11
 113 330 113 330 125 458 c 0,12,13
 139 604 139 604 206.5 721.5 c 128,-1,14
 274 839 274 839 383 904.5 c 128,-1,15
 492 970 492 970 625 966 c 0,16,17
 713 964 713 964 793 928 c 128,-1,18
 873 892 873 892 927 821 c 1,19,20
 931 1059 931 1059 807 1239 c 1,21,-1
 563 1100 l 1,22,-1
 523 1179 l 1,23,-1
 744 1304 l 1,24,25
 634 1408 634 1408 441 1476 c 1,26,-1
 490 1577 l 1,27,28
 708 1504 708 1504 852 1367 c 1,29,-1
 1063 1488 l 1,30,-1
 1103 1409 l 1,31,-1
 912 1301 l 1,0,1
916 686 m 1,32,33
 884 770 884 770 810.5 815 c 128,-1,34
 737 860 737 860 639 862 c 0,35,36
 481 866 481 866 373.5 754.5 c 128,-1,37
 266 643 266 643 245 458 c 0,38,39
 227 304 227 304 302.5 195 c 128,-1,40
 378 86 378 86 516 82 c 0,41,42
 666 77 666 77 769 207.5 c 128,-1,43
 872 338 872 338 901 558 c 2,44,-1
 910 626 l 1,45,-1
 916 686 l 1,32,33
EndSplineSet
Substitution2: "'smcp' Lowercase to Small Capitals in Cyrillic lookup 7 subtable" Eth.c2sc
Substitution2: "'smcp' Lowercase to Small Capitals in Greek lookup 6 subtable" Eth.c2sc
Substitution2: "'smcp' Lowercase to Small Capitals lookup 5 subtable" Eth.c2sc
Substitution2: "'smcp' Lowercase to Small Capitals in Latin lookup 4 subtable" Eth.c2sc
EndChar

StartChar: divide
Encoding: 247 247 136
Width: 1139
Flags: W
LayerCount: 2
Back
Fore
SplineSet
1047 644 m 1,0,-1
 76 644 l 1,1,-1
 97 760 l 1,2,-1
 1068 760 l 1,3,-1
 1047 644 l 1,0,-1
564 1088 m 0,4,5
 566 1123 566 1123 591 1147 c 128,-1,6
 616 1171 616 1171 651 1172 c 0,7,8
 687 1173 687 1173 710.5 1148.5 c 128,-1,9
 734 1124 734 1124 731 1088 c 0,10,11
 728 1053 728 1053 702.5 1029.5 c 128,-1,12
 677 1006 677 1006 642 1005 c 0,13,14
 604 1005 604 1005 582 1029.5 c 128,-1,15
 560 1054 560 1054 564 1088 c 0,4,5
426 291 m 0,16,17
 428 326 428 326 453 350 c 128,-1,18
 478 374 478 374 513 375 c 0,19,20
 549 376 549 376 572.5 351.5 c 128,-1,21
 596 327 596 327 593 291 c 0,22,23
 590 256 590 256 564.5 233 c 128,-1,24
 539 210 539 210 504 209 c 128,-1,25
 469 208 469 208 446 231.5 c 128,-1,26
 423 255 423 255 426 291 c 0,16,17
EndSplineSet
EndChar

StartChar: oslash
Encoding: 248 248 137
Width: 1116
Flags: W
LayerCount: 2
Back
Fore
SplineSet
631 1104 m 0,0,1
 741 1100 741 1100 833 1054 c 1,2,-1
 940 1214 l 1,3,-1
 1040 1213 l 1,4,-1
 901 1008 l 1,5,6
 1015 883 1015 883 1021 680 c 0,7,8
 1024 475 1024 475 953 315.5 c 128,-1,9
 882 156 882 156 750 65.5 c 128,-1,10
 618 -25 618 -25 459 -22 c 0,11,12
 361 -21 361 -21 269 21 c 1,13,-1
 161 -140 l 1,14,-1
 61 -139 l 1,15,-1
 198 65 l 1,16,17
 76 187 76 187 69 396 c 0,18,19
 63 592 63 592 134 756.5 c 128,-1,20
 205 921 205 921 337.5 1014 c 128,-1,21
 470 1107 470 1107 631 1104 c 0,0,1
184 425 m 0,22,23
 181 262 181 262 257 164 c 1,24,-1
 775 960 l 1,25,26
 704 1002 704 1002 625 1003 c 0,27,28
 502 1006 502 1006 401.5 930.5 c 128,-1,29
 301 855 301 855 244 720.5 c 128,-1,30
 187 586 187 586 184 425 c 0,22,23
905 649 m 0,31,32
 908 800 908 800 840 904 c 1,33,-1
 324 112 l 1,34,35
 389 80 389 80 464 78 c 0,36,37
 649 74 649 74 774 235 c 128,-1,38
 899 396 899 396 905 649 c 0,31,32
EndSplineSet
EndChar

StartChar: thorn
Encoding: 254 254 138
Width: 1126
Flags: W
LayerCount: 2
Back
Fore
SplineSet
504 -21 m 0,0,1
 411 -19 411 -19 329 18.5 c 128,-1,2
 247 56 247 56 196 136 c 1,3,-1
 96 -416 l 1,4,-1
 -23 -416 l 1,5,-1
 316 1536 l 1,6,-1
 435 1536 l 1,7,-1
 323 932 l 1,8,9
 463 1108 463 1108 672 1102 c 0,10,11
 828 1098 828 1098 912 986 c 128,-1,12
 996 874 996 874 998 680 c 0,13,14
 998 617 998 617 992 558 c 2,15,-1
 990 542 l 2,16,17
 954 279 954 279 825 126 c 0,18,19
 696 -26 696 -26 504 -21 c 0,0,1
873 558 m 1,20,-1
 879 653 l 1,21,22
 882 813 882 813 821.5 904 c 128,-1,23
 761 995 761 995 640 999 c 0,24,25
 535 1001 535 1001 449.5 947.5 c 128,-1,26
 364 894 364 894 305 792 c 1,27,-1
 216 269 l 1,28,29
 248 178 248 178 317.5 130 c 128,-1,30
 387 82 387 82 484 80 c 0,31,32
 635 75 635 75 737 196 c 128,-1,33
 839 317 839 317 873 558 c 1,20,-1
EndSplineSet
EndChar

StartChar: Hbar
Encoding: 294 294 139
Width: 1379
Flags: W
LayerCount: 2
Back
Fore
SplineSet
1294 1122 m 1,0,-1
 1435 1122 l 1,1,-1
 1418 1026 l 1,2,-1
 1277 1026 l 1,3,-1
 1099 0 l 1,4,-1
 977 0 l 1,5,-1
 1099 698 l 1,6,-1
 294 698 l 1,7,-1
 173 0 l 1,8,-1
 51 0 l 1,9,-1
 229 1026 l 1,10,-1
 96 1026 l 1,11,-1
 113 1122 l 1,12,-1
 245 1122 l 1,13,-1
 304 1456 l 1,14,-1
 426 1456 l 1,15,-1
 367 1122 l 1,16,-1
 1172 1122 l 1,17,-1
 1230 1456 l 1,18,-1
 1352 1456 l 1,19,-1
 1294 1122 l 1,0,-1
312 802 m 1,20,-1
 1116 802 l 1,21,-1
 1156 1026 l 1,22,-1
 351 1026 l 1,23,-1
 312 802 l 1,20,-1
EndSplineSet
EndChar

StartChar: dotlessi
Encoding: 305 305 140
Width: 452
Flags: W
LayerCount: 2
Back
Fore
SplineSet
177 0 m 1,0,-1
 57 0 l 1,1,-1
 246 1082 l 1,2,-1
 365 1082 l 1,3,-1
 177 0 l 1,0,-1
EndSplineSet
Substitution2: "'smcp' Lowercase to Small Capitals in Cyrillic lookup 7 subtable" Idotaccent.c2sc
Substitution2: "'smcp' Lowercase to Small Capitals in Greek lookup 6 subtable" Idotaccent.c2sc
Substitution2: "'smcp' Lowercase to Small Capitals lookup 5 subtable" Idotaccent.c2sc
Substitution2: "'smcp' Lowercase to Small Capitals in Latin lookup 4 subtable" Idotaccent.c2sc
EndChar

StartChar: kgreenlandic
Encoding: 312 312 141
Width: 1088
Flags: W
LayerCount: 2
Back
Fore
SplineSet
394 496 m 1,0,-1
 258 496 l 1,1,-1
 172 0 l 1,2,-1
 52 0 l 1,3,-1
 240 1082 l 1,4,-1
 360 1082 l 1,5,-1
 276 602 l 1,6,-1
 399 602 l 1,7,-1
 912 1082 l 1,8,-1
 1066 1082 l 1,9,-1
 503 549 l 1,10,-1
 917 0 l 1,11,-1
 778 0 l 1,12,-1
 394 496 l 1,0,-1
EndSplineSet
EndChar

StartChar: Lslash
Encoding: 321 321 142
Width: 1060
Flags: W
LayerCount: 2
Back
Fore
SplineSet
334 820 m 1,0,-1
 650 916 l 1,1,-1
 633 822 l 1,2,-1
 318 725 l 1,3,-1
 210 104 l 1,4,-1
 907 104 l 1,5,-1
 889 0 l 1,6,-1
 69 0 l 1,7,-1
 188 684 l 1,8,-1
 25 635 l 1,9,-1
 41 729 l 1,10,-1
 204 779 l 1,11,-1
 322 1456 l 1,12,-1
 445 1456 l 1,13,-1
 334 820 l 1,0,-1
EndSplineSet
EndChar

StartChar: lslash
Encoding: 322 322 143
Width: 523
Flags: W
LayerCount: 2
Back
Fore
SplineSet
362 864 m 1,0,-1
 549 933 l 1,1,-1
 531 836 l 1,2,-1
 346 767 l 1,3,-1
 213 0 l 1,4,-1
 93 0 l 1,5,-1
 218 718 l 1,6,-1
 31 649 l 1,7,-1
 48 746 l 1,8,-1
 235 815 l 1,9,-1
 360 1536 l 1,10,-1
 480 1536 l 1,11,-1
 362 864 l 1,0,-1
EndSplineSet
EndChar

StartChar: Eng
Encoding: 330 330 144
Width: 1401
Flags: W
LayerCount: 2
Back
Fore
SplineSet
1370 1456 m 1,0,-1
 1106 -86 l 1,1,2
 1083 -254 1083 -254 990 -348.5 c 128,-1,3
 897 -443 897 -443 754 -439 c 0,4,5
 700 -437 700 -437 638 -418 c 1,6,-1
 662 -317 l 1,7,8
 717 -336 717 -336 760 -336 c 0,9,10
 846 -338 846 -338 905 -274 c 128,-1,11
 964 -210 964 -210 983 -85 c 2,12,-1
 996 0 l 1,13,-1
 410 1252 l 1,14,-1
 192 0 l 1,15,-1
 70 0 l 1,16,-1
 323 1456 l 1,17,-1
 441 1456 l 1,18,-1
 1029 205 l 1,19,-1
 1247 1456 l 1,20,-1
 1370 1456 l 1,0,-1
EndSplineSet
EndChar

StartChar: eng
Encoding: 331 331 145
Width: 1116
Flags: W
LayerCount: 2
Back
Fore
SplineSet
341 1082 m 1,0,-1
 312 898 l 1,1,2
 376 993 376 993 466.5 1049 c 128,-1,3
 557 1105 557 1105 676 1102 c 0,4,5
 803 1099 803 1099 876 1025.5 c 128,-1,6
 949 952 949 952 962 820 c 0,7,8
 969 741 969 741 959 659 c 2,9,-1
 838 -89 l 1,10,11
 815 -257 815 -257 724 -349.5 c 128,-1,12
 633 -442 633 -442 489 -440 c 0,13,14
 433 -438 433 -438 361 -418 c 1,15,-1
 387 -316 l 1,16,17
 442 -333 442 -333 495 -333 c 0,18,19
 580 -335 580 -335 638 -275.5 c 128,-1,20
 696 -216 696 -216 716 -102 c 2,21,-1
 840 659 l 2,22,23
 847 719 847 719 845 779 c 0,24,25
 834 994 834 994 644 999 c 0,26,27
 422 1006 422 1006 299 775 c 1,28,-1
 166 0 l 1,29,-1
 47 0 l 1,30,-1
 235 1082 l 1,31,-1
 341 1082 l 1,0,-1
EndSplineSet
EndChar

StartChar: OE
Encoding: 338 338 146
Width: 1866
Flags: W
LayerCount: 2
Back
Fore
SplineSet
1651 0 m 1,0,-1
 839 0 l 1,1,-1
 601 -19 l 1,2,-1
 535 -19 l 1,3,4
 386 -15 386 -15 281.5 64 c 128,-1,5
 177 143 177 143 131.5 279.5 c 128,-1,6
 86 416 86 416 108 576 c 2,7,-1
 156 875 l 2,8,9
 201 1155 201 1155 370 1317 c 128,-1,10
 539 1479 539 1479 773 1477 c 2,11,-1
 853 1475 l 1,12,-1
 1076 1456 l 1,13,-1
 1899 1456 l 1,14,-1
 1881 1351 l 1,15,-1
 1126 1351 l 1,16,-1
 1031 802 l 1,17,-1
 1692 802 l 1,18,-1
 1673 698 l 1,19,-1
 1013 698 l 1,20,-1
 910 104 l 1,21,-1
 1670 104 l 1,22,-1
 1651 0 l 1,0,-1
540 83 m 0,23,24
 640 80 640 80 783 94 c 1,25,-1
 1006 1361 l 1,26,27
 888 1377 888 1377 770 1377 c 0,28,29
 578 1379 578 1379 445 1242.5 c 128,-1,30
 312 1106 312 1106 275 869 c 2,31,-1
 229 575 l 2,32,33
 218 488 218 488 227 402 c 0,34,35
 242 257 242 257 324 172 c 128,-1,36
 406 87 406 87 540 83 c 0,23,24
EndSplineSet
Substitution2: "'c2sc' Capitals to Small Capitals in Cyrillic lookup 3 subtable" OE.c2sc
Substitution2: "'c2sc' Capitals to Small Capitals in Greek lookup 2 subtable" OE.c2sc
Substitution2: "'c2sc' Capitals to Small Capitals lookup 1 subtable" OE.c2sc
Substitution2: "'c2sc' Capitals to Small Capitals in Latin lookup 0 subtable" OE.c2sc
Position2: "'cpsp' Capital Spacing in Cyrillic lookup 3 subtable" dx=36 dy=0 dh=72 dv=0
Position2: "'cpsp' Capital Spacing in Greek lookup 2 subtable" dx=36 dy=0 dh=72 dv=0
Position2: "'cpsp' Capital Spacing lookup 1 subtable" dx=36 dy=0 dh=72 dv=0
Position2: "'cpsp' Capital Spacing in Latin lookup 0 subtable" dx=36 dy=0 dh=72 dv=0
EndChar

StartChar: oe
Encoding: 339 339 147
Width: 1845
Flags: W
LayerCount: 2
Back
Fore
SplineSet
635 1102 m 0,0,1
 772 1098 772 1098 870 1024.5 c 128,-1,2
 968 951 968 951 1003 830 c 1,3,4
 1088 964 1088 964 1199 1034.5 c 128,-1,5
 1310 1105 1310 1105 1434 1103 c 0,6,7
 1617 1097 1617 1097 1710 967 c 128,-1,8
 1803 837 1803 837 1779 640 c 1,9,-1
 1764 538 l 1,10,-1
 1026 538 l 1,11,12
 1010 440 1010 440 1019 364 c 0,13,14
 1033 238 1033 238 1102 162 c 128,-1,15
 1171 86 1171 86 1281 82 c 0,16,17
 1468 76 1468 76 1617 199 c 1,18,-1
 1660 117 l 1,19,20
 1514 -23 1514 -23 1277 -19 c 0,21,22
 1153 -17 1153 -17 1053 55.5 c 128,-1,23
 953 128 953 128 917 247 c 1,24,25
 834 114 834 114 717.5 44.5 c 128,-1,26
 601 -25 601 -25 466 -21 c 0,27,28
 333 -17 333 -17 241.5 53.5 c 128,-1,29
 150 124 150 124 109 248 c 128,-1,30
 68 372 68 372 84 517 c 2,31,-1
 86 535 l 2,32,33
 117 793 117 793 268.5 950 c 128,-1,34
 420 1107 420 1107 635 1102 c 0,0,1
200 417 m 0,35,36
 203 265 203 265 275 174.5 c 128,-1,37
 347 84 347 84 473 80 c 0,38,39
 604 76 604 76 707.5 160.5 c 128,-1,40
 811 245 811 245 863.5 398.5 c 128,-1,41
 916 552 916 552 899 709 c 0,42,43
 883 843 883 843 812.5 920 c 128,-1,44
 742 997 742 997 628 1001 c 0,45,46
 507 1005 507 1005 409 932 c 128,-1,47
 311 859 311 859 253 720 c 128,-1,48
 195 581 195 581 200 417 c 0,35,36
1427 1001 m 0,49,50
 1298 1004 1298 1004 1196.5 908 c 128,-1,51
 1095 812 1095 812 1040 639 c 1,52,-1
 1660 639 l 1,53,-1
 1665 670 l 1,54,55
 1683 811 1683 811 1616.5 904 c 128,-1,56
 1550 997 1550 997 1427 1001 c 0,49,50
EndSplineSet
Substitution2: "'smcp' Lowercase to Small Capitals in Cyrillic lookup 7 subtable" OE.c2sc
Substitution2: "'smcp' Lowercase to Small Capitals in Greek lookup 6 subtable" OE.c2sc
Substitution2: "'smcp' Lowercase to Small Capitals lookup 5 subtable" OE.c2sc
Substitution2: "'smcp' Lowercase to Small Capitals in Latin lookup 4 subtable" OE.c2sc
EndChar

StartChar: longs
Encoding: 383 383 148
Width: 461
Flags: W
LayerCount: 2
Back
Fore
SplineSet
57 0 m 1,0,-1
 263 1215 l 1,1,2
 285 1377 285 1377 378 1469.5 c 128,-1,3
 471 1562 471 1562 617 1560 c 0,4,5
 667 1559 667 1559 757 1538 c 1,6,-1
 730 1443 l 1,7,8
 681 1457 681 1457 626 1459 c 0,9,10
 526 1459 526 1459 462 1392 c 128,-1,11
 398 1325 398 1325 383 1217 c 2,12,-1
 175 0 l 1,13,-1
 57 0 l 1,0,-1
EndSplineSet
EndChar

StartChar: uni018F
Encoding: 399 399 149
Width: 1400
Flags: W
LayerCount: 2
Back
Fore
SplineSet
613 -20 m 0,0,1
 444 -18 444 -18 325 64 c 128,-1,2
 206 146 206 146 156 290.5 c 128,-1,3
 106 435 106 435 131 614 c 2,4,-1
 150 738 l 1,5,-1
 1179 738 l 1,6,-1
 1192 806 l 2,7,8
 1209 913 1209 913 1197 1014 c 0,9,10
 1177 1177 1177 1177 1075.5 1271.5 c 128,-1,11
 974 1366 974 1366 810 1369 c 0,12,13
 600 1373 600 1373 389 1250 c 1,14,-1
 360 1343 l 1,15,16
 444 1408 444 1408 559.5 1442.5 c 128,-1,17
 675 1477 675 1477 813 1475 c 0,18,19
 990 1473 990 1473 1112.5 1386.5 c 128,-1,20
 1235 1300 1235 1300 1288 1147 c 128,-1,21
 1341 994 1341 994 1315 805 c 2,22,-1
 1294 665 l 2,23,24
 1264 478 1264 478 1165.5 314 c 128,-1,25
 1067 150 1067 150 924 63.5 c 128,-1,26
 781 -23 781 -23 613 -20 c 0,0,1
619 84 m 0,27,28
 750 81 750 81 859 146.5 c 128,-1,29
 968 212 968 212 1048.5 341.5 c 128,-1,30
 1129 471 1129 471 1169 637 c 1,31,-1
 259 637 l 1,32,-1
 250 583 l 2,33,34
 234 484 234 484 249 394 c 0,35,36
 273 252 273 252 370.5 170 c 128,-1,37
 468 88 468 88 619 84 c 0,27,28
EndSplineSet
EndChar

StartChar: florin
Encoding: 402 402 150
Width: 660
Flags: W
LayerCount: 2
Back
Fore
SplineSet
643 984 m 1,0,-1
 407 984 l 1,1,-1
 243 -89 l 1,2,3
 222 -257 222 -257 132 -349.5 c 128,-1,4
 42 -442 42 -442 -98 -440 c 0,5,6
 -141 -440 -141 -440 -211 -420 c 1,7,-1
 -189 -320 l 1,8,9
 -143 -336 -143 -336 -95 -338 c 0,10,11
 -9 -340 -9 -340 49 -273 c 128,-1,12
 107 -206 107 -206 123 -89 c 2,13,-1
 288 984 l 1,14,-1
 113 984 l 1,15,-1
 128 1082 l 1,16,-1
 303 1082 l 1,17,-1
 319 1209 l 2,18,19
 340 1378 340 1378 432.5 1469.5 c 128,-1,20
 525 1561 525 1561 669 1559 c 0,21,22
 716 1559 716 1559 808 1538 c 1,23,-1
 783 1440 l 1,24,25
 729 1455 729 1455 675 1455 c 0,26,27
 580 1455 580 1455 517.5 1392 c 128,-1,28
 455 1329 455 1329 439 1208 c 2,29,-1
 422 1082 l 1,30,-1
 659 1082 l 1,31,-1
 643 984 l 1,0,-1
EndSplineSet
EndChar

StartChar: Ohorn
Encoding: 416 416 151
Width: 1395
Flags: W
LayerCount: 2
Back
Fore
SplineSet
583 -20 m 0,0,1
 380 -16 380 -16 260.5 121.5 c 128,-1,2
 141 259 141 259 131 489 c 0,3,4
 127 574 127 574 139 656 c 2,5,-1
 160 797 l 2,6,7
 190 999 190 999 285 1158.5 c 128,-1,8
 380 1318 380 1318 517 1398.5 c 128,-1,9
 654 1479 654 1479 820 1476 c 0,10,11
 938 1474 938 1474 1038.5 1424.5 c 128,-1,12
 1139 1375 1139 1375 1205 1276 c 1,13,14
 1316 1286 1316 1286 1378 1353 c 128,-1,15
 1440 1420 1440 1420 1464 1564 c 1,16,-1
 1571 1565 l 1,17,18
 1548 1392 1548 1392 1468.5 1301.5 c 128,-1,19
 1389 1211 1389 1211 1249 1188 c 1,20,21
 1272 1093 1272 1093 1276 998 c 0,22,23
 1279 894 1279 894 1264 799 c 2,24,-1
 1242 662 l 2,25,26
 1191 346 1191 346 1016 160.5 c 128,-1,27
 841 -25 841 -25 583 -20 c 0,0,1
1152 937 m 0,28,29
 1152 1137 1152 1137 1063.5 1250.5 c 128,-1,30
 975 1364 975 1364 813 1368 c 0,31,32
 681 1371 681 1371 571.5 1305.5 c 128,-1,33
 462 1240 462 1240 385.5 1107 c 128,-1,34
 309 974 309 974 282.5 798.5 c 128,-1,35
 256 623 256 623 253.5 590.5 c 128,-1,36
 251 558 251 558 251 521 c 0,37,38
 251 397 251 397 290 296.5 c 128,-1,39
 329 196 329 196 405.5 143 c 128,-1,40
 482 90 482 90 590 87 c 0,41,42
 794 82 794 82 932.5 229.5 c 128,-1,43
 1071 377 1071 377 1116 631 c 0,44,45
 1152 836 1152 836 1152 937 c 0,28,29
EndSplineSet
EndChar

StartChar: ohorn
Encoding: 417 417 152
Width: 1122
Flags: W
LayerCount: 2
Back
Fore
SplineSet
635 1102 m 0,0,1
 833 1098 833 1098 951 956 c 1,2,3
 1043 968 1043 968 1090 1020.5 c 128,-1,4
 1137 1073 1137 1073 1157 1197 c 1,5,-1
 1257 1198 l 1,6,7
 1239 1053 1239 1053 1175.5 976.5 c 128,-1,8
 1112 900 1112 900 998 877 c 1,9,10
 1022 799 1022 799 1027 720 c 0,11,12
 1037 513 1037 513 967 340.5 c 128,-1,13
 897 168 897 168 763.5 71.5 c 128,-1,14
 630 -25 630 -25 466 -21 c 0,15,16
 332 -17 332 -17 239.5 53 c 128,-1,17
 147 123 147 123 105 247.5 c 128,-1,18
 63 372 63 372 79 517 c 2,19,-1
 81 535 l 2,20,21
 112 791 112 791 266 949 c 128,-1,22
 420 1107 420 1107 635 1102 c 0,0,1
197 516 m 0,23,24
 177 326 177 326 250.5 205.5 c 128,-1,25
 324 85 324 85 473 80 c 0,26,27
 603 76 603 76 709 161.5 c 128,-1,28
 815 247 815 247 867.5 399.5 c 128,-1,29
 920 552 920 552 902 710 c 0,30,31
 887 841 887 841 814.5 919 c 128,-1,32
 742 997 742 997 627 1001 c 0,33,34
 461 1006 461 1006 342 872 c 128,-1,35
 223 738 223 738 197 516 c 0,23,24
EndSplineSet
EndChar

StartChar: Uhorn
Encoding: 431 431 153
Width: 1362
Flags: W
LayerCount: 2
Back
Fore
SplineSet
1306 1456 m 1,0,-1
 1270 1242 l 1,1,2
 1384 1254 1384 1254 1447 1320.5 c 128,-1,3
 1510 1387 1510 1387 1535 1543 c 1,4,-1
 1637 1544 l 1,5,6
 1610 1348 1610 1348 1518 1255 c 128,-1,7
 1426 1162 1426 1162 1256 1151 c 1,8,-1
 1137 469 l 1,9,10
 1103 243 1103 243 945.5 108.5 c 128,-1,11
 788 -26 788 -26 561 -20 c 0,12,13
 421 -17 421 -17 318.5 44 c 128,-1,14
 216 105 216 105 169.5 216 c 128,-1,15
 123 327 123 327 140 469 c 1,16,-1
 309 1456 l 1,17,-1
 430 1456 l 1,18,-1
 262 468 l 1,19,20
 241 298 241 298 324 193.5 c 128,-1,21
 407 89 407 89 569 83 c 0,22,23
 746 79 746 79 866.5 184.5 c 128,-1,24
 987 290 987 290 1014 469 c 2,25,-1
 1183 1456 l 1,26,-1
 1306 1456 l 1,0,-1
EndSplineSet
EndChar

StartChar: uhorn
Encoding: 432 432 154
Width: 1174
Flags: W
LayerCount: 2
Back
Fore
SplineSet
1315 1179 m 1,0,1
 1296 1026 1296 1026 1224 950.5 c 128,-1,2
 1152 875 1152 875 1004 865 c 1,3,-1
 851 0 l 1,4,-1
 735 0 l 1,5,-1
 764 136 l 1,6,7
 634 -26 634 -26 409 -20 c 0,8,9
 255 -17 255 -17 180 90.5 c 128,-1,10
 105 198 105 198 126 389 c 1,11,-1
 242 1082 l 1,12,-1
 360 1082 l 1,13,-1
 244 386 l 2,14,15
 238 331 238 331 243 278 c 0,16,17
 250 188 250 188 298 137 c 128,-1,18
 346 86 346 86 432 83 c 0,19,20
 548 79 548 79 650.5 138 c 128,-1,21
 753 197 753 197 784 298 c 1,22,-1
 919 1082 l 1,23,-1
 1039 1082 l 1,24,-1
 1013 947 l 1,25,26
 1104 955 1104 955 1151 1001.5 c 128,-1,27
 1198 1048 1198 1048 1221 1178 c 1,28,-1
 1315 1179 l 1,0,1
EndSplineSet
EndChar

StartChar: uni0237
Encoding: 567 567 155
Width: 464
Flags: W
LayerCount: 2
Back
Fore
SplineSet
375 1082 m 1,0,-1
 176 -89 l 1,1,2
 152 -260 152 -260 60.5 -351.5 c 128,-1,3
 -31 -443 -31 -443 -169 -441 c 0,4,5
 -223 -439 -223 -439 -283 -420 c 1,6,-1
 -262 -320 l 1,7,8
 -213 -337 -213 -337 -165 -339 c 0,9,10
 -81 -341 -81 -341 -22.5 -278.5 c 128,-1,11
 36 -216 36 -216 57 -90 c 2,12,-1
 256 1082 l 1,13,-1
 375 1082 l 1,0,-1
EndSplineSet
EndChar

StartChar: uni0259
Encoding: 601 601 156
Width: 1033
Flags: W
LayerCount: 2
Back
Fore
SplineSet
578 1101 m 0,0,1
 706 1097 706 1097 796.5 1027 c 128,-1,2
 887 957 887 957 928.5 835.5 c 128,-1,3
 970 714 970 714 955 572 c 2,4,-1
 951 541 l 2,5,6
 919 291 919 291 770 133 c 128,-1,7
 621 -25 621 -25 423 -20 c 0,8,9
 241 -14 241 -14 146.5 114 c 128,-1,10
 52 242 52 242 76 441 c 1,11,-1
 91 543 l 1,12,-1
 831 543 l 1,13,-1
 836 573 l 2,14,15
 846 643 846 643 838 718 c 0,16,17
 822 846 822 846 753 921 c 128,-1,18
 684 996 684 996 574 1000 c 0,19,20
 388 1006 388 1006 239 881 c 1,21,-1
 197 965 l 1,22,23
 343 1105 343 1105 578 1101 c 0,0,1
430 80 m 0,24,25
 557 77 557 77 657.5 171 c 128,-1,26
 758 265 758 265 815 441 c 1,27,-1
 196 441 l 1,28,-1
 191 411 l 2,29,30
 171 272 171 272 238.5 178 c 128,-1,31
 306 84 306 84 430 80 c 0,24,25
EndSplineSet
EndChar

StartChar: circumflex
Encoding: 710 710 157
Width: 864
Flags: W
LayerCount: 2
Back
Fore
SplineSet
812 1269 m 1,0,-1
 811 1257 l 1,1,-1
 703 1258 l 1,2,-1
 574 1439 l 1,3,-1
 380 1259 l 1,4,-1
 270 1258 l 1,5,-1
 271 1272 l 1,6,-1
 541 1526 l 1,7,-1
 614 1526 l 1,8,-1
 812 1269 l 1,0,-1
EndSplineSet
EndChar

StartChar: caron
Encoding: 711 711 158
Width: 821
Flags: W
LayerCount: 2
Back
Fore
SplineSet
525 1328 m 1,0,-1
 727 1519 l 1,1,-1
 833 1520 l 1,2,-1
 833 1507 l 1,3,-1
 564 1247 l 1,4,-1
 478 1247 l 1,5,-1
 289 1508 l 1,6,-1
 290 1521 l 1,7,-1
 395 1520 l 1,8,-1
 525 1328 l 1,0,-1
EndSplineSet
EndChar

StartChar: breve
Encoding: 728 728 160
Width: 849
Flags: W
LayerCount: 2
Back
Fore
SplineSet
834 1491 m 1,0,1
 820 1369 820 1369 736 1299 c 128,-1,2
 652 1229 652 1229 531 1233 c 0,3,4
 413 1235 413 1235 342 1305.5 c 128,-1,5
 271 1376 271 1376 277 1491 c 1,6,-1
 378 1490 l 1,7,8
 373 1411 373 1411 412.5 1365.5 c 128,-1,9
 452 1320 452 1320 533 1318 c 0,10,11
 618 1317 618 1317 670 1363 c 128,-1,12
 722 1409 722 1409 737 1489 c 1,13,-1
 834 1491 l 1,0,1
EndSplineSet
EndChar

StartChar: dotaccent
Encoding: 729 729 161
Width: 455
Flags: W
LayerCount: 2
Back
Fore
SplineSet
278 1382 m 0,0,1
 281 1415 281 1415 305 1439 c 128,-1,2
 329 1463 329 1463 363 1464 c 0,3,4
 398 1465 398 1465 420.5 1441 c 128,-1,5
 443 1417 443 1417 440 1382 c 0,6,7
 438 1348 438 1348 413 1325.5 c 128,-1,8
 388 1303 388 1303 355 1302 c 0,9,10
 320 1301 320 1301 298 1324 c 128,-1,11
 276 1347 276 1347 278 1382 c 0,0,1
EndSplineSet
EndChar

StartChar: ring
Encoding: 730 730 162
Width: 626
Flags: W
LayerCount: 2
Back
Fore
SplineSet
252 1387 m 0,0,1
 254 1470 254 1470 313.5 1528 c 128,-1,2
 373 1586 373 1586 452 1586 c 0,3,4
 527 1586 527 1586 578.5 1532.5 c 128,-1,5
 630 1479 630 1479 628 1403 c 0,6,7
 626 1323 626 1323 567.5 1265 c 128,-1,8
 509 1207 509 1207 427 1207 c 0,9,10
 352 1207 352 1207 301 1258.5 c 128,-1,11
 250 1310 250 1310 252 1387 c 0,0,1
329 1389 m 0,12,13
 325 1343 325 1343 351 1311 c 128,-1,14
 377 1279 377 1279 423 1279 c 0,15,16
 471 1279 471 1279 508 1313.5 c 128,-1,17
 545 1348 545 1348 552 1401 c 0,18,19
 556 1449 556 1449 528.5 1481.5 c 128,-1,20
 501 1514 501 1514 456 1514 c 0,21,22
 409 1514 409 1514 371 1477 c 128,-1,23
 333 1440 333 1440 329 1389 c 0,12,13
EndSplineSet
EndChar

StartChar: ogonek
Encoding: 731 731 163
Width: 507
Flags: W
LayerCount: 2
Back
Fore
SplineSet
246 -3 m 1,0,-1
 178 -52 l 2,1,2
 50 -147 50 -147 41 -242 c 0,3,4
 33 -315 33 -315 105 -318 c 0,5,6
 148 -319 148 -319 210 -286 c 1,7,-1
 217 -371 l 1,8,9
 152 -413 152 -413 80 -413 c 0,10,11
 7 -413 7 -413 -33 -367.5 c 128,-1,12
 -73 -322 -73 -322 -69 -251 c 0,13,14
 -66 -177 -66 -177 -7 -106 c 128,-1,15
 52 -35 52 -35 185 38 c 1,16,-1
 246 -3 l 1,0,-1
EndSplineSet
EndChar

StartChar: tilde
Encoding: 732 732 164
Width: 874
Flags: W
LayerCount: 2
Back
Fore
SplineSet
893 1485 m 1,0,1
 879 1385 879 1385 822.5 1327.5 c 128,-1,2
 766 1270 766 1270 683 1270 c 0,3,4
 652 1270 652 1270 626.5 1280.5 c 128,-1,5
 601 1291 601 1291 552 1325.5 c 128,-1,6
 503 1360 503 1360 477 1371.5 c 128,-1,7
 451 1383 451 1383 421 1383 c 0,8,9
 375 1383 375 1383 341.5 1352 c 128,-1,10
 308 1321 308 1321 294 1265 c 1,11,-1
 205 1268 l 1,12,13
 219 1364 219 1364 276.5 1423.5 c 128,-1,14
 334 1483 334 1483 417 1481 c 0,15,16
 455 1481 455 1481 486 1464 c 128,-1,17
 517 1447 517 1447 549.5 1424.5 c 128,-1,18
 582 1402 582 1402 613 1385 c 128,-1,19
 644 1368 644 1368 681 1368 c 0,20,21
 773 1368 773 1368 809 1490 c 1,22,-1
 893 1485 l 1,0,1
EndSplineSet
EndChar

StartChar: hungarumlaut
Encoding: 733 733 165
Width: 760
Flags: W
LayerCount: 2
Back
Fore
SplineSet
771 1535 m 1,0,-1
 922 1535 l 1,1,-1
 599 1232 l 1,2,-1
 469 1233 l 1,3,-1
 771 1535 l 1,0,-1
471 1535 m 1,4,-1
 614 1535 l 1,5,-1
 337 1233 l 1,6,-1
 220 1232 l 1,7,-1
 471 1535 l 1,4,-1
EndSplineSet
EndChar

StartChar: uni02F3
Encoding: 755 755 166
Width: 613
Flags: W
LayerCount: 2
Back
Fore
SplineSet
8 -236 m 0,0,1
 10 -175 10 -175 57 -130.5 c 128,-1,2
 104 -86 104 -86 165 -86 c 0,3,4
 223 -86 223 -86 264.5 -125.5 c 128,-1,5
 306 -165 306 -165 306 -224 c 0,6,7
 304 -286 304 -286 258 -328 c 128,-1,8
 212 -370 212 -370 152 -370 c 128,-1,9
 92 -370 92 -370 50 -332.5 c 128,-1,10
 8 -295 8 -295 8 -236 c 0,0,1
80 -234 m 0,11,12
 76 -262 76 -262 98 -283 c 0,13,14
 117 -301 117 -301 145 -301 c 0,15,16
 177 -300 177 -300 203.5 -279.5 c 128,-1,17
 230 -259 230 -259 235 -227 c 0,18,19
 239 -197 239 -197 219.5 -176.5 c 128,-1,20
 200 -156 200 -156 171 -156 c 0,21,22
 140 -157 140 -157 112.5 -179.5 c 128,-1,23
 85 -202 85 -202 80 -234 c 0,11,12
EndSplineSet
EndChar

StartChar: gravecomb
Encoding: 768 768 167
Width: 10
Flags: W
LayerCount: 2
Back
Fore
SplineSet
-342 1245 m 1,0,-1
 -441 1245 l 1,1,-1
 -612 1524 l 1,2,-1
 -478 1524 l 1,3,-1
 -342 1245 l 1,0,-1
EndSplineSet
EndChar

StartChar: acutecomb
Encoding: 769 769 168
Width: 10
Flags: W
LayerCount: 2
Back
Fore
SplineSet
-256 1524 m 1,0,-1
 -104 1523 l 1,1,-1
 -378 1246 l 1,2,-1
 -490 1245 l 1,3,-1
 -256 1524 l 1,0,-1
EndSplineSet
EndChar

StartChar: hookabovecomb
Encoding: 777 777 170
Width: 10
Flags: W
LayerCount: 2
Back
Fore
SplineSet
-499 1234 m 1,0,-1
 -479 1358 l 1,1,-1
 -432 1364 l 2,2,3
 -305 1381 -305 1381 -298 1459 c 0,4,5
 -291 1532 -291 1532 -413 1544 c 1,6,-1
 -475 1548 l 1,7,-1
 -460 1624 l 1,8,9
 -333 1621 -333 1621 -265 1577.5 c 128,-1,10
 -197 1534 -197 1534 -201 1459 c 0,11,12
 -204 1391 -204 1391 -254.5 1348.5 c 128,-1,13
 -305 1306 -305 1306 -392 1296 c 1,14,-1
 -403 1233 l 1,15,-1
 -499 1234 l 1,0,-1
EndSplineSet
EndChar

StartChar: uni030F
Encoding: 783 783 171
Width: 10
Flags: W
LayerCount: 2
Back
Fore
SplineSet
-420 1252 m 1,0,-1
 -546 1252 l 1,1,-1
 -793 1518 l 1,2,-1
 -636 1518 l 1,3,-1
 -420 1252 l 1,0,-1
-185 1252 m 1,4,-1
 -298 1252 l 1,5,-1
 -495 1518 l 1,6,-1
 -350 1518 l 1,7,-1
 -185 1252 l 1,4,-1
EndSplineSet
EndChar

StartChar: dotbelowcomb
Encoding: 803 803 172
Width: 10
Flags: W
LayerCount: 2
Back
Fore
SplineSet
-797 -231 m 0,0,1
 -794 -198 -794 -198 -770 -174 c 128,-1,2
 -746 -150 -746 -150 -711 -149 c 128,-1,3
 -676 -148 -676 -148 -654 -172 c 128,-1,4
 -632 -196 -632 -196 -634 -231 c 0,5,6
 -637 -265 -637 -265 -661.5 -287.5 c 128,-1,7
 -686 -310 -686 -310 -720 -311 c 0,8,9
 -755 -312 -755 -312 -777 -289 c 128,-1,10
 -799 -266 -799 -266 -797 -231 c 0,0,1
EndSplineSet
EndChar

StartChar: tonos
Encoding: 900 900 173
Width: 513
Flags: W
LayerCount: 2
Back
Fore
SplineSet
434 1588 m 1,0,-1
 555 1588 l 1,1,-1
 396 1284 l 1,2,-1
 308 1284 l 1,3,-1
 434 1588 l 1,0,-1
EndSplineSet
EndChar

StartChar: dieresistonos
Encoding: 901 901 174
Width: 962
Flags: W
LayerCount: 2
Back
Fore
SplineSet
642 1664 m 1,0,-1
 777 1664 l 1,1,-1
 663 1412 l 1,2,-1
 563 1412 l 1,3,-1
 642 1664 l 1,0,-1
286 1396 m 0,4,5
 288 1430 288 1430 314 1454 c 128,-1,6
 340 1478 340 1478 371 1478 c 0,7,8
 406 1479 406 1479 428 1455 c 128,-1,9
 450 1431 450 1431 448 1396 c 0,10,11
 445 1362 445 1362 420.5 1339.5 c 128,-1,12
 396 1317 396 1317 362 1316 c 128,-1,13
 328 1315 328 1315 305.5 1338 c 128,-1,14
 283 1361 283 1361 286 1396 c 0,4,5
776 1395 m 0,15,16
 778 1429 778 1429 804 1453 c 128,-1,17
 830 1477 830 1477 861 1477 c 0,18,19
 896 1478 896 1478 918.5 1454 c 128,-1,20
 941 1430 941 1430 938 1395 c 0,21,22
 936 1362 936 1362 911 1339 c 128,-1,23
 886 1316 886 1316 853 1315 c 0,24,25
 818 1314 818 1314 796 1337 c 128,-1,26
 774 1360 774 1360 776 1395 c 0,15,16
EndSplineSet
EndChar

StartChar: Gamma
Encoding: 915 915 176
Width: 1106
Flags: W
LayerCount: 2
Back
Fore
SplineSet
1163 1351 m 1,0,-1
 431 1351 l 1,1,-1
 196 0 l 1,2,-1
 74 0 l 1,3,-1
 327 1456 l 1,4,-1
 1181 1456 l 1,5,-1
 1163 1351 l 1,0,-1
EndSplineSet
Substitution2: "'c2sc' Capitals to Small Capitals in Cyrillic lookup 3 subtable" Gamma.c2sc
Substitution2: "'c2sc' Capitals to Small Capitals in Greek lookup 2 subtable" Gamma.c2sc
Substitution2: "'c2sc' Capitals to Small Capitals lookup 1 subtable" Gamma.c2sc
Substitution2: "'c2sc' Capitals to Small Capitals in Latin lookup 0 subtable" Gamma.c2sc
Position2: "'cpsp' Capital Spacing in Cyrillic lookup 3 subtable" dx=36 dy=0 dh=72 dv=0
Position2: "'cpsp' Capital Spacing in Greek lookup 2 subtable" dx=36 dy=0 dh=72 dv=0
Position2: "'cpsp' Capital Spacing lookup 1 subtable" dx=36 dy=0 dh=72 dv=0
Position2: "'cpsp' Capital Spacing in Latin lookup 0 subtable" dx=36 dy=0 dh=72 dv=0
EndChar

StartChar: Delta
Encoding: 8710 8710 177
AltUni2: 000394.ffffffff.0
Width: 1394
Flags: W
LayerCount: 2
Back
Fore
SplineSet
901 1456 m 1,0,-1
 1229 0 l 1,1,-1
 -65 0 l 1,2,-1
 785 1456 l 1,3,-1
 901 1456 l 1,0,-1
128 104 m 1,4,-1
 1084 104 l 1,5,-1
 822 1308 l 1,6,-1
 128 104 l 1,4,-1
EndSplineSet
Substitution2: "'c2sc' Capitals to Small Capitals in Cyrillic lookup 3 subtable" Delta.c2sc
Substitution2: "'c2sc' Capitals to Small Capitals in Greek lookup 2 subtable" Delta.c2sc
Substitution2: "'c2sc' Capitals to Small Capitals lookup 1 subtable" Delta.c2sc
Substitution2: "'c2sc' Capitals to Small Capitals in Latin lookup 0 subtable" Delta.c2sc
Position2: "'cpsp' Capital Spacing in Cyrillic lookup 3 subtable" dx=36 dy=0 dh=72 dv=0
Position2: "'cpsp' Capital Spacing in Greek lookup 2 subtable" dx=36 dy=0 dh=72 dv=0
Position2: "'cpsp' Capital Spacing lookup 1 subtable" dx=36 dy=0 dh=72 dv=0
Position2: "'cpsp' Capital Spacing in Latin lookup 0 subtable" dx=36 dy=0 dh=72 dv=0
EndChar

StartChar: Theta
Encoding: 920 920 178
Width: 1347
Flags: W
LayerCount: 2
Back
Fore
SplineSet
950 675 m 1,0,-1
 410 675 l 1,1,-1
 428 776 l 1,2,-1
 969 776 l 1,3,-1
 950 675 l 1,0,-1
569 -20 m 0,4,5
 367 -16 367 -16 247 120 c 128,-1,6
 127 256 127 256 117 489 c 0,7,8
 113 573 113 573 125 656 c 2,9,-1
 146 798 l 2,10,11
 176 999 176 999 271 1159 c 128,-1,12
 366 1319 366 1319 503 1399 c 128,-1,13
 640 1479 640 1479 805 1476 c 0,14,15
 938 1473 938 1473 1038.5 1411 c 128,-1,16
 1139 1349 1139 1349 1195 1232 c 128,-1,17
 1251 1115 1251 1115 1258 966 c 0,18,19
 1261 878 1261 878 1249 799 c 2,20,-1
 1227 655 l 2,21,22
 1195 450 1195 450 1100 291.5 c 128,-1,23
 1005 133 1005 133 868.5 55 c 128,-1,24
 732 -23 732 -23 569 -20 c 0,4,5
1129 808 m 2,25,26
 1137 871 1137 871 1138 937 c 0,27,28
 1138 1059 1138 1059 1099.5 1160.5 c 128,-1,29
 1061 1262 1061 1262 983.5 1314 c 128,-1,30
 906 1366 906 1366 799 1369 c 0,31,32
 590 1374 590 1374 449 1216 c 128,-1,33
 308 1058 308 1058 268 793 c 2,34,-1
 246 648 l 2,35,36
 238 586 238 586 238 521 c 0,37,38
 236 399 236 399 276 296.5 c 128,-1,39
 316 194 316 194 391.5 142 c 128,-1,40
 467 90 467 90 575 87 c 0,41,42
 787 82 787 82 927 239 c 128,-1,43
 1067 396 1067 396 1107 663 c 2,44,-1
 1129 808 l 2,25,26
EndSplineSet
Substitution2: "'c2sc' Capitals to Small Capitals in Cyrillic lookup 3 subtable" Theta.c2sc
Substitution2: "'c2sc' Capitals to Small Capitals in Greek lookup 2 subtable" Theta.c2sc
Substitution2: "'c2sc' Capitals to Small Capitals lookup 1 subtable" Theta.c2sc
Substitution2: "'c2sc' Capitals to Small Capitals in Latin lookup 0 subtable" Theta.c2sc
Position2: "'cpsp' Capital Spacing in Cyrillic lookup 3 subtable" dx=36 dy=0 dh=72 dv=0
Position2: "'cpsp' Capital Spacing in Greek lookup 2 subtable" dx=36 dy=0 dh=72 dv=0
Position2: "'cpsp' Capital Spacing lookup 1 subtable" dx=36 dy=0 dh=72 dv=0
Position2: "'cpsp' Capital Spacing in Latin lookup 0 subtable" dx=36 dy=0 dh=72 dv=0
EndChar

StartChar: Lambda
Encoding: 923 923 179
Width: 1297
Flags: W
LayerCount: 2
Back
Fore
SplineSet
759 1272 m 1,0,-1
 95 0 l 1,1,-1
 -42 0 l 1,2,-1
 727 1456 l 1,3,-1
 845 1456 l 1,4,-1
 1109 0 l 1,5,-1
 983 0 l 1,6,-1
 759 1272 l 1,0,-1
EndSplineSet
Substitution2: "'c2sc' Capitals to Small Capitals in Cyrillic lookup 3 subtable" Lambda.c2sc
Substitution2: "'c2sc' Capitals to Small Capitals in Greek lookup 2 subtable" Lambda.c2sc
Substitution2: "'c2sc' Capitals to Small Capitals lookup 1 subtable" Lambda.c2sc
Substitution2: "'c2sc' Capitals to Small Capitals in Latin lookup 0 subtable" Lambda.c2sc
Position2: "'cpsp' Capital Spacing in Cyrillic lookup 3 subtable" dx=36 dy=0 dh=72 dv=0
Position2: "'cpsp' Capital Spacing in Greek lookup 2 subtable" dx=36 dy=0 dh=72 dv=0
Position2: "'cpsp' Capital Spacing lookup 1 subtable" dx=36 dy=0 dh=72 dv=0
Position2: "'cpsp' Capital Spacing in Latin lookup 0 subtable" dx=36 dy=0 dh=72 dv=0
EndChar

StartChar: Xi
Encoding: 926 926 180
Width: 1121
Flags: W
LayerCount: 2
Back
Fore
SplineSet
26 104 m 1,0,-1
 922 104 l 1,1,-1
 903 0 l 1,2,-1
 7 0 l 1,3,-1
 26 104 l 1,0,-1
238 785 m 1,4,-1
 937 785 l 1,5,-1
 918 680 l 1,6,-1
 219 680 l 1,7,-1
 238 785 l 1,4,-1
272 1456 m 1,8,-1
 1129 1456 l 1,9,-1
 1110 1351 l 1,10,-1
 253 1351 l 1,11,-1
 272 1456 l 1,8,-1
EndSplineSet
Substitution2: "'c2sc' Capitals to Small Capitals in Cyrillic lookup 3 subtable" Xi.c2sc
Substitution2: "'c2sc' Capitals to Small Capitals in Greek lookup 2 subtable" Xi.c2sc
Substitution2: "'c2sc' Capitals to Small Capitals lookup 1 subtable" Xi.c2sc
Substitution2: "'c2sc' Capitals to Small Capitals in Latin lookup 0 subtable" Xi.c2sc
Position2: "'cpsp' Capital Spacing in Cyrillic lookup 3 subtable" dx=36 dy=0 dh=72 dv=0
Position2: "'cpsp' Capital Spacing in Greek lookup 2 subtable" dx=36 dy=0 dh=72 dv=0
Position2: "'cpsp' Capital Spacing lookup 1 subtable" dx=36 dy=0 dh=72 dv=0
Position2: "'cpsp' Capital Spacing in Latin lookup 0 subtable" dx=36 dy=0 dh=72 dv=0
EndChar

StartChar: Pi
Encoding: 928 928 181
Width: 1416
Flags: W
LayerCount: 2
Back
Fore
SplineSet
1119 0 m 1,0,-1
 996 0 l 1,1,-1
 1231 1351 l 1,2,-1
 435 1351 l 1,3,-1
 200 0 l 1,4,-1
 78 0 l 1,5,-1
 331 1456 l 1,6,-1
 1371 1456 l 1,7,-1
 1119 0 l 1,0,-1
EndSplineSet
Substitution2: "'c2sc' Capitals to Small Capitals in Cyrillic lookup 3 subtable" Pi.c2sc
Substitution2: "'c2sc' Capitals to Small Capitals in Greek lookup 2 subtable" Pi.c2sc
Substitution2: "'c2sc' Capitals to Small Capitals lookup 1 subtable" Pi.c2sc
Substitution2: "'c2sc' Capitals to Small Capitals in Latin lookup 0 subtable" Pi.c2sc
Position2: "'cpsp' Capital Spacing in Cyrillic lookup 3 subtable" dx=36 dy=0 dh=72 dv=0
Position2: "'cpsp' Capital Spacing in Greek lookup 2 subtable" dx=36 dy=0 dh=72 dv=0
Position2: "'cpsp' Capital Spacing lookup 1 subtable" dx=36 dy=0 dh=72 dv=0
Position2: "'cpsp' Capital Spacing in Latin lookup 0 subtable" dx=36 dy=0 dh=72 dv=0
EndChar

StartChar: Sigma
Encoding: 931 931 182
Width: 1121
Flags: W
LayerCount: 2
Back
Fore
SplineSet
710 743 m 1,0,-1
 131 104 l 1,1,-1
 954 104 l 1,2,-1
 935 0 l 1,3,-1
 -44 0 l 1,4,-1
 -27 97 l 1,5,-1
 588 765 l 1,6,-1
 193 1369 l 1,7,-1
 209 1456 l 1,8,-1
 1136 1456 l 1,9,-1
 1117 1351 l 1,10,-1
 347 1351 l 1,11,-1
 715 780 l 1,12,-1
 710 743 l 1,0,-1
EndSplineSet
Substitution2: "'c2sc' Capitals to Small Capitals in Cyrillic lookup 3 subtable" Sigma.c2sc
Substitution2: "'c2sc' Capitals to Small Capitals in Greek lookup 2 subtable" Sigma.c2sc
Substitution2: "'c2sc' Capitals to Small Capitals lookup 1 subtable" Sigma.c2sc
Substitution2: "'c2sc' Capitals to Small Capitals in Latin lookup 0 subtable" Sigma.c2sc
Position2: "'cpsp' Capital Spacing in Cyrillic lookup 3 subtable" dx=36 dy=0 dh=72 dv=0
Position2: "'cpsp' Capital Spacing in Greek lookup 2 subtable" dx=36 dy=0 dh=72 dv=0
Position2: "'cpsp' Capital Spacing lookup 1 subtable" dx=36 dy=0 dh=72 dv=0
Position2: "'cpsp' Capital Spacing in Latin lookup 0 subtable" dx=36 dy=0 dh=72 dv=0
EndChar

StartChar: Phi
Encoding: 934 934 183
Width: 1430
Flags: W
LayerCount: 2
Back
Fore
SplineSet
888 1267 m 1,0,1
 1035 1262 1035 1262 1150 1194 c 128,-1,2
 1265 1126 1265 1126 1321.5 1009 c 128,-1,3
 1378 892 1378 892 1365 749 c 2,4,-1
 1364 739 l 2,5,6
 1347 582 1347 582 1257.5 458 c 128,-1,7
 1168 334 1168 334 1022 263.5 c 128,-1,8
 876 193 876 193 708 192 c 1,9,-1
 671 0 l 1,10,-1
 548 0 l 1,11,-1
 586 193 l 1,12,13
 436 198 436 198 321 267.5 c 128,-1,14
 206 337 206 337 151 456 c 128,-1,15
 96 575 96 575 111 721 c 0,16,17
 127 879 127 879 217.5 1003.5 c 128,-1,18
 308 1128 308 1128 453 1197.5 c 128,-1,19
 598 1267 598 1267 765 1268 c 1,20,-1
 802 1456 l 1,21,-1
 925 1456 l 1,22,-1
 888 1267 l 1,0,1
876 1163 m 1,23,-1
 716 297 l 1,24,-1
 720 296 l 1,25,26
 846 286 846 286 960.5 342 c 128,-1,27
 1075 398 1075 398 1150.5 504.5 c 128,-1,28
 1226 611 1226 611 1242 739 c 0,29,30
 1265 923 1265 923 1167 1037 c 128,-1,31
 1069 1151 1069 1151 879 1163 c 1,32,-1
 876 1163 l 1,23,-1
749 1165 m 1,33,34
 539 1161 539 1161 397.5 1038 c 128,-1,35
 256 915 256 915 233 721 c 0,36,37
 210 538 210 538 309.5 422 c 128,-1,38
 409 306 409 306 597 298 c 1,39,-1
 749 1165 l 1,33,34
EndSplineSet
Substitution2: "'c2sc' Capitals to Small Capitals in Cyrillic lookup 3 subtable" Phi.c2sc
Substitution2: "'c2sc' Capitals to Small Capitals in Greek lookup 2 subtable" Phi.c2sc
Substitution2: "'c2sc' Capitals to Small Capitals lookup 1 subtable" Phi.c2sc
Substitution2: "'c2sc' Capitals to Small Capitals in Latin lookup 0 subtable" Phi.c2sc
Position2: "'cpsp' Capital Spacing in Cyrillic lookup 3 subtable" dx=36 dy=0 dh=72 dv=0
Position2: "'cpsp' Capital Spacing in Greek lookup 2 subtable" dx=36 dy=0 dh=72 dv=0
Position2: "'cpsp' Capital Spacing lookup 1 subtable" dx=36 dy=0 dh=72 dv=0
Position2: "'cpsp' Capital Spacing in Latin lookup 0 subtable" dx=36 dy=0 dh=72 dv=0
EndChar

StartChar: Psi
Encoding: 936 936 184
Width: 1389
Flags: W
LayerCount: 2
Back
Fore
SplineSet
744 492 m 1,0,1
 929 510 929 510 1052.5 629 c 128,-1,2
 1176 748 1176 748 1208 938 c 2,3,-1
 1296 1456 l 1,4,-1
 1419 1456 l 1,5,-1
 1331 938 l 2,6,7
 1292 692 1292 692 1128.5 547.5 c 128,-1,8
 965 403 965 403 724 389 c 1,9,-1
 653 0 l 1,10,-1
 530 0 l 1,11,-1
 602 391 l 1,12,13
 383 415 383 415 274 567 c 128,-1,14
 165 719 165 719 193 938 c 1,15,-1
 281 1456 l 1,16,-1
 403 1456 l 1,17,-1
 315 937 l 1,18,19
 292 760 292 760 371.5 639.5 c 128,-1,20
 451 519 451 519 614 495 c 1,21,-1
 784 1456 l 1,22,-1
 904 1456 l 1,23,-1
 744 492 l 1,0,1
EndSplineSet
Substitution2: "'c2sc' Capitals to Small Capitals in Cyrillic lookup 3 subtable" Psi.c2sc
Substitution2: "'c2sc' Capitals to Small Capitals in Greek lookup 2 subtable" Psi.c2sc
Substitution2: "'c2sc' Capitals to Small Capitals lookup 1 subtable" Psi.c2sc
Substitution2: "'c2sc' Capitals to Small Capitals in Latin lookup 0 subtable" Psi.c2sc
Position2: "'cpsp' Capital Spacing in Cyrillic lookup 3 subtable" dx=36 dy=0 dh=72 dv=0
Position2: "'cpsp' Capital Spacing in Greek lookup 2 subtable" dx=36 dy=0 dh=72 dv=0
Position2: "'cpsp' Capital Spacing lookup 1 subtable" dx=36 dy=0 dh=72 dv=0
Position2: "'cpsp' Capital Spacing in Latin lookup 0 subtable" dx=36 dy=0 dh=72 dv=0
EndChar

StartChar: Omega
Encoding: 8486 8486 185
AltUni2: 0003a9.ffffffff.0
Width: 1311
Flags: W
LayerCount: 2
Back
Fore
SplineSet
640 118 m 1,0,1
 808 175 808 175 917.5 328.5 c 128,-1,2
 1027 482 1027 482 1065 723 c 2,3,-1
 1083 847 l 2,4,5
 1090 904 1090 904 1090 965 c 0,6,7
 1090 1150 1090 1150 1007.5 1259 c 128,-1,8
 925 1368 925 1368 777 1372 c 0,9,10
 587 1377 587 1377 453.5 1228.5 c 128,-1,11
 320 1080 320 1080 284 832 c 2,12,-1
 265 697 l 1,13,-1
 259 616 l 2,14,15
 252 505 252 505 272.5 400 c 128,-1,16
 293 295 293 295 347 223.5 c 128,-1,17
 401 152 401 152 482 119 c 1,18,-1
 462 0 l 1,19,-1
 11 0 l 1,20,-1
 30 104 l 1,21,-1
 309 106 l 1,22,23
 144 288 144 288 136 562 c 0,24,25
 131 690 131 690 167.5 881 c 128,-1,26
 204 1072 204 1072 304.5 1218.5 c 128,-1,27
 405 1365 405 1365 547 1429 c 0,28,29
 657 1479 657 1479 783 1476 c 0,30,31
 971 1472 971 1472 1085.5 1342.5 c 128,-1,32
 1200 1213 1200 1213 1212 994 c 0,33,34
 1219 865 1219 865 1178.5 673 c 128,-1,35
 1138 481 1138 481 1043 336.5 c 128,-1,36
 948 192 948 192 806 102 c 1,37,-1
 1088 104 l 1,38,-1
 1069 0 l 1,39,-1
 621 0 l 1,40,-1
 640 118 l 1,0,1
EndSplineSet
Substitution2: "'c2sc' Capitals to Small Capitals in Cyrillic lookup 3 subtable" Omega.c2sc
Substitution2: "'c2sc' Capitals to Small Capitals in Greek lookup 2 subtable" Omega.c2sc
Substitution2: "'c2sc' Capitals to Small Capitals lookup 1 subtable" Omega.c2sc
Substitution2: "'c2sc' Capitals to Small Capitals in Latin lookup 0 subtable" Omega.c2sc
Position2: "'cpsp' Capital Spacing in Cyrillic lookup 3 subtable" dx=36 dy=0 dh=72 dv=0
Position2: "'cpsp' Capital Spacing in Greek lookup 2 subtable" dx=36 dy=0 dh=72 dv=0
Position2: "'cpsp' Capital Spacing lookup 1 subtable" dx=36 dy=0 dh=72 dv=0
Position2: "'cpsp' Capital Spacing in Latin lookup 0 subtable" dx=36 dy=0 dh=72 dv=0
EndChar

StartChar: alpha
Encoding: 945 945 186
Width: 1128
Flags: W
LayerCount: 2
Back
Fore
SplineSet
1034 1082 m 1,0,-1
 898 272 l 1,1,-1
 894 222 l 2,2,3
 881 92 881 92 958 90 c 1,4,-1
 1004 96 l 1,5,-1
 1012 2 l 1,6,7
 966 -21 966 -21 922 -19 c 0,8,9
 773 -16 773 -16 773 176 c 1,10,11
 623 -28 623 -28 414 -21 c 0,12,13
 263 -17 263 -17 177.5 91.5 c 128,-1,14
 92 200 92 200 88 389 c 0,15,16
 86 450 86 450 93 509 c 2,17,-1
 95 530 l 1,18,19
 131 792 131 792 260 949.5 c 128,-1,20
 389 1107 389 1107 585 1102 c 0,21,22
 689 1099 689 1099 766 1046 c 128,-1,23
 843 993 843 993 881 896 c 1,24,-1
 931 1082 l 1,25,-1
 1034 1082 l 1,0,-1
212 504 m 1,26,-1
 206 412 l 1,27,28
 203 253 203 253 264.5 167 c 128,-1,29
 326 81 326 81 441 79 c 0,30,31
 653 72 653 72 784 320 c 1,32,-1
 854 738 l 1,33,34
 827 862 827 862 760.5 929.5 c 128,-1,35
 694 997 694 997 599 1000 c 0,36,37
 448 1005 448 1005 348 880.5 c 128,-1,38
 248 756 248 756 215 524 c 2,39,-1
 212 504 l 1,26,-1
EndSplineSet
Substitution2: "'ss02' Style Set 2 in Cyrillic lookup 26 subtable" alpha.ss02
Substitution2: "'ss02' Style Set 2 in Greek lookup 25 subtable" alpha.ss02
Substitution2: "'ss02' Style Set 2 lookup 24 subtable" alpha.ss02
Substitution2: "'ss02' Style Set 2 in Latin lookup 23 subtable" alpha.ss02
EndChar

StartChar: beta
Encoding: 946 946 187
Width: 1187
Flags: W
LayerCount: 2
Back
Fore
SplineSet
714 1477 m 0,0,1
 878 1473 878 1473 975.5 1367.5 c 128,-1,2
 1073 1262 1073 1262 1059 1101 c 0,3,4
 1050 996 1050 996 984.5 912.5 c 128,-1,5
 919 829 919 829 813 778 c 1,6,7
 923 737 923 737 978.5 640 c 128,-1,8
 1034 543 1034 543 1023 412 c 0,9,10
 1005 214 1005 214 865.5 94.5 c 128,-1,11
 726 -25 726 -25 525 -21 c 0,12,13
 321 -16 321 -16 208 108 c 1,14,-1
 116 -399 l 1,15,-1
 -3 -399 l 1,16,-1
 248 1062 l 1,17,18
 273 1240 273 1240 407.5 1360.5 c 128,-1,19
 542 1481 542 1481 714 1477 c 0,0,1
606 821 m 2,20,21
 747 821 747 821 837 895 c 128,-1,22
 927 969 927 969 941 1105 c 0,23,24
 953 1220 953 1220 888.5 1296 c 128,-1,25
 824 1372 824 1372 708 1376 c 0,26,27
 581 1378 581 1378 485.5 1288 c 128,-1,28
 390 1198 390 1198 367 1062 c 2,29,-1
 227 237 l 1,30,31
 263 167 263 167 341 124.5 c 128,-1,32
 419 82 419 82 521 80 c 0,33,34
 673 76 673 76 780 165.5 c 128,-1,35
 887 255 887 255 905 408 c 0,36,37
 919 545 919 545 848 631 c 0,38,39
 777 716 777 716 648 720 c 2,40,-1
 501 721 l 1,41,-1
 519 822 l 1,42,-1
 606 821 l 2,20,21
EndSplineSet
EndChar

StartChar: gamma
Encoding: 947 947 188
Width: 982
Flags: W
LayerCount: 2
Back
Fore
SplineSet
894 1082 m 1,0,-1
 1022 1082 l 1,1,-1
 449 24 l 1,2,-1
 373 -415 l 1,3,-1
 253 -415 l 1,4,-1
 333 39 l 1,5,-1
 128 1082 l 1,6,-1
 246 1082 l 1,7,-1
 406 233 l 1,8,-1
 411 156 l 1,9,-1
 449 242 l 1,10,-1
 894 1082 l 1,0,-1
EndSplineSet
EndChar

StartChar: delta
Encoding: 948 948 189
Width: 1116
Flags: W
LayerCount: 2
Back
Fore
SplineSet
342 1281 m 0,0,1
 351 1410 351 1410 460 1487.5 c 128,-1,2
 569 1565 569 1565 734 1565 c 0,3,4
 882 1564 882 1564 1014 1496 c 1,5,-1
 992 1394 l 1,6,7
 858 1460 858 1460 728 1460 c 0,8,9
 620 1460 620 1460 545.5 1412.5 c 128,-1,10
 471 1365 471 1365 461 1284 c 0,11,12
 444 1167 444 1167 601 1103 c 1,13,-1
 683 1072 l 1,14,15
 865 1011 865 1011 954 860 c 0,16,17
 1036 720 1036 720 1017 539 c 2,18,-1
 1015 521 l 2,19,20
 985 275 985 275 833.5 124.5 c 128,-1,21
 682 -26 682 -26 471 -20 c 0,22,23
 273 -15 273 -15 167.5 131.5 c 128,-1,24
 62 278 62 278 84 501 c 2,25,-1
 87 527 l 2,26,27
 110 718 110 718 227 851 c 128,-1,28
 344 984 344 984 512 1012 c 1,29,-1
 514 1023 l 1,30,31
 423 1067 423 1067 380 1134.5 c 128,-1,32
 337 1202 337 1202 342 1281 c 0,0,1
204 497 m 2,33,34
 184 314 184 314 258 199.5 c 128,-1,35
 332 85 332 85 477 80 c 0,36,37
 615 75 615 75 723.5 168.5 c 128,-1,38
 832 262 832 262 878 426 c 0,39,40
 908 535 908 535 900 626 c 0,41,42
 885 757 885 757 814.5 849 c 128,-1,43
 744 941 744 941 638 954 c 0,44,45
 538 966 538 966 447 914.5 c 128,-1,46
 356 863 356 863 289 753.5 c 128,-1,47
 222 644 222 644 206 514 c 2,48,-1
 204 497 l 2,33,34
EndSplineSet
EndChar

StartChar: epsilon
Encoding: 949 949 190
Width: 1090
Flags: W
LayerCount: 2
Back
Fore
SplineSet
55 288 m 0,0,1
 69 486 69 486 317 559 c 1,2,3
 238 595 238 595 197 653.5 c 128,-1,4
 156 712 156 712 160 785 c 0,5,6
 168 922 168 922 275.5 1006 c 128,-1,7
 383 1090 383 1090 567 1100 c 1,8,-1
 612 1101 l 1,9,10
 784 1096 784 1096 890 1011.5 c 128,-1,11
 996 927 996 927 989 789 c 1,12,-1
 873 790 l 1,13,14
 880 882 880 882 805.5 939.5 c 128,-1,15
 731 997 731 997 608 1000 c 0,16,17
 473 1003 473 1003 382.5 946 c 128,-1,18
 292 889 292 889 280 789 c 0,19,20
 261 611 261 611 523 603 c 1,21,-1
 715 602 l 1,22,-1
 698 502 l 1,23,-1
 524 503 l 2,24,25
 360 503 360 503 273 448 c 128,-1,26
 186 393 186 393 175 288 c 0,27,28
 165 194 165 194 238.5 138.5 c 128,-1,29
 312 83 312 83 447 80 c 0,30,31
 586 78 586 78 685 141 c 128,-1,32
 784 204 784 204 806 309 c 1,33,-1
 924 309 l 1,34,35
 903 156 903 156 769 65.5 c 128,-1,36
 635 -25 635 -25 442 -20 c 0,37,38
 263 -17 263 -17 154 66.5 c 128,-1,39
 45 150 45 150 55 288 c 0,0,1
EndSplineSet
EndChar

StartChar: zeta
Encoding: 950 950 191
Width: 987
Flags: W
LayerCount: 2
Back
Fore
SplineSet
1057 1456 m 1,0,-1
 1046 1373 l 1,1,-1
 553 844 l 1,2,-1
 469 749 l 1,3,4
 294 544 294 544 270 356 c 0,5,6
 259 273 259 273 299 217.5 c 128,-1,7
 339 162 339 162 454 123 c 2,8,-1
 634 63 l 1,9,10
 764 15 764 15 756 -103 c 0,11,12
 751 -180 751 -180 696.5 -259 c 128,-1,13
 642 -338 642 -338 558 -388 c 1,14,-1
 494 -328 l 1,15,16
 627 -227 627 -227 640 -116 c 0,17,18
 647 -51 647 -51 560 -20 c 1,19,-1
 387 33 l 1,20,-1
 324 59 l 1,21,22
 127 151 127 151 149 353 c 0,23,24
 163 481 163 481 245.5 623 c 128,-1,25
 328 765 328 765 495 938 c 2,26,-1
 896 1354 l 1,27,-1
 213 1354 l 1,28,-1
 229 1456 l 1,29,-1
 1057 1456 l 1,0,-1
EndSplineSet
EndChar

StartChar: eta
Encoding: 951 951 192
Width: 1116
Flags: W
LayerCount: 2
Back
Fore
SplineSet
347 1082 m 1,0,-1
 315 910 l 1,1,2
 455 1106 455 1106 676 1102 c 0,3,4
 837 1099 837 1099 911.5 991.5 c 128,-1,5
 986 884 986 884 964 685 c 1,6,-1
 777 -415 l 1,7,-1
 658 -415 l 1,8,-1
 844 685 l 2,9,10
 851 745 851 745 847 802 c 0,11,12
 840 896 840 896 789 947 c 128,-1,13
 738 998 738 998 645 1001 c 0,14,15
 526 1003 526 1003 426.5 930.5 c 128,-1,16
 327 858 327 858 296 748 c 1,17,-1
 167 0 l 1,18,-1
 48 0 l 1,19,-1
 236 1082 l 1,20,-1
 347 1082 l 1,0,-1
EndSplineSet
EndChar

StartChar: theta
Encoding: 952 952 193
Width: 1148
Flags: W
LayerCount: 2
Back
Fore
SplineSet
473 -20 m 0,0,1
 311 -16 311 -16 221 99 c 128,-1,2
 131 214 131 214 125 430 c 1,3,-1
 125 478 l 1,4,-1
 132 585 l 1,5,-1
 170 838 l 2,6,7
 218 1148 218 1148 354 1314.5 c 128,-1,8
 490 1481 490 1481 705 1476 c 0,9,10
 960 1470 960 1470 1030 1203 c 0,11,12
 1056 1102 1056 1102 1053 982 c 0,13,14
 1051 910 1051 910 1042 844 c 2,15,-1
 1003 598 l 1,16,17
 948 285 948 285 812.5 129 c 128,-1,18
 677 -27 677 -27 473 -20 c 0,0,1
280 774 m 1,19,-1
 913 774 l 1,20,-1
 926 860 l 2,21,22
 942 985 942 985 937 1075 c 0,23,24
 916 1368 916 1368 699 1375 c 0,25,26
 539 1380 539 1380 435 1245 c 128,-1,27
 331 1110 331 1110 291 847 c 2,28,-1
 280 774 l 1,19,-1
900 672 m 1,29,-1
 261 672 l 1,30,31
 245 562 245 562 242 500 c 0,32,33
 231 303 231 303 293 193.5 c 128,-1,34
 355 84 355 84 480 80 c 0,35,36
 623 74 623 74 724.5 189 c 128,-1,37
 826 304 826 304 877 548 c 1,38,-1
 900 672 l 1,29,-1
EndSplineSet
EndChar

StartChar: iota
Encoding: 953 953 194
Width: 606
Flags: W
LayerCount: 2
Back
Fore
SplineSet
386 1082 m 1,0,-1
 251 270 l 1,1,-1
 249 209 l 1,2,3
 253 100 253 100 349 97 c 0,4,5
 373 96 373 96 445 105 c 1,6,-1
 440 5 l 1,7,8
 378 -10 378 -10 321 -8 c 0,9,10
 218 -6 218 -6 169 65.5 c 128,-1,11
 120 137 120 137 133 273 c 1,12,-1
 267 1082 l 1,13,-1
 386 1082 l 1,0,-1
EndSplineSet
EndChar

StartChar: lambda
Encoding: 955 955 195
Width: 1103
Flags: W
LayerCount: 2
Back
Fore
SplineSet
392 1516 m 0,0,1
 562 1516 562 1516 607 1289 c 2,2,-1
 815 235 l 1,3,-1
 828 183 l 1,4,5
 856 90 856 90 935 98 c 2,6,-1
 955 101 l 1,7,-1
 953 0 l 1,8,9
 919 -9 919 -9 892 -9 c 0,10,11
 823 -9 823 -9 776 36.5 c 128,-1,12
 729 82 729 82 699 199 c 1,13,-1
 565 885 l 1,14,-1
 77 0 l 1,15,-1
 -61 0 l 1,16,-1
 531 1059 l 1,17,-1
 485 1267 l 1,18,-1
 473 1312 l 2,19,20
 444 1408 444 1408 366 1413 c 1,21,-1
 342 1413 l 1,22,-1
 318 1411 l 1,23,-1
 324 1506 l 1,24,25
 358 1516 358 1516 392 1516 c 0,0,1
EndSplineSet
EndChar

StartChar: xi
Encoding: 958 958 196
Width: 985
Flags: W
LayerCount: 2
Back
Fore
SplineSet
1011 1333 m 1,0,1
 888 1376 888 1376 777 1376 c 0,2,3
 616 1376 616 1376 517.5 1311.5 c 128,-1,4
 419 1247 419 1247 406 1135 c 0,5,6
 382 924 382 924 678 906 c 1,7,-1
 844 904 l 1,8,-1
 826 801 l 1,9,-1
 705 802 l 2,10,11
 493 802 493 802 363 704 c 128,-1,12
 233 606 233 606 214 436 c 0,13,14
 188 198 188 198 456 103 c 1,15,-1
 643 45 l 1,16,17
 781 -3 781 -3 773 -117 c 0,18,19
 768 -187 768 -187 718.5 -255.5 c 128,-1,20
 669 -324 669 -324 582 -382 c 1,21,-1
 514 -320 l 1,22,-1
 560 -281 l 2,23,24
 647 -205 647 -205 657 -127 c 0,25,26
 664 -70 664 -70 587 -42 c 2,27,-1
 536 -26 l 1,28,-1
 467 -6 l 2,29,30
 255 57 255 57 167.5 166 c 128,-1,31
 80 275 80 275 95 440 c 0,32,33
 107 588 107 588 206.5 695.5 c 128,-1,34
 306 803 306 803 483 856 c 1,35,36
 388 893 388 893 334 964.5 c 128,-1,37
 280 1036 280 1036 286 1129 c 0,38,39
 295 1280 295 1280 415.5 1373.5 c 128,-1,40
 536 1467 536 1467 736 1477 c 1,41,-1
 780 1478 l 1,42,43
 911 1476 911 1476 1037 1432 c 1,44,-1
 1011 1333 l 1,0,1
EndSplineSet
EndChar

StartChar: pi
Encoding: 960 960 197
Width: 1192
Flags: W
LayerCount: 2
Back
Fore
SplineSet
1166 979 m 1,0,-1
 987 979 l 1,1,-1
 869 272 l 1,2,-1
 867 210 l 1,3,4
 871 101 871 101 967 98 c 0,5,6
 1005 96 1005 96 1063 106 c 1,7,-1
 1058 5 l 1,8,9
 996 -10 996 -10 939 -8 c 0,10,11
 836 -6 836 -6 787 65.5 c 128,-1,12
 738 137 738 137 751 273 c 1,13,-1
 868 979 l 1,14,-1
 410 979 l 1,15,-1
 240 0 l 1,16,-1
 121 0 l 1,17,-1
 291 979 l 1,18,-1
 114 979 l 1,19,-1
 132 1082 l 1,20,-1
 1185 1082 l 1,21,-1
 1166 979 l 1,0,-1
EndSplineSet
EndChar

StartChar: rho
Encoding: 961 961 198
Width: 1116
Flags: W
LayerCount: 2
Back
Fore
SplineSet
151 606 m 1,0,1
 186 837 186 837 321 972 c 128,-1,2
 456 1107 456 1107 648 1102 c 0,3,4
 756 1099 756 1099 833.5 1046 c 128,-1,5
 911 993 911 993 950.5 891.5 c 128,-1,6
 990 790 990 790 992 663 c 0,7,8
 993 597 993 597 986 534 c 0,9,10
 950 267 950 267 821.5 120.5 c 128,-1,11
 693 -26 693 -26 503 -21 c 0,12,13
 291 -16 291 -16 194 132 c 1,14,-1
 95 -416 l 1,15,-1
 -25 -416 l 1,16,-1
 151 606 l 1,0,1
216 266 m 1,17,18
 282 84 282 84 482 80 c 0,19,20
 631 77 631 77 732 190 c 128,-1,21
 833 303 833 303 866 534 c 1,22,-1
 873 630 l 1,23,24
 880 805 880 805 820 901 c 128,-1,25
 760 997 760 997 641 1001 c 0,26,27
 501 1006 501 1006 401 894 c 128,-1,28
 301 782 301 782 268 583 c 2,29,-1
 216 266 l 1,17,18
EndSplineSet
EndChar

StartChar: sigma1
Encoding: 962 962 199
Width: 1072
Flags: W
LayerCount: 2
Back
Fore
SplineSet
639 1102 m 0,0,1
 804 1098 804 1098 898 992.5 c 128,-1,2
 992 887 992 887 978 715 c 1,3,-1
 865 715 l 1,4,5
 878 840 878 840 815 918.5 c 128,-1,6
 752 997 752 997 633 1001 c 0,7,8
 535 1004 535 1004 450 953 c 128,-1,9
 365 902 365 902 306 797.5 c 128,-1,10
 247 693 247 693 229 566 c 2,11,-1
 223 518 l 2,12,13
 206 358 206 358 283.5 249.5 c 128,-1,14
 361 141 361 141 531 90 c 1,15,-1
 602 66 l 1,16,17
 739 14 739 14 729 -114 c 0,18,19
 724 -183 724 -183 672 -255.5 c 128,-1,20
 620 -328 620 -328 543 -377 c 1,21,-1
 481 -317 l 1,22,23
 550 -260 550 -260 578.5 -216.5 c 128,-1,24
 607 -173 607 -173 613 -126 c 0,25,26
 623 -51 623 -51 542 -24 c 2,27,-1
 463 -1 l 2,28,29
 271 58 271 58 178.5 189.5 c 128,-1,30
 86 321 86 321 105 517 c 2,31,-1
 109 552 l 2,32,33
 127 710 127 710 200.5 837.5 c 128,-1,34
 274 965 274 965 388 1035.5 c 128,-1,35
 502 1106 502 1106 639 1102 c 0,0,1
EndSplineSet
EndChar

StartChar: sigma
Encoding: 963 963 200
Width: 1114
Flags: W
LayerCount: 2
Back
Fore
SplineSet
1170 979 m 1,0,-1
 865 976 l 1,1,2
 999 856 999 856 1012 663 c 0,3,4
 1024 480 1024 480 954 318 c 128,-1,5
 884 156 884 156 753 65.5 c 128,-1,6
 622 -25 622 -25 464 -21 c 0,7,8
 330 -17 330 -17 238.5 53.5 c 128,-1,9
 147 124 147 124 106 248.5 c 128,-1,10
 65 373 65 373 81 521 c 2,11,-1
 84 546 l 2,12,13
 112 784 112 784 263.5 933.5 c 128,-1,14
 415 1083 415 1083 632 1083 c 2,15,-1
 1189 1082 l 1,16,-1
 1170 979 l 1,0,-1
195 417 m 0,17,18
 201 261 201 261 273.5 172.5 c 128,-1,19
 346 84 346 84 470 80 c 0,20,21
 632 75 632 75 748 201 c 128,-1,22
 864 327 864 327 893 526 c 1,23,-1
 897 559 l 2,24,25
 916 740 916 740 844.5 852.5 c 128,-1,26
 773 965 773 965 628 979 c 1,27,28
 465 981 465 981 348 862 c 128,-1,29
 231 743 231 743 203 550 c 0,30,31
 193 466 193 466 195 417 c 0,17,18
EndSplineSet
EndChar

StartChar: tau
Encoding: 964 964 201
Width: 1026
Flags: W
LayerCount: 2
Back
Fore
SplineSet
1007 980 m 1,0,-1
 617 980 l 1,1,-1
 499 273 l 1,2,-1
 497 209 l 2,3,4
 497 153 497 153 523.5 120 c 128,-1,5
 550 87 550 87 600 86 c 0,6,7
 632 85 632 85 697 101 c 1,8,-1
 713 10 l 1,9,10
 651 -20 651 -20 574 -18 c 0,11,12
 354 -15 354 -15 380 279 c 1,13,-1
 496 980 l 1,14,-1
 139 980 l 1,15,-1
 157 1082 l 1,16,-1
 1025 1082 l 1,17,-1
 1007 980 l 1,0,-1
EndSplineSet
EndChar

StartChar: upsilon
Encoding: 965 965 202
Width: 1072
Flags: W
LayerCount: 2
Back
Fore
SplineSet
365 1082 m 1,0,-1
 252 403 l 2,1,2
 246 351 246 351 248 295 c 2,3,-1
 251 261 l 1,4,5
 274 85 274 85 428 80 c 0,6,7
 619 74 619 74 737.5 277 c 128,-1,8
 856 480 856 480 844 816 c 0,9,10
 839 952 839 952 806 1083 c 1,11,-1
 930 1082 l 1,12,13
 960 950 960 950 962 816 c 0,14,15
 966 542 966 542 902 359 c 128,-1,16
 838 176 838 176 712.5 75.5 c 128,-1,17
 587 -25 587 -25 425 -21 c 0,18,19
 265 -18 265 -18 188 95 c 128,-1,20
 111 208 111 208 133 407 c 1,21,-1
 246 1082 l 1,22,-1
 365 1082 l 1,0,-1
EndSplineSet
EndChar

StartChar: phi
Encoding: 966 966 203
Width: 1372
Flags: W
LayerCount: 2
Back
Fore
SplineSet
528 -18 m 1,0,1
 305 5 305 5 196.5 156.5 c 128,-1,2
 88 308 88 308 118 547 c 0,3,4
 138 717 138 717 223.5 855.5 c 128,-1,5
 309 994 309 994 455 1084 c 1,6,-1
 508 994 l 1,7,8
 360 892 360 892 286 719 c 128,-1,9
 212 546 212 546 235 381 c 0,10,11
 252 257 252 257 331.5 179 c 128,-1,12
 411 101 411 101 539 83 c 1,13,-1
 673 875 l 2,14,15
 686 973 686 973 751 1029.5 c 128,-1,16
 816 1086 816 1086 906 1084 c 0,17,18
 1027 1082 1027 1082 1113 1009.5 c 128,-1,19
 1199 937 1199 937 1239 812 c 128,-1,20
 1279 687 1279 687 1264 552 c 0,21,22
 1237 311 1237 311 1067.5 154 c 128,-1,23
 898 -3 898 -3 647 -19 c 1,24,-1
 564 -478 l 1,25,-1
 445 -478 l 1,26,-1
 528 -18 l 1,0,1
662 80 m 1,27,28
 802 95 802 95 914 169.5 c 128,-1,29
 1026 244 1026 244 1089.5 368.5 c 128,-1,30
 1153 493 1153 493 1149 640 c 0,31,32
 1142 799 1142 799 1076 891.5 c 128,-1,33
 1010 984 1010 984 901 980 c 0,34,35
 856 978 856 978 829.5 948.5 c 128,-1,36
 803 919 803 919 795 878 c 2,37,-1
 662 80 l 1,27,28
EndSplineSet
EndChar

StartChar: psi
Encoding: 968 968 204
Width: 1368
Flags: W
LayerCount: 2
Back
Fore
SplineSet
812 1082 m 1,0,-1
 645 80 l 1,1,2
 827 97 827 97 953 214 c 128,-1,3
 1079 331 1079 331 1122 530 c 0,4,5
 1154 679 1154 679 1138 837 c 0,6,7
 1124 964 1124 964 1081 1083 c 1,8,-1
 1204 1082 l 1,9,10
 1244 961 1244 961 1255 837 c 0,11,12
 1276 594 1276 594 1206.5 402 c 128,-1,13
 1137 210 1137 210 986.5 101.5 c 128,-1,14
 836 -7 836 -7 626 -18 c 1,15,-1
 549 -443 l 1,16,-1
 431 -443 l 1,17,-1
 509 -16 l 1,18,19
 339 3 339 3 238 104.5 c 128,-1,20
 137 206 137 206 116 375 c 0,21,22
 103 479 103 479 118 593 c 1,23,-1
 200 1082 l 1,24,-1
 319 1082 l 1,25,-1
 237 590 l 2,26,27
 225 502 225 502 231 418 c 0,28,29
 241 278 241 278 314.5 191 c 128,-1,30
 388 104 388 104 520 84 c 1,31,-1
 696 1082 l 1,32,-1
 812 1082 l 1,0,-1
EndSplineSet
EndChar

StartChar: omega
Encoding: 969 969 205
Width: 1647
Flags: W
LayerCount: 2
Back
Fore
SplineSet
477 1081 m 1,0,-1
 395 942 l 1,1,2
 216 621 216 621 233 345 c 0,3,4
 241 219 241 219 290 151 c 128,-1,5
 339 83 339 83 425 80 c 0,6,7
 551 73 551 73 633.5 176.5 c 128,-1,8
 716 280 716 280 743 477 c 1,9,-1
 790 770 l 1,10,-1
 910 770 l 1,11,-1
 863 477 l 1,12,-1
 856 397 l 1,13,14
 849 244 849 244 898.5 162.5 c 128,-1,15
 948 81 948 81 1047 79 c 0,16,17
 1164 77 1164 77 1244.5 172.5 c 128,-1,18
 1325 268 1325 268 1363 449.5 c 128,-1,19
 1401 631 1401 631 1385 812 c 0,20,21
 1373 951 1373 951 1327 1083 c 1,22,-1
 1451 1082 l 1,23,24
 1493 948 1493 948 1503 813 c 0,25,26
 1515 646 1515 646 1489 490.5 c 128,-1,27
 1463 335 1463 335 1405 222 c 0,28,29
 1278 -27 1278 -27 1044 -21 c 0,30,31
 933 -19 933 -19 856.5 50 c 128,-1,32
 780 119 780 119 766 233 c 1,33,34
 640 -28 640 -28 411 -21 c 0,35,36
 266 -17 266 -17 189 96.5 c 128,-1,37
 112 210 112 210 115 409 c 0,38,39
 118 586 118 586 174.5 751 c 128,-1,40
 231 916 231 916 345 1082 c 1,41,-1
 477 1081 l 1,0,-1
EndSplineSet
EndChar

StartChar: theta1
Encoding: 977 977 206
Width: 1150
Flags: W
LayerCount: 2
Back
Fore
SplineSet
1139 674 m 1,0,1
 1063 649 1063 649 969 640 c 1,2,-1
 934 428 l 2,3,4
 914 287 914 287 851 184.5 c 128,-1,5
 788 82 788 82 688.5 29 c 128,-1,6
 589 -24 589 -24 460 -20 c 0,7,8
 278 -14 278 -14 184.5 109.5 c 128,-1,9
 91 233 91 233 113 428 c 1,10,-1
 167 757 l 1,11,-1
 287 759 l 1,12,-1
 233 427 l 2,13,14
 225 361 225 361 233 300 c 0,15,16
 246 199 246 199 306 143 c 128,-1,17
 366 87 366 87 467 83 c 0,18,19
 608 78 608 78 698.5 165 c 128,-1,20
 789 252 789 252 815 427 c 2,21,-1
 852 643 l 1,22,23
 650 669 650 669 539.5 801 c 128,-1,24
 429 933 429 933 445 1123 c 1,25,-1
 446 1144 l 1,26,27
 461 1290 461 1290 555 1386.5 c 128,-1,28
 649 1483 649 1483 782 1479 c 0,29,30
 922 1476 922 1476 992 1367 c 128,-1,31
 1062 1258 1062 1258 1042 1081 c 1,32,-1
 986 744 l 1,33,34
 1075 755 1075 755 1139 774 c 1,35,-1
 1139 674 l 1,0,1
562 1122 m 2,36,37
 548 971 548 971 625.5 872.5 c 128,-1,38
 703 774 703 774 864 748 c 1,39,-1
 922 1082 l 2,40,41
 927 1127 927 1127 927 1178 c 0,42,43
 923 1370 923 1370 773 1375 c 0,44,45
 689 1377 689 1377 632.5 1312.5 c 128,-1,46
 576 1248 576 1248 564 1143 c 2,47,-1
 562 1122 l 2,36,37
EndSplineSet
EndChar

StartChar: Upsilon1
Encoding: 978 978 207
Width: 1075
Flags: W
LayerCount: 2
Back
Fore
SplineSet
874 1261 m 1,0,1
 939 1379 939 1379 1003.5 1425.5 c 128,-1,2
 1068 1472 1068 1472 1150 1470 c 0,3,4
 1212 1466 1212 1466 1266 1439 c 1,5,-1
 1227 1347 l 1,6,7
 1195 1360 1195 1360 1161 1364 c 0,8,9
 1075 1369 1075 1369 1003 1259 c 1,10,-1
 597 587 l 1,11,-1
 495 0 l 1,12,-1
 373 0 l 1,13,-1
 478 606 l 1,14,-1
 310 1217 l 1,15,-1
 294 1259 l 2,16,17
 256 1356 256 1356 183 1356 c 0,18,19
 155 1356 155 1356 117 1344 c 1,20,-1
 96 1440 l 1,21,22
 150 1465 150 1465 203 1465 c 0,23,24
 275 1465 275 1465 328 1417.5 c 128,-1,25
 381 1370 381 1370 417 1259 c 1,26,-1
 547 768 l 1,27,-1
 553 706 l 1,28,-1
 589 780 l 1,29,-1
 874 1261 l 1,0,1
EndSplineSet
EndChar

StartChar: omega1
Encoding: 982 982 208
Width: 1572
Flags: W
LayerCount: 2
Back
Fore
SplineSet
1595 979 m 1,0,-1
 1435 979 l 1,1,2
 1452 867 1452 867 1455 758 c 0,3,4
 1459 541 1459 541 1404.5 355 c 128,-1,5
 1350 169 1350 169 1249 72 c 128,-1,6
 1148 -25 1148 -25 1009 -21 c 0,7,8
 897 -19 897 -19 822 48.5 c 128,-1,9
 747 116 747 116 731 232 c 1,10,11
 610 -29 610 -29 378 -22 c 0,12,13
 236 -16 236 -16 164.5 100.5 c 128,-1,14
 93 217 93 217 98 414 c 0,15,16
 103 723 103 723 270 981 c 1,17,-1
 121 979 l 1,18,-1
 140 1082 l 1,19,-1
 1615 1082 l 1,20,-1
 1595 979 l 1,0,-1
1335 757 m 0,21,22
 1329 867 1329 867 1309 979 c 1,23,-1
 400 980 l 1,24,25
 294 802 294 802 252 655 c 128,-1,26
 210 508 210 508 215 350 c 0,27,28
 218 227 218 227 262.5 156 c 128,-1,29
 307 85 307 85 392 80 c 0,30,31
 516 73 516 73 597 173 c 128,-1,32
 678 273 678 273 707 470 c 2,33,-1
 751 747 l 1,34,-1
 871 747 l 1,35,-1
 828 477 l 1,36,-1
 821 397 l 1,37,38
 814 244 814 244 862.5 162.5 c 128,-1,39
 911 81 911 81 1012 79 c 0,40,41
 1121 77 1121 77 1195.5 170 c 128,-1,42
 1270 263 1270 263 1306.5 430 c 128,-1,43
 1343 597 1343 597 1335 757 c 0,21,22
EndSplineSet
EndChar

StartChar: uni0402
Encoding: 1026 1026 209
Width: 1488
Flags: W
LayerCount: 2
Back
Fore
SplineSet
1272 1351 m 1,0,-1
 724 1351 l 1,1,-1
 626 817 l 1,2,3
 811 886 811 886 951 884 c 0,4,5
 1161 882 1161 882 1274.5 760 c 128,-1,6
 1388 638 1388 638 1368 429 c 0,7,8
 1348 230 1348 230 1204 110.5 c 128,-1,9
 1060 -9 1060 -9 840 -16 c 1,10,-1
 844 87 l 1,11,12
 1008 89 1008 89 1118 183.5 c 128,-1,13
 1228 278 1228 278 1245 432 c 0,14,15
 1263 587 1263 587 1184 679.5 c 128,-1,16
 1105 772 1105 772 947 776 c 0,17,18
 806 779 806 779 615 711 c 1,19,-1
 489 0 l 1,20,-1
 366 0 l 1,21,-1
 601 1351 l 1,22,-1
 181 1351 l 1,23,-1
 200 1456 l 1,24,-1
 1291 1456 l 1,25,-1
 1272 1351 l 1,0,-1
EndSplineSet
Substitution2: "'c2sc' Capitals to Small Capitals in Cyrillic lookup 3 subtable" uni0402.c2sc
Substitution2: "'c2sc' Capitals to Small Capitals in Greek lookup 2 subtable" uni0402.c2sc
Substitution2: "'c2sc' Capitals to Small Capitals lookup 1 subtable" uni0402.c2sc
Substitution2: "'c2sc' Capitals to Small Capitals in Latin lookup 0 subtable" uni0402.c2sc
Position2: "'cpsp' Capital Spacing in Cyrillic lookup 3 subtable" dx=36 dy=0 dh=72 dv=0
Position2: "'cpsp' Capital Spacing in Greek lookup 2 subtable" dx=36 dy=0 dh=72 dv=0
Position2: "'cpsp' Capital Spacing lookup 1 subtable" dx=36 dy=0 dh=72 dv=0
Position2: "'cpsp' Capital Spacing in Latin lookup 0 subtable" dx=36 dy=0 dh=72 dv=0
EndChar

StartChar: uni0404
Encoding: 1028 1028 210
Width: 1321
Flags: W
LayerCount: 2
Back
Fore
SplineSet
1152 454 m 1,0,1
 1100 226 1100 226 944 100 c 128,-1,2
 788 -26 788 -26 564 -20 c 0,3,4
 369 -16 369 -16 253.5 118.5 c 128,-1,5
 138 253 138 253 129 481 c 0,6,7
 126 559 126 559 136 636 c 2,8,-1
 163 812 l 2,9,10
 194 1013 194 1013 288 1169 c 128,-1,11
 382 1325 382 1325 515.5 1402 c 128,-1,12
 649 1479 649 1479 810 1476 c 0,13,14
 1019 1472 1019 1472 1135.5 1343 c 128,-1,15
 1252 1214 1252 1214 1250 999 c 1,16,-1
 1129 1000 l 1,17,18
 1129 1174 1129 1174 1046 1271 c 128,-1,19
 963 1368 963 1368 805 1372 c 0,20,21
 607 1377 607 1377 471 1227.5 c 128,-1,22
 335 1078 335 1078 285 820 c 1,23,-1
 280 789 l 1,24,-1
 873 789 l 1,25,-1
 854 685 l 1,26,-1
 268 685 l 1,27,28
 251 579 251 579 251 513 c 0,29,30
 249 395 249 395 285.5 294 c 128,-1,31
 322 193 322 193 395 140 c 128,-1,32
 468 87 468 87 570 84 c 0,33,34
 744 78 744 78 861 171.5 c 128,-1,35
 978 265 978 265 1033 453 c 1,36,-1
 1152 454 l 1,0,1
EndSplineSet
Substitution2: "'c2sc' Capitals to Small Capitals in Cyrillic lookup 3 subtable" uni0404.c2sc
Substitution2: "'c2sc' Capitals to Small Capitals in Greek lookup 2 subtable" uni0404.c2sc
Substitution2: "'c2sc' Capitals to Small Capitals lookup 1 subtable" uni0404.c2sc
Substitution2: "'c2sc' Capitals to Small Capitals in Latin lookup 0 subtable" uni0404.c2sc
Position2: "'cpsp' Capital Spacing in Cyrillic lookup 3 subtable" dx=36 dy=0 dh=72 dv=0
Position2: "'cpsp' Capital Spacing in Greek lookup 2 subtable" dx=36 dy=0 dh=72 dv=0
Position2: "'cpsp' Capital Spacing lookup 1 subtable" dx=36 dy=0 dh=72 dv=0
Position2: "'cpsp' Capital Spacing in Latin lookup 0 subtable" dx=36 dy=0 dh=72 dv=0
EndChar

StartChar: uni0409
Encoding: 1033 1033 211
Width: 2106
Flags: W
LayerCount: 2
Back
Fore
SplineSet
1321 1456 m 1,0,-1
 1215 848 l 1,1,-1
 1555 847 l 2,2,3
 1682 844 1682 844 1779 792.5 c 128,-1,4
 1876 741 1876 741 1923 647 c 128,-1,5
 1970 553 1970 553 1959 431 c 0,6,7
 1941 236 1941 236 1795.5 118 c 128,-1,8
 1650 0 1650 0 1423 0 c 2,9,-1
 946 0 l 1,10,-1
 1181 1351 l 1,11,-1
 641 1351 l 1,12,-1
 509 770 l 1,13,-1
 473 590 l 2,14,15
 409 280 409 280 301 146 c 128,-1,16
 193 12 193 12 26 1 c 1,17,-1
 -52 0 l 1,18,-1
 -40 103 l 1,19,-1
 2 104 l 2,20,21
 142 110 142 110 231.5 239.5 c 128,-1,22
 321 369 321 369 370 663 c 2,23,-1
 391 780 l 1,24,-1
 542 1456 l 1,25,-1
 1321 1456 l 1,0,-1
1198 744 m 1,26,-1
 1086 104 l 1,27,-1
 1428 103 l 2,28,29
 1592 103 1592 103 1706 194 c 128,-1,30
 1820 285 1820 285 1837 434 c 0,31,32
 1854 568 1854 568 1775.5 653.5 c 128,-1,33
 1697 739 1697 739 1552 743 c 2,34,-1
 1198 744 l 1,26,-1
EndSplineSet
Substitution2: "'c2sc' Capitals to Small Capitals in Cyrillic lookup 3 subtable" uni0409.c2sc
Substitution2: "'c2sc' Capitals to Small Capitals in Greek lookup 2 subtable" uni0409.c2sc
Substitution2: "'c2sc' Capitals to Small Capitals lookup 1 subtable" uni0409.c2sc
Substitution2: "'c2sc' Capitals to Small Capitals in Latin lookup 0 subtable" uni0409.c2sc
Position2: "'cpsp' Capital Spacing in Cyrillic lookup 3 subtable" dx=36 dy=0 dh=72 dv=0
Position2: "'cpsp' Capital Spacing in Greek lookup 2 subtable" dx=36 dy=0 dh=72 dv=0
Position2: "'cpsp' Capital Spacing lookup 1 subtable" dx=36 dy=0 dh=72 dv=0
Position2: "'cpsp' Capital Spacing in Latin lookup 0 subtable" dx=36 dy=0 dh=72 dv=0
EndChar

StartChar: uni040A
Encoding: 1034 1034 212
Width: 2154
Flags: W
LayerCount: 2
Back
Fore
SplineSet
333 785 m 1,0,-1
 1130 785 l 1,1,-1
 1247 1456 l 1,2,-1
 1369 1456 l 1,3,-1
 1259 827 l 1,4,-1
 1580 826 l 2,5,6
 1790 825 1790 825 1906 716 c 128,-1,7
 2022 607 2022 607 2005 423 c 0,8,9
 1987 230 1987 230 1842.5 115 c 128,-1,10
 1698 0 1698 0 1469 0 c 2,11,-1
 994 0 l 1,12,-1
 1112 681 l 1,13,-1
 316 681 l 1,14,-1
 197 0 l 1,15,-1
 75 0 l 1,16,-1
 328 1456 l 1,17,-1
 450 1456 l 1,18,-1
 333 785 l 1,0,-1
1242 723 m 1,19,-1
 1135 108 l 1,20,-1
 1476 107 l 2,21,22
 1618 109 1618 109 1723 173 c 0,23,24
 1864 260 1864 260 1883 426 c 0,25,26
 1898 561 1898 561 1818 639.5 c 128,-1,27
 1738 718 1738 718 1596 722 c 2,28,-1
 1242 723 l 1,19,-1
EndSplineSet
Substitution2: "'c2sc' Capitals to Small Capitals in Cyrillic lookup 3 subtable" uni040A.c2sc
Substitution2: "'c2sc' Capitals to Small Capitals in Greek lookup 2 subtable" uni040A.c2sc
Substitution2: "'c2sc' Capitals to Small Capitals lookup 1 subtable" uni040A.c2sc
Substitution2: "'c2sc' Capitals to Small Capitals in Latin lookup 0 subtable" uni040A.c2sc
Position2: "'cpsp' Capital Spacing in Cyrillic lookup 3 subtable" dx=36 dy=0 dh=72 dv=0
Position2: "'cpsp' Capital Spacing in Greek lookup 2 subtable" dx=36 dy=0 dh=72 dv=0
Position2: "'cpsp' Capital Spacing lookup 1 subtable" dx=36 dy=0 dh=72 dv=0
Position2: "'cpsp' Capital Spacing in Latin lookup 0 subtable" dx=36 dy=0 dh=72 dv=0
EndChar

StartChar: uni040B
Encoding: 1035 1035 213
Width: 1608
Flags: W
LayerCount: 2
Back
Fore
SplineSet
1271 1351 m 1,0,-1
 729 1351 l 1,1,-1
 631 810 l 1,2,3
 822 861 822 861 994 859 c 0,4,5
 1217 855 1217 855 1319 737 c 128,-1,6
 1421 619 1421 619 1396 412 c 1,7,-1
 1328 0 l 1,8,-1
 1205 0 l 1,9,-1
 1273 413 l 1,10,11
 1293 578 1293 578 1224.5 664.5 c 128,-1,12
 1156 751 1156 751 991 755 c 0,13,14
 831 758 831 758 620 705 c 1,15,-1
 495 0 l 1,16,-1
 373 0 l 1,17,-1
 607 1351 l 1,18,-1
 181 1351 l 1,19,-1
 200 1456 l 1,20,-1
 1290 1456 l 1,21,-1
 1271 1351 l 1,0,-1
EndSplineSet
Substitution2: "'c2sc' Capitals to Small Capitals in Cyrillic lookup 3 subtable" uni040B.c2sc
Substitution2: "'c2sc' Capitals to Small Capitals in Greek lookup 2 subtable" uni040B.c2sc
Substitution2: "'c2sc' Capitals to Small Capitals lookup 1 subtable" uni040B.c2sc
Substitution2: "'c2sc' Capitals to Small Capitals in Latin lookup 0 subtable" uni040B.c2sc
Position2: "'cpsp' Capital Spacing in Cyrillic lookup 3 subtable" dx=36 dy=0 dh=72 dv=0
Position2: "'cpsp' Capital Spacing in Greek lookup 2 subtable" dx=36 dy=0 dh=72 dv=0
Position2: "'cpsp' Capital Spacing lookup 1 subtable" dx=36 dy=0 dh=72 dv=0
Position2: "'cpsp' Capital Spacing in Latin lookup 0 subtable" dx=36 dy=0 dh=72 dv=0
EndChar

StartChar: uni040F
Encoding: 1039 1039 214
Width: 1411
Flags: W
LayerCount: 2
Back
Fore
SplineSet
327 1456 m 1,0,-1
 450 1456 l 1,1,-1
 215 104 l 1,2,-1
 1012 104 l 1,3,-1
 1247 1456 l 1,4,-1
 1369 1456 l 1,5,-1
 1116 0 l 1,6,-1
 662 0 l 1,7,-1
 601 -353 l 1,8,-1
 477 -353 l 1,9,-1
 539 0 l 1,10,-1
 74 0 l 1,11,-1
 327 1456 l 1,0,-1
EndSplineSet
Substitution2: "'c2sc' Capitals to Small Capitals in Cyrillic lookup 3 subtable" uni040F.c2sc
Substitution2: "'c2sc' Capitals to Small Capitals in Greek lookup 2 subtable" uni040F.c2sc
Substitution2: "'c2sc' Capitals to Small Capitals lookup 1 subtable" uni040F.c2sc
Substitution2: "'c2sc' Capitals to Small Capitals in Latin lookup 0 subtable" uni040F.c2sc
Position2: "'cpsp' Capital Spacing in Cyrillic lookup 3 subtable" dx=36 dy=0 dh=72 dv=0
Position2: "'cpsp' Capital Spacing in Greek lookup 2 subtable" dx=36 dy=0 dh=72 dv=0
Position2: "'cpsp' Capital Spacing lookup 1 subtable" dx=36 dy=0 dh=72 dv=0
Position2: "'cpsp' Capital Spacing in Latin lookup 0 subtable" dx=36 dy=0 dh=72 dv=0
EndChar

StartChar: uni0411
Encoding: 1041 1041 215
Width: 1256
Flags: W
LayerCount: 2
Back
Fore
SplineSet
1155 1351 m 1,0,-1
 423 1351 l 1,1,-1
 332 824 l 1,2,-1
 654 823 l 2,3,4
 865 822 865 822 980 713 c 128,-1,5
 1095 604 1095 604 1078 421 c 0,6,7
 1060 228 1060 228 916.5 114 c 128,-1,8
 773 0 773 0 543 0 c 2,9,-1
 66 0 l 1,10,-1
 319 1456 l 1,11,-1
 1173 1456 l 1,12,-1
 1155 1351 l 1,0,-1
314 719 m 1,13,-1
 208 104 l 1,14,-1
 549 103 l 2,15,16
 713 103 713 103 825.5 189 c 128,-1,17
 938 275 938 275 955 424 c 0,18,19
 970 560 970 560 891.5 637 c 128,-1,20
 813 714 813 714 669 718 c 2,21,-1
 314 719 l 1,13,-1
EndSplineSet
Substitution2: "'c2sc' Capitals to Small Capitals in Cyrillic lookup 3 subtable" uni0411.c2sc
Substitution2: "'c2sc' Capitals to Small Capitals in Greek lookup 2 subtable" uni0411.c2sc
Substitution2: "'c2sc' Capitals to Small Capitals lookup 1 subtable" uni0411.c2sc
Substitution2: "'c2sc' Capitals to Small Capitals in Latin lookup 0 subtable" uni0411.c2sc
Position2: "'cpsp' Capital Spacing in Cyrillic lookup 3 subtable" dx=36 dy=0 dh=72 dv=0
Position2: "'cpsp' Capital Spacing in Greek lookup 2 subtable" dx=36 dy=0 dh=72 dv=0
Position2: "'cpsp' Capital Spacing lookup 1 subtable" dx=36 dy=0 dh=72 dv=0
Position2: "'cpsp' Capital Spacing in Latin lookup 0 subtable" dx=36 dy=0 dh=72 dv=0
EndChar

